<?xml version="1.0" standalone="no"?>
<!DOCTYPE svg PUBLIC "-//W3C//DTD SVG 1.1//EN" "http://www.w3.org/Graphics/SVG/1.1/DTD/svg11.dtd" >
<svg>
<metadata>
Created by FontForge 20110222 at Sun Oct 13 13:41:26 2013
 By Orthosie Webhosting
Copyright (c) 2011-2012 by Glenjan. All rights reserved.
</metadata>
<defs>
<font id="SredaRegular" horiz-adv-x="794" >
  <font-face 
    font-family="SredaRegular"
    font-weight="400"
    font-stretch="normal"
    units-per-em="1000"
    panose-1="2 0 5 5 0 0 0 2 0 4"
    ascent="750"
    descent="-250"
    x-height="500"
    cap-height="610"
    bbox="-97 -305 1275 898"
    underline-thickness="50"
    underline-position="-50"
    unicode-range="U+0020-2212"
  />
<missing-glyph horiz-adv-x="265" 
 />
    <glyph glyph-name=".notdef" horiz-adv-x="265" 
 />
    <glyph glyph-name=".null" horiz-adv-x="0" 
 />
    <glyph glyph-name="nonmarkingreturn" horiz-adv-x="333" 
 />
    <glyph glyph-name="space" unicode=" " horiz-adv-x="265" 
 />
    <glyph glyph-name="exclam" unicode="!" horiz-adv-x="300" 
d="M83 733l126 11l7 -6l-22 -539h-89zM150 138q38 0 64.5 -19.5t26.5 -57.5q0 -37 -26.5 -56.5t-64.5 -19.5t-64 19.5t-26 56.5q0 38 26 57.5t64 19.5z" />
    <glyph glyph-name="quotedbl" unicode="&#x22;" horiz-adv-x="338" 
d="M52 635h104v-209h-75zM192 635h104l-33 -209h-71v209z" />
    <glyph glyph-name="numbersign" unicode="#" horiz-adv-x="454" 
d="M31 244l83 -3l5 69h-90l-4 69l6 3l94 -4l8 93l70 -3l2 -7l-13 -83h71l8 88l69 -3l2 -7l-12 -78h95v-68h-102l-4 -70h106v-69h-111l-6 -96l-68 7l7 89h-70l-6 -91l-69 8l6 83h-79l-4 70zM181 240h71l6 70h-72z" />
    <glyph glyph-name="dollar" unicode="$" horiz-adv-x="725" 
d="M591 391l-28 102q-39 26 -94.5 41.5t-122.5 15.5q-88 0 -129 -21t-41 -66q0 -29 19.5 -47.5t54.5 -23.5l231 -32q48 -7 88.5 -19.5t69 -33t44.5 -50.5t16 -70q0 -57 -25.5 -96t-68.5 -63.5t-98 -36.5t-113 -15l-9 -101h-80v102q-70 4 -137 21t-136 57l11 174l64 -1
l22 -96q45 -32 98.5 -51.5t131.5 -19.5q42 0 80 4t66 15t44.5 30t16.5 50q0 37 -23.5 58t-68.5 27l-240 33q-40 6 -74 18t-59.5 32t-40 48t-14.5 66q0 49 20 84t55.5 58t85.5 35t110 15l8 92h80v-93q79 -5 145 -22t112 -40l-10 -177z" />
    <glyph glyph-name="uni0025" unicode="%" horiz-adv-x="855" 
d="M650 243q-47 0 -68.5 -23.5t-21.5 -71.5t21.5 -71.5t68.5 -23.5t68.5 23.5t21.5 71.5t-21.5 71.5t-68.5 23.5zM650 312q41 0 74.5 -11.5t57.5 -33t37 -52t13 -67.5q0 -38 -13 -68t-37 -51.5t-57.5 -33t-74.5 -11.5t-74.5 11.5t-57.5 33t-37 51.5t-13 68q0 37 13 67.5
t37 52t57.5 33t74.5 11.5zM209 16l375 589l66 -35l-374 -589zM207 528q-47 0 -68.5 -23.5t-21.5 -71.5t21.5 -71.5t68.5 -23.5t68.5 23.5t21.5 71.5t-21.5 71.5t-68.5 23.5zM207 597q41 0 74.5 -11.5t57.5 -33t37 -52t13 -67.5q0 -38 -13 -68t-37 -51.5t-57.5 -33
t-74.5 -11.5t-74.5 11.5t-57.5 33t-37 51.5t-13 68q0 37 13 67.5t37 52t57.5 33t74.5 11.5z" />
    <glyph glyph-name="ampersand" unicode="&#x26;" horiz-adv-x="885" 
d="M234 346q-32 -23 -44.5 -58t-12.5 -73q0 -78 50 -118t138 -40q44 0 86 12.5t74 46.5zM554 420l-25 108q-32 15 -73.5 21t-77.5 6q-20 0 -40.5 -2.5t-37.5 -10t-28 -21t-11 -35.5q0 -17 10 -32t25 -26l295 -231q7 17 11.5 40.5t4.5 56.5l-77 18v59h256v-59l-68 -17
q0 -52 -10.5 -89.5t-29.5 -68.5l56 -44q28 -22 47 -26t37 -4q16 0 29 4l21 -48q-23 -19 -48 -25.5t-57 -6.5q-15 0 -31.5 3t-32.5 8t-30 11.5t-23 14.5l-37 29q-98 -78 -239 -78q-58 0 -114.5 12t-101 39t-72 71t-27.5 107q0 65 33 108.5t91 75.5q-44 39 -44 95
q0 48 23 77.5t57.5 46t75.5 22.5t77 6q81 0 145 -11.5t124 -40.5l-20 -163h-63z" />
    <glyph glyph-name="quotesingle" unicode="'" horiz-adv-x="220" 
d="M56 634h104l-33 -209h-71v209z" />
    <glyph glyph-name="parenleft" unicode="(" horiz-adv-x="297" 
d="M24 302q0 60 15 114.5t42.5 100t66.5 81t86 59.5l41 -52q-63 -43 -101.5 -116t-38.5 -187t38.5 -187t101.5 -116l-41 -52q-47 24 -86 59.5t-66.5 81t-42.5 100t-15 114.5z" />
    <glyph glyph-name="parenright" unicode=")" horiz-adv-x="297" 
d="M275 302q0 -60 -15 -114.5t-42.5 -100t-66.5 -81t-86 -59.5l-41 52q63 43 101.5 116t38.5 187t-38.5 187t-101.5 116l41 52q47 -24 86 -59.5t66.5 -81t42.5 -100t15 -114.5z" />
    <glyph glyph-name="asterisk" unicode="*" horiz-adv-x="379" 
d="M268 634l36 -51l-64 -72l90 -20l11 -32l-33 -51l-92 43l14 -96l-30 -21l-59 16l10 98l-85 -40l-30 22l-1 60l97 21l-65 69l10 33l59 22l48 -86l48 85h36z" />
    <glyph glyph-name="plus" unicode="+" horiz-adv-x="433" 
d="M170 269h-135v86l135 -3v127h98l-3 -129l139 -3l-5 -78h-136l-3 -139l-90 5v134z" />
    <glyph glyph-name="comma" unicode="," horiz-adv-x="301" 
d="M123 -13q-35 4 -53 20.5t-18 54.5t26.5 57t63.5 19q38 0 64.5 -19t26.5 -57q0 -41 -21.5 -89.5t-63.5 -102.5l-51 15z" />
    <glyph glyph-name="hyphen" unicode="-" horiz-adv-x="419" 
d="M35 227v88l349 -8l-5 -80h-344z" />
    <glyph glyph-name="period" unicode="." horiz-adv-x="286" 
d="M142 138q38 0 64.5 -19.5t26.5 -57.5q0 -37 -26.5 -56.5t-64.5 -19.5t-64 19.5t-26 56.5q0 38 26 57.5t64 19.5z" />
    <glyph glyph-name="slash" unicode="/" horiz-adv-x="364" 
d="M17 -27l237 674l87 -20l-238 -680z" />
    <glyph glyph-name="zero" unicode="0" horiz-adv-x="734" 
d="M367 635q76 0 138 -24t106 -67.5t68.5 -104.5t24.5 -134q0 -74 -24.5 -134.5t-68.5 -104t-106 -67.5t-138 -24t-138 24t-106.5 67.5t-68.5 104t-24 134.5q0 73 24 134t68.5 104.5t106.5 67.5t138 24zM367 554q-213 0 -213 -249t213 -249t213 249t-213 249z" />
    <glyph glyph-name="one" unicode="1" horiz-adv-x="405" 
d="M283 82l87 -21v-61h-317v61l108 21v374q-27 -7 -52.5 -10t-63.5 -3l-9 61q59 9 102.5 37t78.5 73l66 -10v-522z" />
    <glyph glyph-name="two" unicode="2" horiz-adv-x="686" 
d="M52 559q48 29 120 52.5t159 23.5q146 0 219.5 -50.5t73.5 -142.5q0 -31 -8.5 -55.5t-24 -45.5t-38 -38.5t-50.5 -34.5l-285 -172l2 -7l320 16l29 98l72 -8l-18 -195h-579l-10 77l372 245q24 16 42 30t30 29t17.5 32t5.5 39q0 49 -49 70t-128 21q-53 0 -92.5 -12.5
t-68.5 -35.5l-27 -125h-73z" />
    <glyph glyph-name="three" unicode="3" horiz-adv-x="703" 
d="M94 610l9 8l118 -8h405l10 -82l-283 -154v-4q47 5 67.5 5.5t30.5 0.5q35 0 73.5 -10t71 -31.5t53.5 -55.5t21 -81q0 -69 -29.5 -112t-76 -68t-104 -34t-112.5 -9q-82 0 -154 16.5t-147 62.5l8 174l71 3l24 -113q42 -27 95 -43t112 -16q42 0 77 7t60.5 22.5t39.5 41
t14 63.5q0 51 -34 76.5t-94 25.5h-226l-9 58l249 154l-2 5h-261l-27 -98l-71 10z" />
    <glyph glyph-name="four" unicode="4" horiz-adv-x="738" 
d="M485 620l95 -17v-383h108l4 -62l-112 -23v-55l88 -19v-61h-320v61l108 19v58h-414l-12 51zM456 220v52l13 224l-5 1l-271 -277h263z" />
    <glyph glyph-name="five" unicode="5" horiz-adv-x="699" 
d="M104 610l9 7l113 -7h249l124 8l9 -8l13 -167l-81 -9l-20 79h-323l-18 -133q25 8 49 14t48 9.5t50 5t55 1.5q49 0 99.5 -10.5t91 -35.5t66 -66t25.5 -101q0 -61 -26.5 -103.5t-70.5 -68.5t-100 -38t-115 -12q-83 0 -161.5 18t-150.5 61l9 173h77l19 -101q87 -66 206 -66
q34 0 68 6.5t61 22t44 40.5t17 62q0 30 -8 54t-29 41t-56.5 26.5t-89.5 9.5q-48 0 -101.5 -6.5t-110.5 -23.5l-72 26z" />
    <glyph glyph-name="six" unicode="6" horiz-adv-x="745" 
d="M150 288q3 -62 17.5 -105.5t41.5 -71t66 -40t90 -12.5q98 0 143.5 36t45.5 111q0 61 -46.5 89t-147.5 28q-66 0 -115 -8t-95 -27zM572 419l-28 95q-41 23 -82.5 33t-86.5 10q-47 0 -85.5 -9.5t-66.5 -32t-45.5 -59t-21.5 -90.5q44 20 98 32.5t129 12.5q59 0 112 -10.5
t93 -34.5t63.5 -62t23.5 -92q0 -66 -26.5 -111.5t-70 -73t-99 -40t-114.5 -12.5q-74 0 -135.5 21t-105.5 62.5t-69 104.5t-25 147q0 83 27.5 144.5t75 101.5t110 59.5t132.5 19.5q81 0 145 -10.5t121 -33.5l-7 -168z" />
    <glyph glyph-name="seven" unicode="7" horiz-adv-x="691" 
d="M57 610l11 7l128 -7h341l115 6l9 -6l7 -60q-67 -54 -116.5 -112t-87.5 -125q-32 -57 -56 -120t-42 -135v-58h-146q22 94 59.5 180t88.5 164q29 45 62.5 85.5t77.5 78.5v4h-350l-50 -114l-61 9z" />
    <glyph glyph-name="eight" unicode="8" horiz-adv-x="724" 
d="M166 344q-44 17 -62.5 48.5t-18.5 75.5q0 36 19 66.5t54.5 53t87 35t117.5 12.5q147 0 213 -44t66 -123q0 -41 -22.5 -72t-66.5 -42v-6q66 -14 101 -52.5t35 -104.5q0 -63 -31 -105t-79 -66.5t-105.5 -34.5t-110.5 -10q-45 0 -102 8t-107 30t-84.5 61.5t-34.5 102.5
q0 62 36 102t95 59v6zM245 300q-45 -15 -65.5 -44.5t-20.5 -74.5q0 -39 21 -63t52 -37t66.5 -17.5t64.5 -4.5q28 0 63 4t66.5 16t53 34t21.5 58q0 81 -81 93zM461 374q34 11 47.5 37t13.5 55q0 23 -8 39t-27 25.5t-49 14t-75 4.5q-82 0 -120 -17.5t-38 -59.5q0 -26 15 -46
t43 -24z" />
    <glyph glyph-name="nine" unicode="9" horiz-adv-x="735" 
d="M585 322q-5 124 -57.5 176.5t-154.5 52.5q-98 0 -145 -34.5t-47 -109.5q0 -61 46.5 -90.5t147.5 -29.5q66 0 115 8t95 27zM149 181l42 -85q41 -23 82.5 -33t86.5 -10q94 0 152 45t67 146q-44 -20 -98 -32.5t-129 -12.5q-59 0 -112 11.5t-93 36.5t-63.5 64t-23.5 93
q0 66 27 110.5t71 71t100 38t115 11.5q73 0 134.5 -19.5t105 -59t68 -101t24.5 -145.5q0 -83 -28 -146t-75 -105t-109.5 -63t-132.5 -21q-81 0 -145 10.5t-121 33.5l-7 158z" />
    <glyph glyph-name="colon" unicode=":" horiz-adv-x="280" 
d="M144 135q37 0 63 -19t26 -56t-26 -56t-63 -19t-63 19t-26 56t26 56t63 19zM144 449q37 0 63 -19t26 -56t-26 -56t-63 -19t-63 19t-26 56t26 56t63 19z" />
    <glyph glyph-name="semicolon" unicode=";" horiz-adv-x="280" 
d="M144 449q37 0 63 -19t26 -56t-26 -56t-63 -19t-63 19t-26 56t26 56t63 19zM125 -14q-35 4 -53 20t-18 52q0 38 26.5 57.5t63.5 19.5q38 0 64 -19.5t26 -57.5q0 -39 -21.5 -87t-62.5 -102l-50 15z" />
    <glyph glyph-name="less" unicode="&#x3c;" horiz-adv-x="319" 
d="M89 486l200 -167v-32l-200 -175l-50 46l124 140l-124 142z" />
    <glyph glyph-name="equal" unicode="=" horiz-adv-x="419" 
d="M35 177v88l349 -8l-5 -80h-344zM35 326v88l349 -8l-5 -80h-344z" />
    <glyph glyph-name="greater" unicode="&#x3e;" horiz-adv-x="319" 
d="M239 112l-200 167v32l200 175l50 -46l-124 -140l124 -142z" />
    <glyph glyph-name="question" unicode="?" horiz-adv-x="750" 
d="M222 315l9 28q26 16 60.5 25.5t82.5 19.5l136 28q39 8 54.5 34t15.5 58q0 25 -16 43.5t-44.5 31t-68 18.5t-87.5 6q-27 0 -56.5 -2.5t-56.5 -7.5t-50 -11.5t-38 -14.5l-20 -134h-78l-34 185q57 36 135 57t198 21q72 0 135.5 -11t110.5 -34.5t74 -59.5t27 -87
q0 -75 -49 -126t-145 -69l-157 -31v-89h-66zM319 138q38 0 64.5 -19.5t26.5 -57.5q0 -37 -26.5 -56.5t-64.5 -19.5t-64 19.5t-26 56.5q0 38 26 57.5t64 19.5z" />
    <glyph glyph-name="at" unicode="@" horiz-adv-x="808" 
d="M481 321q-14 14 -37.5 19t-46.5 5q-47 0 -71.5 -25t-24.5 -78q0 -51 24.5 -74t71.5 -23q26 0 47 9t35 29zM577 194q0 -26 11 -37t34 -11q34 0 45.5 34t11.5 90t-21 99t-57 72t-85.5 44t-106.5 15q-60 0 -111.5 -17.5t-89 -50t-58.5 -78.5t-21 -104q0 -62 20.5 -108.5
t57.5 -78t88 -47.5t112 -16q50 0 91.5 8t86.5 29l33 -61q-51 -29 -101 -42.5t-110 -13.5q-88 0 -158 23t-118.5 66t-74.5 104t-26 137t30.5 137t82.5 104t121 66t145 23q81 0 149 -23t117 -64.5t76 -99t27 -127.5q0 -39 -10 -73t-30.5 -60t-51 -41t-71.5 -15q-38 0 -66 14
t-41 33q-24 -26 -60.5 -39t-65.5 -13q-35 0 -67.5 10t-57.5 31t-39.5 53t-14.5 76q0 38 15 70t40 55.5t58.5 36.5t70.5 13q61 0 106 -35l57 25l27 -15v-198z" />
    <glyph glyph-name="A" unicode="A" horiz-adv-x="885" 
d="M508 628l269 -548l91 -19l-5 -61h-313l-5 61l93 20l-43 90h-327l-45 -90l94 -20l-5 -61h-292l-5 61l100 21l214 391l55 121l118 34h6zM308 253h249l-114 251h-10z" />
    <glyph glyph-name="B" unicode="B" horiz-adv-x="785" 
d="M25 603q58 7 107 12t94 8.5t88 5t88 1.5q58 0 110 -7t91.5 -25.5t62.5 -50.5t23 -81t-29 -83.5t-80 -42.5v-4q80 -12 120 -52.5t40 -101.5q0 -57 -28 -95.5t-72.5 -61t-100 -32t-110.5 -9.5q-68 0 -120.5 2t-98.5 6t-90 9.5t-95 12.5l5 61l99 8v448l-99 8zM250 82
q45 -8 82 -11t74 -3q39 0 76.5 4.5t67.5 17t48.5 35t18.5 59.5q0 29 -12.5 48.5t-33.5 31.5t-49.5 17.5t-60.5 5.5h-211v-205zM250 372h206q51 0 81 18t30 64q0 27 -12.5 45t-35 29t-54.5 15.5t-72 4.5q-35 0 -69.5 -2.5t-73.5 -9.5v-164z" />
    <glyph glyph-name="C" unicode="C" horiz-adv-x="729" 
d="M593 395l-16 112q-33 25 -76.5 36.5t-88.5 11.5q-57 0 -104 -16.5t-81.5 -48.5t-53.5 -78.5t-19 -106.5t19 -106.5t53.5 -78.5t81.5 -48.5t104 -16.5q45 0 88.5 11.5t76.5 36.5l16 120h80l10 -190q-66 -31 -136 -44.5t-145 -13.5q-87 0 -156 25.5t-117 70t-73.5 104.5
t-25.5 130t25.5 130t73.5 104.5t117 70t156 25.5q75 0 145 -12.5t136 -41.5l-10 -191z" />
    <glyph glyph-name="D" unicode="D" horiz-adv-x="815" 
d="M29 602q45 6 87.5 10t88 6.5t97 4t113.5 1.5q82 0 150 -19.5t117 -58.5t76 -98.5t27 -138.5q0 -80 -27 -139.5t-76 -99.5t-117 -60t-150 -20q-62 0 -113.5 1.5t-97 4t-88 6.5t-87.5 10l5 63l98 8v447l-98 9zM254 84q37 -7 74.5 -10t85.5 -3q57 0 102.5 13.5t77.5 42.5
t49.5 74t17.5 108t-17.5 107.5t-49.5 72.5t-77.5 41t-102.5 13q-48 0 -85.5 -3t-74.5 -10v-446z" />
    <glyph glyph-name="E" unicode="E" horiz-adv-x="739" 
d="M497 610l175 6l7 -4l-13 -204l-79 4l-9 113h-328v-156h184l31 73l62 -5v-241l-65 -5l-28 94h-184v-200h330l40 141l80 -7l-20 -219h-645l-5 61l98 21v446l-98 21l5 61h462z" />
    <glyph glyph-name="F" unicode="F" horiz-adv-x="708" 
d="M40 0l-5 61l98 21v446l-98 21l5 61h457l169 6l8 -4l-12 -207l-79 3l-10 117h-318v-176h184l36 83l58 -3v-255l-61 -3l-33 94h-184v-183l98 -21v-61h-313z" />
    <glyph glyph-name="G" unicode="G" horiz-adv-x="790" 
d="M599 404l-12 103q-36 25 -83 36.5t-92 11.5q-57 0 -104 -16.5t-81.5 -48.5t-53.5 -78.5t-19 -106.5t17.5 -106.5t50 -78t78 -48t102.5 -16.5q96 0 170 51v149l-114 21l5 59h293l4 -59l-66 -17v-261l-23 -11l-81 40q-44 -27 -95.5 -40t-105.5 -13q-86 0 -153 25.5
t-112.5 70t-69.5 104.5t-24 130t25.5 130t73.5 104.5t117 70t156 25.5q75 0 150 -12.5t141 -41.5l-14 -181z" />
    <glyph glyph-name="H" unicode="H" horiz-adv-x="874" 
d="M255 353h364v175l-98 21l5 61h308l5 -61l-98 -21v-446l98 -21l-5 -61h-308l-5 61l98 21v186h-364v-186l98 -21l-5 -61h-308l-5 61l98 21v446l-98 21l5 61h308l5 -61l-98 -21v-175z" />
    <glyph glyph-name="I" unicode="I" horiz-adv-x="380" 
d="M345 610l5 -61l-99 -21v-445l99 -22l-5 -61h-310l-5 61l98 22v445l-98 21l5 61h310z" />
    <glyph glyph-name="J" unicode="J" horiz-adv-x="646" 
d="M606 610l5 -61l-86 -21v-249q0 -79 -20.5 -139.5t-65.5 -100.5q-35 -31 -84.5 -47.5t-116.5 -16.5q-57 0 -107 8.5t-104 28.5l7 190l75 4l29 -128q20 -9 42.5 -14.5t47.5 -5.5q78 0 121 40q54 50 54 164v266l-106 21l5 61h304z" />
    <glyph glyph-name="K" unicode="K" horiz-adv-x="863" 
d="M132 528l-97 21l5 61h308l5 -61l-98 -21v-175l137 20l168 159l-70 9l5 69h301l5 -63l-97 -15l-222 -192l252 -257l94 -22l-5 -61h-321l-5 61l79 13l-188 210l-133 -6v-196l98 -21l-5 -61h-308l-5 61l97 21v446z" />
    <glyph glyph-name="L" unicode="L" horiz-adv-x="727" 
d="M341 610l5 -61l-97 -21v-444h327l48 146l75 -7l-13 -223h-654l-5 61l99 21v446l-99 21l5 61h309z" />
    <glyph glyph-name="M" unicode="M" horiz-adv-x="1049" 
d="M309 610l214 -414h9l210 414h278l5 -61l-98 -21v-446l98 -21l-5 -61h-313l-5 61l105 21v434h-13l-254 -506l-56 -9l-266 517h-14l11 -224v-213l89 -20l-5 -61h-269l-5 61l93 20v448l-93 20l5 61h279z" />
    <glyph glyph-name="N" unicode="N" horiz-adv-x="859" 
d="M283 610l361 -442h9v361l-108 21l5 60h278l5 -60l-78 -21v-512l-107 -31l-431 514h-7l13 -214v-205l104 -20l-5 -61h-291l-5 61l93 20v448l-93 21l5 60h252z" />
    <glyph glyph-name="O" unicode="O" 
d="M397 635q83 0 151 -24t116 -67.5t74 -104.5t26 -134q0 -74 -26 -134.5t-74 -104t-116 -67.5t-151 -24t-151 24t-116 67.5t-74 104t-26 134.5q0 73 26 134t74 104.5t116 67.5t151 24zM397 552q-114 0 -178.5 -64.5t-64.5 -182.5t64.5 -182.5t178.5 -64.5t178.5 64.5
t64.5 182.5t-64.5 182.5t-178.5 64.5z" />
    <glyph glyph-name="P" unicode="P" 
d="M30 597q99 15 188.5 23t184.5 8q64 0 124.5 -8t107.5 -30.5t75.5 -64t28.5 -107.5q0 -52 -20 -92.5t-57 -69t-88 -43.5t-113 -15q-29 0 -54.5 1t-50 3.5t-49 6.5t-51.5 9v-136l97 -22l-5 -60h-313l-5 60l103 23v443l-98 9zM256 299q42 -8 82.5 -11.5t91.5 -3.5
q43 0 77.5 8t59 24.5t37.5 43t13 63.5q0 40 -18.5 64t-48 37t-65.5 17.5t-72 4.5q-72 0 -157 -15v-232z" />
    <glyph glyph-name="Q" unicode="Q" horiz-adv-x="806" 
d="M397 635q87 0 155 -24t115.5 -67.5t72 -104.5t24.5 -134q0 -44 -9 -86t-28 -79t-47.5 -67.5t-68.5 -51.5q11 -16 24 -22.5t31 -6.5q21 0 36.5 10.5t20.5 29.5l53 -17q-10 -54 -44.5 -88t-97.5 -34q-55 0 -88.5 21.5t-62.5 66.5q-41 -6 -86 -6q-87 0 -155 24t-115.5 67.5
t-72 104t-24.5 134.5q0 73 24.5 134t72 104.5t115.5 67.5t155 24zM397 557q-57 0 -102 -17.5t-76.5 -50t-48 -79t-16.5 -105.5q0 -95 42 -156q32 29 72 45t95 16q66 0 110.5 -26t81.5 -80q41 32 63 82t22 119q0 59 -16.5 105.5t-48 79t-76.5 50t-102 17.5zM253 94
q29 -19 65 -29.5t79 -10.5q10 0 19.5 1t19.5 3q-14 27 -37 47t-61 20q-24 0 -46 -8.5t-39 -22.5z" />
    <glyph glyph-name="R" unicode="R" horiz-adv-x="864" 
d="M28 597q99 15 188.5 23t184.5 8q67 0 129 -9t108.5 -32t74.5 -63t28 -103q0 -80 -48 -121.5t-128 -57.5v-7q40 -10 60 -37l72 -101q9 -13 22 -18t25 -5q38 0 55 33l49 -28q-15 -51 -54.5 -75t-90.5 -24q-37 0 -71 18.5t-55 53.5l-77 125q-11 16 -28.5 26t-46.5 10
q-25 0 -46 1t-41.5 3t-40.5 5.5t-43 9.5v-150l97 -22l-5 -60h-313l-5 60l103 23v443l-98 9zM254 309q42 -8 82.5 -11.5t91.5 -3.5q43 0 77.5 6t59 21t37.5 40t13 62q0 40 -18.5 64t-48 37t-65.5 17.5t-72 4.5q-72 0 -157 -15v-222z" />
    <glyph glyph-name="S" unicode="S" horiz-adv-x="718" 
d="M579 391l-28 102q-39 26 -89.5 41.5t-117.5 15.5q-88 0 -129.5 -21t-41.5 -66q0 -29 20 -46.5t55 -22.5l221 -32q48 -7 88.5 -20t69 -34t44.5 -51t16 -70q0 -63 -29 -104t-76.5 -65t-108.5 -33.5t-125 -9.5q-82 0 -160 17t-158 63l11 174l64 -1l22 -96q45 -32 98.5 -51.5
t131.5 -19.5q42 0 78.5 4t63 15t41.5 30t15 50q0 37 -24 58.5t-69 27.5l-230 33q-40 6 -74 18t-59.5 31.5t-40 47.5t-14.5 66q0 53 23 89.5t64.5 59.5t98 33.5t124.5 10.5q95 0 169 -19t127 -45l-10 -177z" />
    <glyph glyph-name="T" unicode="T" horiz-adv-x="769" 
d="M552 610l168 8l12 -3l11 -229l-70 -9l-39 152l-189 -4v-442l98 -22l-7 -61h-303l-7 61l99 22v442l-190 4l-38 -152l-71 9l11 229l12 3l130 -8h373z" />
    <glyph glyph-name="U" unicode="U" horiz-adv-x="874" 
d="M351 610l5 -61l-97 -21v-284q0 -48 16 -83t43.5 -57.5t65 -33t80.5 -10.5q41 0 75 12t59 37t38.5 62.5t13.5 88.5v270l-94 19l5 61h273l5 -61l-85 -19v-260q0 -74 -24.5 -129.5t-65.5 -92.5t-96 -55t-115 -18q-69 0 -127 18t-100 54.5t-66 91.5t-24 129v260l-98 21l5 61
h308z" />
    <glyph glyph-name="V" unicode="V" horiz-adv-x="896" 
d="M340 610l5 -61l-94 -19l217 -421h11l188 420l-94 20l5 61h292l5 -61l-99 -20l-254 -512l-119 -36h-4l-287 550l-90 18l8 61h310z" />
    <glyph glyph-name="W" unicode="W" horiz-adv-x="1298" 
d="M438 118l147 413l-91 18l5 61h313l5 -61l-86 -21l142 -410h7l185 411l-93 20l5 61h293l5 -61l-99 -20l-253 -513l-121 -35h-4l-155 431l-148 -396l-123 -35h-4l-257 550l-90 18l5 61h313l5 -61l-93 -20l180 -411h7z" />
    <glyph glyph-name="X" unicode="X" horiz-adv-x="868" 
d="M387 610l5 -61l-82 -20l136 -147h12l133 150l-77 17l5 61h289l5 -61l-96 -21l-192 -204l221 -244l88 -19l-5 -61h-319l-5 61l82 19l-169 187h-10l-155 -184l113 -22l-5 -61h-330l-5 61l99 22l216 242l-186 203l-104 21l5 61h331z" />
    <glyph glyph-name="Y" unicode="Y" horiz-adv-x="877" 
d="M360 610l5 -61l-87 -18l183 -254h9l172 249l-109 23l5 61h309l5 -61l-98 -21l-242 -335v-111l98 -21l-5 -61h-308l-5 61l98 21v113l-272 335l-93 19l5 61h330z" />
    <glyph glyph-name="Z" unicode="Z" horiz-adv-x="684" 
d="M91 373l-56 18l56 227h12l149 -8h209l174 6h9l10 -56l-455 -466l4 -8l152 4l176 -4l78 129l57 -11l-35 -204h-425l-166 -6h-8l-10 74l452 453l-3 6l-134 -3h-148z" />
    <glyph glyph-name="bracketleft" unicode="[" horiz-adv-x="331" 
d="M68 711h196v-72h-92v-653h92v-71h-196v796z" />
    <glyph glyph-name="backslash" unicode="\" horiz-adv-x="364" 
d="M255 -53l-238 680l87 20l237 -674z" />
    <glyph glyph-name="bracketright" unicode="]" horiz-adv-x="331" 
d="M264 -85h-196v71h92v653h-92v72h196v-796z" />
    <glyph glyph-name="asciicircum" unicode="^" horiz-adv-x="454" 
d="M358 436l-135 83l-136 -83l-34 45l165 160h16l160 -162z" />
    <glyph glyph-name="underscore" unicode="_" horiz-adv-x="546" 
d="M41 -59h467l7 -77l-467 -13l-18 4z" />
    <glyph glyph-name="grave" unicode="`" horiz-adv-x="200" 
d="M185 593l-62 -38l-111 151l86 50z" />
    <glyph glyph-name="a" unicode="a" horiz-adv-x="695" 
d="M464 256q-58 0 -108 -3t-93 -10q-54 -8 -78 -30t-24 -64q0 -36 29 -60.5t93 -24.5q104 0 181 43v149zM90 466q57 29 117 41.5t129 12.5q65 0 112.5 -13t78 -37t45 -57.5t14.5 -73.5v-237q0 -16 7.5 -26t23.5 -10h45l5 -66q-21 -7 -38.5 -10t-37.5 -3q-44 0 -66.5 17
t-30.5 48q-41 -35 -98 -53.5t-126 -18.5q-44 0 -86 7.5t-75 27t-53 51.5t-20 82q0 36 15.5 64.5t43.5 49t67 33.5t87 20q54 8 104.5 10t110.5 2v34q0 33 -33.5 54.5t-112.5 21.5q-45 0 -94.5 -10.5t-105.5 -35.5z" />
    <glyph glyph-name="b" unicode="b" horiz-adv-x="666" 
d="M-23 653l186 12l9 -6v-168q36 14 80.5 21.5t89.5 7.5q72 0 127.5 -19.5t93 -55t57 -84.5t19.5 -108q0 -56 -20 -105.5t-60 -87t-99.5 -59t-137.5 -21.5t-144 4.5t-132 16.5l-2 5l8 132v445l-69 9zM172 91q33 -15 67 -21t83 -6t85.5 15.5t60.5 41.5t36 60t12 72
q0 84 -46.5 133.5t-130.5 49.5q-48 0 -88.5 -6.5t-78.5 -20.5v-318z" />
    <glyph glyph-name="c" unicode="c" horiz-adv-x="624" 
d="M572 268h-73l-19 144q-32 14 -64.5 21t-71.5 7q-47 0 -83 -14t-61 -39t-38 -60t-13 -77t11.5 -76.5t34.5 -60t57.5 -39.5t81.5 -14q35 0 62.5 3.5t51 11t45.5 19t46 28.5l43 -72q-54 -38 -115.5 -54t-132.5 -16q-72 0 -129 21t-96.5 58t-60.5 86t-21 105t21.5 105.5
t62.5 86t100 57.5t133 21q76 0 136.5 -14t105.5 -37z" />
    <glyph glyph-name="d" unicode="d" horiz-adv-x="708" 
d="M615 83l71 -22v-61h-122l-32 51q-43 -38 -97 -54.5t-120 -16.5q-67 0 -120 19.5t-90.5 55.5t-57.5 85.5t-20 109.5q0 59 21.5 108.5t62.5 85.5t99.5 56t133.5 20q46 0 83 -8t67 -22v92l-70 10l-6 61l189 12l8 -5v-577zM494 413q-40 14 -75 18.5t-75 4.5q-89 0 -141.5 -44
t-52.5 -142q0 -50 13.5 -85t36.5 -57.5t55 -33t69 -10.5q57 0 101 15.5t69 41.5v292z" />
    <glyph glyph-name="e" unicode="e" horiz-adv-x="653" 
d="M504 287q-4 82 -48.5 117.5t-116.5 35.5q-83 0 -130 -39t-58 -114h353zM358 204l-207 11q8 -76 54 -115.5t127 -39.5q35 0 62.5 3t51 9.5t45.5 18t46 28.5l43 -72q-54 -38 -112 -52.5t-136 -14.5q-73 0 -130 21t-96 58t-59 86t-20 105t21 105.5t61 86t98 57.5t132 21
q67 0 120.5 -18.5t90.5 -52.5t56.5 -83.5t19.5 -110.5q0 -11 -1 -22.5t-4 -22.5l-6 -6h-257z" />
    <glyph glyph-name="f" unicode="f" horiz-adv-x="493" 
d="M218 421v-350l73 -9l-5 -62h-256l-5 62l73 9v346l-68 11l-5 72h73v16q0 57 23 102.5t77 72.5q28 14 68.5 22t88.5 8q66 0 96.5 -20t30.5 -56q0 -35 -17 -53.5t-46 -18.5q-36 0 -55.5 18t-23.5 49q-12 3 -28 3q-45 0 -69 -23.5t-25 -67.5v-52h192l6 -8l-9 -74z" />
    <glyph glyph-name="g" unicode="g" horiz-adv-x="761" 
d="M657 429q-15 5 -29 8t-30 3l-2 -10q27 -30 44 -67t17 -77q0 -45 -18.5 -87.5t-55 -74.5t-92.5 -51.5t-131 -19.5q-60 0 -105.5 11.5t-79.5 32.5q-18 -14 -26 -31.5t-8 -34.5q0 -18 7 -37.5t27 -34.5q55 27 108 39.5t121 12.5q53 0 95 -7t78 -20.5t68 -35t64 -49.5
l-42 -51q-60 33 -126.5 48t-136.5 15q-71 0 -139.5 -12t-131.5 -34q-54 38 -82 86.5t-32 96.5q17 23 43.5 45t60.5 45q-30 30 -45 68t-15 80q0 45 18 87.5t54.5 74.5t92.5 51.5t132 19.5q106 0 175 -39q10 19 27 34q14 3 29 4t32 1q33 0 64.5 -6t59.5 -14v-56zM360 136
q83 0 129 37t46 113q0 75 -46 112.5t-129 37.5q-85 0 -130 -37.5t-45 -112.5q0 -76 45 -113t130 -37z" />
    <glyph glyph-name="h" unicode="h" horiz-adv-x="748" 
d="M209 665l9 -6v-193q38 26 86.5 40t102.5 14q64 0 111.5 -17t79 -48t47 -73t15.5 -93v-218l71 -10l-5 -61h-254l-5 61l72 10v228q0 64 -34.5 101t-117.5 37q-54 0 -95 -14t-74 -43v-309l71 -10l-5 -61h-254l-5 61l71 10v512l-69 9l-6 61z" />
    <glyph glyph-name="i" unicode="i" horiz-adv-x="314" 
d="M157 698q33 0 57 -19t24 -49t-24 -49t-57 -19q-32 0 -56 19t-24 49t24 49t56 19zM211 504l8 -7v-426l71 -10l-4 -61h-256l-5 61l72 10v357l-62 6l-5 60z" />
    <glyph glyph-name="j" unicode="j" horiz-adv-x="268" 
d="M211 504l8 -7v-420q0 -128 -54 -195.5t-157 -67.5q-26 0 -51.5 5t-53.5 16l8 58l91 4q28 9 46 20.5t29 30t15.5 46.5t4.5 70v364l-62 6l-5 60zM153 698q33 0 57 -19t24 -49t-24 -49t-57 -19q-32 0 -56 19t-24 49t24 49t56 19z" />
    <glyph glyph-name="k" unicode="k" horiz-adv-x="677" 
d="M209 665l9 -6v-368l67 22l137 114l-53 13l5 60h246l5 -62l-77 -19l-177 -143l189 -191l85 -19l-6 -63l-153 -5l-206 224h-62v-151l71 -10l-5 -61h-254l-5 61l71 10v512l-69 9l-6 61z" />
    <glyph glyph-name="l" unicode="l" horiz-adv-x="309" 
d="M209 665l9 -6v-588l71 -10l-5 -61h-254l-5 61l71 10v512l-69 9l-6 61z" />
    <glyph glyph-name="m" unicode="m" horiz-adv-x="1099" 
d="M158 505l33 -60q40 37 86 56t109 19q68 0 114 -20.5t73 -55.5q39 35 87.5 55.5t107.5 20.5q62 0 107 -17t74 -48t43 -73t14 -93v-218l71 -10l-5 -61h-253l-5 61l72 10v228q0 65 -31 101.5t-107 36.5q-87 0 -144 -53q14 -44 14 -95v-218l71 -10l-5 -61h-253l-5 61l72 10
v228q0 32 -6.5 57.5t-21.5 43.5t-40.5 27.5t-63.5 9.5q-50 0 -83.5 -13t-65.5 -44v-309l71 -10l-5 -61h-253l-5 61l71 10v355l-66 4l-5 61z" />
    <glyph glyph-name="n" unicode="n" horiz-adv-x="748" 
d="M166 505l26 -60q40 37 95.5 56t119.5 19t111.5 -17t79 -48t47 -73t15.5 -93v-218l71 -10l-5 -61h-254l-5 61l72 10v228q0 64 -34.5 101t-117.5 37q-54 0 -95 -14t-74 -43v-309l71 -10l-5 -61h-254l-5 61l71 10v355l-66 4l-5 61z" />
    <glyph glyph-name="o" unicode="o" horiz-adv-x="688" 
d="M344 520q74 0 133 -21t100 -58t62.5 -86t21.5 -105t-21.5 -105.5t-62.5 -86t-100 -57.5t-133 -21t-133 21t-100 57.5t-62.5 86t-21.5 105.5t21.5 105t62.5 86t100 58t133 21zM344 440q-98 0 -146.5 -51.5t-48.5 -138.5q0 -88 48.5 -139t146.5 -51q97 0 145.5 51t48.5 139
q0 87 -48.5 138.5t-145.5 51.5z" />
    <glyph glyph-name="p" unicode="p" horiz-adv-x="711" 
d="M158 505l27 -55q45 38 95 54t116 16q68 0 121.5 -19.5t90.5 -55.5t56.5 -85.5t19.5 -109.5q0 -56 -20.5 -105.5t-60 -86t-97 -57.5t-132.5 -21q-45 0 -84.5 8.5t-72.5 23.5v-108l71 -10l-5 -61h-254l-5 61l71 10v522l-65 4l-5 61zM217 89q38 -14 74.5 -19.5t75.5 -5.5
q89 0 141.5 44t52.5 142q0 50 -13.5 85t-36.5 57.5t-55 33t-69 10.5q-58 0 -98 -14t-72 -43v-290z" />
    <glyph glyph-name="q" unicode="q" horiz-adv-x="668" 
d="M614 362v-458l59 -10l-4 -61h-250l-4 61l79 10v108q-36 -15 -78.5 -23.5t-91.5 -8.5q-72 0 -127.5 19.5t-93 54.5t-57 84.5t-19.5 108.5q0 69 26.5 120.5t71.5 85t104.5 50.5t124.5 17q76 0 138 -5t128 -16l2 -5zM494 421q-38 10 -71 13.5t-79 3.5q-49 0 -85.5 -15.5
t-60.5 -41.5t-36 -60t-12 -72q0 -84 46.5 -133.5t130.5 -49.5q50 0 89.5 7t77.5 21v327z" />
    <glyph glyph-name="r" unicode="r" horiz-adv-x="591" 
d="M158 505l34 -60q40 37 85.5 56t109.5 19q62 0 106.5 -14t79.5 -43l-16 -195h-73l-17 131q-16 18 -44 28t-59 10q-51 0 -83 -14t-63 -43v-309l71 -10l-5 -61h-254l-5 61l71 10v355l-66 4l-5 61z" />
    <glyph glyph-name="s" unicode="s" horiz-adv-x="597" 
d="M457 317l-14 90q-32 16 -68 24t-79 8q-33 0 -60.5 -3t-48 -10t-32 -19t-11.5 -31q0 -17 10 -29.5t39 -17.5l211 -34q73 -12 119 -48.5t46 -103.5q0 -45 -19 -76t-54 -50.5t-85 -28t-112 -8.5q-75 0 -140 11t-125 38l5 150h69l15 -81q80 -37 176 -37q45 0 75.5 5t48.5 14
t25.5 21.5t7.5 28.5q0 51 -70 61l-203 32q-69 11 -107.5 47t-38.5 94q0 45 20 75t55 48t82.5 25.5t101.5 7.5q71 0 129.5 -11t109.5 -31l-10 -161h-68z" />
    <glyph glyph-name="t" unicode="t" horiz-adv-x="479" 
d="M96 500v99l104 65l16 -5v-159h211l7 -6l-10 -81l-208 6v-223q0 -39 7.5 -64.5t23 -40.5t38.5 -21t54 -6q58 0 104 23l31 -60q-29 -24 -71.5 -35.5t-93.5 -11.5q-109 0 -161 55t-52 162v226l-79 5l-7 6l19 66h67z" />
    <glyph glyph-name="u" unicode="u" horiz-adv-x="757" 
d="M592 0l-24 55q-40 -37 -95.5 -56t-119.5 -19t-111.5 17.5t-79 49t-47 74t-15.5 93.5v215l-71 10l5 61h254l5 -61l-72 -10v-225q0 -65 34.5 -103t117.5 -38q54 0 95 14t74 43v309l-71 10l5 61h254l5 -61l-71 -10v-350l71 -18l-5 -61h-138z" />
    <glyph glyph-name="v" unicode="v" horiz-adv-x="740" 
d="M279 500l5 -61l-59 -8l163 -334h8l152 334l-65 8l4 61h229l4 -61l-64 -9l-220 -428l-106 -12l-246 440l-64 9l5 61h254z" />
    <glyph glyph-name="w" unicode="w" horiz-adv-x="1102" 
d="M279 500l5 -61l-59 -8l163 -334h8l117 280l-24 53l-64 9l5 61h254l5 -61l-59 -8l120 -334h8l152 334l-65 8l4 61h229l4 -61l-64 -9l-218 -428l-108 -12l-127 277l-122 -265l-113 -12l-246 440l-64 9l5 61h254z" />
    <glyph glyph-name="x" unicode="x" horiz-adv-x="735" 
d="M305 500l5 -61l-49 -7l119 -118h4l112 116l-58 9l5 61h239l5 -61l-66 -11l-175 -169l197 -188l67 -11l-5 -60h-272l-5 60l57 10l-130 139h-4l-129 -139l61 -10l-5 -60h-248l-5 60l63 10l201 191l-182 168l-70 10l5 61h263z" />
    <glyph glyph-name="y" unicode="y" horiz-adv-x="764" 
d="M317 500l5 -62l-81 -14l172 -321h11l148 321l-76 14l4 62h243l5 -62l-63 -14l-229 -464q-30 -62 -75 -92.5t-109 -30.5q-44 0 -74.5 13t-53.5 39l38 66q42 -20 75 -20q45 0 71.5 17t41.5 48l13 27l-69 18l-217 375l-77 18l4 62h293z" />
    <glyph glyph-name="z" unicode="z" horiz-adv-x="570" 
d="M65 505l137 -5h339l9 -42l-370 -381l1 -3l200 6h56l52 107l61 -9l-19 -178h-364l-135 -7l-4 3l-8 60l363 365l-1 3l-188 -4h-51l-42 -113l-69 11l21 186z" />
    <glyph glyph-name="braceleft" unicode="{" horiz-adv-x="309" 
d="M283 639q-50 0 -66 -21.5t-16 -52.5v-154q0 -32 -13 -54.5t-43 -39.5v-8q30 -17 43 -39.5t13 -54.5v-154q0 -31 16 -52.5t66 -21.5v-75h-35q-77 0 -114 33t-37 114v134q0 45 -19 62.5t-61 17.5v80q42 0 61 17.5t19 62.5v134q0 81 37 114t114 33h35v-75z" />
    <glyph glyph-name="bar" unicode="|" horiz-adv-x="166" 
d="M131 666v-729h-93v729h93z" />
    <glyph glyph-name="braceright" unicode="}" horiz-adv-x="309" 
d="M30 -13q50 0 66 21.5t16 52.5v154q0 32 13 54.5t43 39.5v8q-30 17 -43 39.5t-13 54.5v154q0 31 -16 52.5t-66 21.5v75h35q77 0 114 -33t37 -114v-134q0 -45 19 -62.5t61 -17.5v-80q-42 0 -61 -17.5t-19 -62.5v-134q0 -81 -37 -114t-114 -33h-35v75z" />
    <glyph glyph-name="asciitilde" unicode="~" horiz-adv-x="428" 
d="M14 295q32 35 63.5 51t76.5 16q27 0 47 -6.5t37.5 -15t34.5 -15t37 -6.5q26 0 41.5 4.5t32.5 18.5l33 -45q-22 -29 -50 -42.5t-65 -13.5q-28 0 -48.5 6t-38.5 12.5t-36 12.5t-41 6q-41 0 -81 -34z" />
    <glyph glyph-name="exclamdown" unicode="&#xa1;" horiz-adv-x="318" 
d="M237.005 -121.955l-125.992 -11l-6.99902 6l21.998 538.967h88.9951zM170.009 473.009q-37.9971 0 -64.4961 19.498q-26.498 19.499 -26.498 57.4971q0 36.998 26.498 56.4961q26.499 19.499 64.4961 19.499q37.998 0 63.9961 -19.499q25.999 -19.498 25.999 -56.4961
q0 -37.998 -25.999 -57.4971q-25.998 -19.498 -63.9961 -19.498z" />
    <glyph glyph-name="cent" unicode="&#xa2;" horiz-adv-x="624" 
d="M572 268h-73l-19 144q-32 14 -64.5 21t-71.5 7q-47 0 -83 -14t-61 -39t-38 -60t-13 -77t11.5 -76.5t34.5 -60t57.5 -39.5t81.5 -14q35 0 62.5 3.5t51 11t45.5 19t46 28.5l43 -72q-44 -31 -92.5 -46.5t-102.5 -20.5l-8 -97h-80v96q-65 5 -115.5 27.5t-85 58.5t-53 82.5
t-18.5 99.5q0 52 18.5 98t54 82t86 59t115.5 29l8 91h80v-91q60 -4 109.5 -16.5t87.5 -32.5z" />
    <glyph glyph-name="sterling" unicode="&#xa3;" horiz-adv-x="713" 
d="M404 366l-7 -81h-155v-58q0 -37 -4.5 -66t-15.5 -49q25 0 53.5 -4t59 -9.5t62 -9.5t63.5 -4q34 0 61 6.5t46 23t29 43.5t10 68l86 -3q0 -69 -13 -115t-39.5 -73.5t-66 -39t-92.5 -11.5q-41 0 -76.5 6.5t-68.5 15t-63.5 15t-59.5 6.5q-24 0 -43 -2t-37 -6.5t-35.5 -12
t-37.5 -18.5l-35 59q55 42 77 87t22 98v53h-80l-5 78l85 5v80q0 48 15 82t38.5 56t53.5 32t60 10q46 0 80 -11t60 -37l-40 -53q-11 12 -28.5 17.5t-32.5 5.5q-25 0 -42 -8t-27 -21.5t-14.5 -31.5t-4.5 -39v-86l156 8z" />
    <glyph glyph-name="currency" unicode="&#xa4;" horiz-adv-x="381" 
d="M360 425l-38 -46q27 -35 27 -77q0 -37 -20 -68l35 -41l-72 -64l-46 46q-12 -4 -26 -5.5t-29 -1.5q-18 0 -34 2.5t-30 7.5l-50 -50l-69 69l42 41q-17 29 -17 64q0 38 21 70l-37 42l68 68l51 -53q12 3 26 5t29 2q30 0 57 -8l53 53zM122 302q0 -14 3 -27t11 -23.5
t21.5 -16.5t33.5 -6q40 0 55 22.5t15 50.5t-15 50.5t-55 22.5q-20 0 -33.5 -6t-21.5 -16.5t-11 -23.5t-3 -27z" />
    <glyph glyph-name="yen" unicode="&#xa5;" horiz-adv-x="877" 
d="M240 310l67 -2l-188 222l-93 19l5 61h330l5 -61l-87 -18l176 -235h9l179 230l-109 23l5 61h309l5 -61l-98 -21l-175 -222h54v-73h-396l-4 74zM240 201l394 -4v-69h-126v-46l98 -21l-5 -61h-318l-5 61l108 21v46h-148l-4 70z" />
    <glyph glyph-name="brokenbar" unicode="&#xa6;" horiz-adv-x="166" 
d="M131 666v-331h-93v331h93zM131 269v-332h-93v332h93z" />
    <glyph glyph-name="section" unicode="&#xa7;" horiz-adv-x="603" 
d="M455 516l-29 91q-26 14 -55.5 20.5t-61.5 6.5q-54 0 -84.5 -11t-30.5 -48q0 -17 21.5 -33t58.5 -26l156 -41q60 -16 98.5 -53t38.5 -91q0 -50 -23 -86t-71 -63q69 -38 69 -115q0 -42 -24 -71.5t-60.5 -48t-79.5 -27t-80 -8.5q-69 0 -120.5 7.5t-102.5 19.5l10 150l65 4
l29 -86q26 -8 48.5 -10.5t54.5 -2.5q22 0 47 1t46.5 6t36 15.5t14.5 28.5q0 24 -17.5 43t-72.5 32l-150 35q-71 16 -109 53t-38 98q0 54 28 90t79 56q-68 38 -68 115q0 42 21.5 69.5t55 43.5t75 22.5t82.5 6.5q61 0 113.5 -8.5t105.5 -23.5l-12 -154zM211 419
q-35 -18 -50.5 -39.5t-15.5 -53.5q0 -26 19 -42.5t69 -28.5l167 -40q32 17 45.5 36t13.5 41q0 33 -19.5 52t-61.5 30z" />
    <glyph glyph-name="dieresis" unicode="&#xa8;" horiz-adv-x="459" 
d="M112 688q29 0 50.5 -17t21.5 -44t-21.5 -44t-50.5 -17t-50.5 17t-21.5 44t21.5 44t50.5 17zM347 688q29 0 50.5 -17t21.5 -44t-21.5 -44t-50.5 -17t-50.5 17t-21.5 44t21.5 44t50.5 17z" />
    <glyph glyph-name="copyright" unicode="&#xa9;" horiz-adv-x="827" 
d="M505 336l-7 63q-15 9 -35.5 13.5t-39.5 4.5q-48 0 -80 -27.5t-32 -84.5t32 -84.5t80 -27.5q19 0 39.5 4.5t35.5 13.5l16 63h51l5 -112q-34 -18 -71.5 -27t-75.5 -9q-42 0 -79 11t-64.5 33t-44 56t-16.5 79t16.5 79t44 56t64.5 33t79 11q38 0 75.5 -8.5t71.5 -25.5
l-14 -114h-51zM797 305q0 -76 -28.5 -138.5t-79.5 -107.5t-121 -69.5t-154 -24.5t-154.5 24.5t-121.5 69.5t-79.5 107.5t-28.5 138.5t28.5 138.5t79.5 107.5t121.5 69.5t154.5 24.5t154 -24.5t121 -69.5t79.5 -107.5t28.5 -138.5zM134 305q0 -62 21 -110.5t58.5 -82t89 -51
t111.5 -17.5t111 17.5t88.5 51t59 82t21.5 110.5t-21.5 110.5t-59 82t-88.5 51t-111 17.5t-111.5 -17.5t-89 -51t-58.5 -82t-21 -110.5z" />
    <glyph glyph-name="guillemotleft" unicode="&#xab;" horiz-adv-x="454" 
d="M252 394l-99 -136l99 -146l-52 -37l-174 164v28l174 164zM428 394l-99 -136l99 -146l-52 -37l-174 164v28l174 164z" />
    <glyph glyph-name="logicalnot" unicode="&#xac;" horiz-adv-x="467" 
d="M436 190h-79l-15 115h-318v85h412v-200z" />
    <glyph glyph-name="uni00AD" unicode="&#xad;" horiz-adv-x="419" 
d="M35 227v88l349 -8l-5 -80h-344z" />
    <glyph glyph-name="registered" unicode="&#xae;" horiz-adv-x="452" 
d="M202 482h37q35 0 35 23q0 12 -9.5 17t-32.5 5h-15t-15 -2v-43zM128 556q26 5 54 7t52 2q13 0 28.5 -2.5t29 -9t22.5 -17.5t9 -28q0 -18 -12 -30.5t-32 -16.5q6 -2 9.5 -5.5t5.5 -7.5l8 -14l4.5 -4.5t6.5 -2.5q12 0 15 8l18 -8q-5 -19 -15.5 -30t-27.5 -11q-16 0 -30 9.5
t-19 23.5l-11 28h-41v-24l23 -4l-2 -30h-93l-2 30l25 5v101l-23 1zM429 472q0 -39 -15.5 -71.5t-43 -56t-64.5 -37t-80 -13.5q-42 0 -79 13.5t-64 37t-42.5 56t-15.5 71.5t15.5 71.5t42.5 56t64 37t79 13.5q43 0 80 -13.5t64.5 -37t43 -56t15.5 -71.5zM84 472
q0 -63 40.5 -98t101.5 -35q31 0 57 9t45 26t30 41.5t11 56.5q0 31 -11 56t-30 42t-45 26t-57 9q-61 0 -101.5 -35t-40.5 -98z" />
    <glyph glyph-name="macron" unicode="&#xaf;" horiz-adv-x="411" 
d="M27 644l109 -4h245v-73h-356l-4 74z" />
    <glyph glyph-name="degree" unicode="&#xb0;" horiz-adv-x="381" 
d="M349 502q0 -25 -10 -49t-29.5 -43t-49.5 -30.5t-69 -11.5t-69 11.5t-49.5 30.5t-29.5 43t-10 49t10 49t29.5 43t49.5 30.5t69 11.5t69 -11.5t49.5 -30.5t29.5 -43t10 -49zM122 502q0 -14 3 -27t11 -23.5t21.5 -16.5t33.5 -6q40 0 55 22.5t15 50.5t-15 50.5t-55 22.5
q-20 0 -33.5 -6t-21.5 -16.5t-11 -23.5t-3 -27z" />
    <glyph glyph-name="plusminus" unicode="&#xb1;" horiz-adv-x="433" 
d="M170 333h-135v82l135 -3v127h98l-3 -129l139 -3l-5 -74h-136l-3 -139l-90 5v134zM46 77v83l349 -8l-5 -75h-344z" />
    <glyph glyph-name="acute" unicode="&#xb4;" horiz-adv-x="200" 
d="M99 756l86 -50l-111 -151l-62 38z" />
    <glyph glyph-name="paragraph" unicode="&#xb6;" horiz-adv-x="365" 
d="M13 467q0 41 11.5 68.5t31.5 44t47 23.5t59 7h32v-667l-55 -5l-10 8l-19 386q-42 8 -69.5 39t-27.5 96zM308 -54l-10 -8l-58 5v667h95z" />
    <glyph glyph-name="periodcentered" unicode="&#xb7;" horiz-adv-x="305" 
d="M153 360q40 0 68 -20.5t28 -60.5t-28 -60.5t-68 -20.5t-68 20.5t-28 60.5t28 60.5t68 20.5z" />
    <glyph glyph-name="cedilla" unicode="&#xb8;" horiz-adv-x="264" 
d="M188 35l-61 -80q41 0 70 -21.5t29 -63.5q0 -48 -36 -79.5t-93 -31.5q-28 0 -54 5.5t-46 19.5l16 44q18 -7 35 -9.5t32 -2.5q30 0 50 11.5t20 36.5q0 19 -13 27t-30 8q-14 0 -24 -1.5t-21 -4.5l-11 17l43 125h94z" />
    <glyph glyph-name="guillemotright" unicode="&#xbb;" horiz-adv-x="454" 
d="M202 112l99 136l-99 146l52 37l174 -164v-28l-174 -164zM26 112l99 136l-99 146l52 37l174 -164v-28l-174 -164z" />
    <glyph glyph-name="questiondown" unicode="&#xbf;" horiz-adv-x="750" 
d="M518.014 292.02l-9 -27.999q-25.998 -15.999 -60.4961 -25.498t-82.4951 -19.499l-135.991 -27.998q-38.998 -8 -54.4971 -33.998t-15.499 -57.9961q0 -24.999 15.999 -43.498q15.999 -18.498 44.4971 -30.998q28.499 -12.499 67.9961 -18.498q39.498 -6 87.4951 -6
q26.998 0 56.4961 2.5t56.4971 7.49902q26.998 5 49.9971 11.5q22.998 6.49902 37.9971 14.499l19.999 133.991h77.9951l33.998 -184.988q-56.9961 -35.998 -134.992 -56.9971q-77.9951 -20.998 -197.987 -20.998q-71.9961 0 -135.492 10.999t-110.493 34.498
q-46.9971 23.498 -73.9951 59.4961q-26.999 35.998 -26.999 86.9951q0 74.9951 48.9971 125.992t144.991 68.9961l156.99 30.998v88.9941h65.9961zM421.02 469.009q-37.998 0 -64.4961 19.498q-26.498 19.499 -26.498 57.4971q0 36.998 26.498 56.4961
q26.498 19.499 64.4961 19.499t63.9961 -19.499q25.998 -19.498 25.998 -56.4961q0 -37.998 -25.998 -57.4971q-25.998 -19.498 -63.9961 -19.498z" />
    <glyph glyph-name="Agrave" unicode="&#xc0;" horiz-adv-x="885" 
d="M508 628l269 -548l91 -19l-5 -61h-313l-5 61l93 20l-43 90h-327l-45 -90l94 -20l-5 -61h-292l-5 61l100 21l214 391l55 121l118 34h6zM308 253h249l-114 251h-10zM379 869l79 -176l-62 -31l-108 158z" />
    <glyph glyph-name="Aacute" unicode="&#xc1;" horiz-adv-x="885" 
d="M508 628l269 -548l91 -19l-5 -61h-313l-5 61l93 20l-43 90h-327l-45 -90l94 -20l-5 -61h-292l-5 61l100 21l214 391l55 121l118 34h6zM308 253h249l-114 251h-10zM599 820l-108 -158l-62 31l79 176z" />
    <glyph glyph-name="Acircumflex" unicode="&#xc2;" horiz-adv-x="885" 
d="M508 628l269 -548l91 -19l-5 -61h-313l-5 61l93 20l-43 90h-327l-45 -90l94 -20l-5 -61h-292l-5 61l100 21l214 391l55 121l118 34h6zM308 253h249l-114 251h-10zM271 702l171 133l171 -133l-32 -53l-139 71l-139 -71z" />
    <glyph glyph-name="Atilde" unicode="&#xc3;" horiz-adv-x="885" 
d="M508 628l269 -548l91 -19l-5 -61h-313l-5 61l93 20l-43 90h-327l-45 -90l94 -20l-5 -61h-292l-5 61l100 21l214 391l55 121l118 34h6zM308 253h249l-114 251h-10zM257 723q32 35 63.5 51t76.5 16q27 0 47 -6.5t37.5 -15t34.5 -15t37 -6.5q26 0 41.5 4.5t32.5 18.5l33 -45
q-22 -29 -50 -42.5t-65 -13.5q-28 0 -48.5 6t-38.5 12.5t-36 12.5t-41 6q-41 0 -81 -34z" />
    <glyph glyph-name="Adieresis" unicode="&#xc4;" horiz-adv-x="885" 
d="M508 628l269 -548l91 -19l-5 -61h-313l-5 61l93 20l-43 90h-327l-45 -90l94 -20l-5 -61h-292l-5 61l100 21l214 391l55 121l118 34h6zM308 253h249l-114 251h-10zM334 816q16 0 32 -5t29 -14.5t20.5 -23.5t7.5 -32t-7.5 -32t-20.5 -23.5t-29 -14.5t-32 -5q-17 0 -33 5
t-28.5 14.5t-20 23.5t-7.5 32t7.5 32t20 23.5t28.5 14.5t33 5zM592 816q16 0 32 -5t29 -14.5t20.5 -23.5t7.5 -32t-7.5 -32t-20.5 -23.5t-29 -14.5t-32 -5q-17 0 -33 5t-28.5 14.5t-20 23.5t-7.5 32t7.5 32t20 23.5t28.5 14.5t33 5z" />
    <glyph glyph-name="Aring" unicode="&#xc5;" horiz-adv-x="885" 
d="M508 628l269 -548l91 -19l-5 -61h-313l-5 61l93 20l-43 90h-327l-45 -90l94 -20l-5 -61h-292l-5 61l100 21l214 391l55 121l118 34h6zM308 253h249l-114 251h-10zM451 883q53 0 88.5 -29.5t35.5 -79.5t-35.5 -79.5t-88.5 -29.5q-52 0 -87.5 29.5t-35.5 79.5t35.5 79.5
t87.5 29.5zM451 827q-22 0 -37.5 -11.5t-15.5 -41.5t15.5 -42t37.5 -12q23 0 38.5 12t15.5 42t-15.5 41.5t-38.5 11.5z" />
    <glyph glyph-name="AE" unicode="&#xc6;" horiz-adv-x="1150" 
d="M376 616l173 -6h362l193 6h6l-15 -211l-78 8l-5 112h-320v-157h175l31 74l60 -5v-242l-61 -4l-30 93h-175v-198h320l39 137l74 -4l-19 -219h-629l-5 61l98 21v67h-297l-50 -69l81 -19l-5 -61h-282l-5 61l88 21l341 447l-89 19l14 68h10zM331 231h239v289h-23z" />
    <glyph glyph-name="Ccedilla" unicode="&#xc7;" horiz-adv-x="729" 
d="M593 395l-16 112q-33 25 -76.5 36.5t-88.5 11.5q-57 0 -104 -16.5t-81.5 -48.5t-53.5 -78.5t-19 -106.5t19 -106.5t53.5 -78.5t81.5 -48.5t104 -16.5q45 0 88.5 11.5t76.5 36.5l16 120h80l10 -190q-58 -26 -118.5 -40t-124.5 -17l-28 -37q44 0 75 -23t31 -68
q0 -52 -38.5 -85.5t-100.5 -33.5q-29 0 -57.5 6t-49.5 20l17 48q20 -8 38 -10.5t34 -2.5q32 0 53.5 12.5t21.5 38.5q0 20 -13.5 29t-32.5 9q-26 0 -48 -7l-12 19l29 86q-77 6 -138 33.5t-103.5 71t-65 100.5t-22.5 123q0 70 25.5 130t73.5 104.5t117 70t156 25.5
q75 0 145 -12.5t136 -41.5l-10 -191z" />
    <glyph glyph-name="Egrave" unicode="&#xc8;" horiz-adv-x="739" 
d="M497 610l175 6l7 -4l-13 -204l-79 4l-9 113h-328v-156h184l31 73l62 -5v-241l-65 -5l-28 94h-184v-200h330l40 141l80 -7l-20 -219h-645l-5 61l98 21v446l-98 21l5 61h462zM361 869l79 -176l-62 -31l-108 158z" />
    <glyph glyph-name="Eacute" unicode="&#xc9;" horiz-adv-x="739" 
d="M497 610l175 6l7 -4l-13 -204l-79 4l-9 113h-328v-156h184l31 73l62 -5v-241l-65 -5l-28 94h-184v-200h330l40 141l80 -7l-20 -219h-645l-5 61l98 21v446l-98 21l5 61h462zM534 818l-108 -158l-62 31l79 176z" />
    <glyph glyph-name="Ecircumflex" unicode="&#xca;" horiz-adv-x="739" 
d="M497 610l175 6l7 -4l-13 -204l-79 4l-9 113h-328v-156h184l31 73l62 -5v-241l-65 -5l-28 94h-184v-200h330l40 141l80 -7l-20 -219h-645l-5 61l98 21v446l-98 21l5 61h462zM201 710l171 133l171 -133l-32 -53l-139 71l-139 -71z" />
    <glyph glyph-name="Edieresis" unicode="&#xcb;" horiz-adv-x="739" 
d="M497 610l175 6l7 -4l-13 -204l-79 4l-9 113h-328v-156h184l31 73l62 -5v-241l-65 -5l-28 94h-184v-200h330l40 141l80 -7l-20 -219h-645l-5 61l98 21v446l-98 21l5 61h462zM258 818q16 0 32 -5t29 -14.5t20.5 -23.5t7.5 -32t-7.5 -32t-20.5 -23.5t-29 -14.5t-32 -5
q-17 0 -33 5t-28.5 14.5t-20 23.5t-7.5 32t7.5 32t20 23.5t28.5 14.5t33 5zM516 818q16 0 32 -5t29 -14.5t20.5 -23.5t7.5 -32t-7.5 -32t-20.5 -23.5t-29 -14.5t-32 -5q-17 0 -33 5t-28.5 14.5t-20 23.5t-7.5 32t7.5 32t20 23.5t28.5 14.5t33 5z" />
    <glyph glyph-name="Igrave" unicode="&#xcc;" horiz-adv-x="380" 
d="M345 610l5 -61l-99 -21v-445l99 -22l-5 -61h-310l-5 61l98 22v445l-98 21l5 61h310zM158 869l79 -176l-62 -31l-108 158z" />
    <glyph glyph-name="Iacute" unicode="&#xcd;" horiz-adv-x="380" 
d="M345 610l5 -61l-99 -21v-445l99 -22l-5 -61h-310l-5 61l98 22v445l-98 21l5 61h310zM325 820l-108 -158l-62 31l79 176z" />
    <glyph glyph-name="Icircumflex" unicode="&#xce;" horiz-adv-x="380" 
d="M345 610l5 -61l-99 -21v-445l99 -22l-5 -61h-310l-5 61l98 22v445l-98 21l5 61h310zM20 708l171 133l171 -133l-32 -53l-139 71l-139 -71z" />
    <glyph glyph-name="Idieresis" unicode="&#xcf;" horiz-adv-x="380" 
d="M345 610l5 -61l-99 -21v-445l99 -22l-5 -61h-310l-5 61l98 22v445l-98 21l5 61h310zM61 817q16 0 32 -5t29 -14.5t20.5 -23.5t7.5 -32t-7.5 -32t-20.5 -23.5t-29 -14.5t-32 -5q-17 0 -33 5t-28.5 14.5t-20 23.5t-7.5 32t7.5 32t20 23.5t28.5 14.5t33 5zM319 817
q16 0 32 -5t29 -14.5t20.5 -23.5t7.5 -32t-7.5 -32t-20.5 -23.5t-29 -14.5t-32 -5q-17 0 -33 5t-28.5 14.5t-20 23.5t-7.5 32t7.5 32t20 23.5t28.5 14.5t33 5z" />
    <glyph glyph-name="Eth" unicode="&#xd0;" horiz-adv-x="816" 
d="M30 602q45 6 87.5 10t88 6.5t97 4t113.5 1.5q82 0 150 -19.5t117 -58.5t76 -98.5t27 -138.5q0 -80 -27 -139.5t-76 -99.5t-117 -60t-150 -20q-62 0 -113.5 1.5t-97 4t-88 6.5t-87.5 10l5 63l98 8v204l-82 -2l-5 85l6 2l81 -4v162l-98 9zM255 364l189 -2l5 -71l-5 -4
l-189 -2v-201q37 -7 74.5 -10t85.5 -3q57 0 102.5 13.5t77.5 42.5t49.5 74t17.5 108t-17.5 107.5t-49.5 72.5t-77.5 41t-102.5 13q-48 0 -85.5 -3t-74.5 -10v-166z" />
    <glyph glyph-name="Ntilde" unicode="&#xd1;" horiz-adv-x="859" 
d="M283 610l361 -442h9v361l-108 21l5 60h278l5 -60l-78 -21v-512l-107 -31l-431 514h-7l13 -214v-205l104 -20l-5 -61h-291l-5 61l93 20v448l-93 21l5 60h252zM241 727q32 35 63.5 51t76.5 16q27 0 47 -6.5t37.5 -15t34.5 -15t37 -6.5q26 0 41.5 4.5t32.5 18.5l33 -45
q-22 -29 -50 -42.5t-65 -13.5q-28 0 -48.5 6t-38.5 12.5t-36 12.5t-41 6q-41 0 -81 -34z" />
    <glyph glyph-name="Ograve" unicode="&#xd2;" 
d="M397 635q83 0 151 -24t116 -67.5t74 -104.5t26 -134q0 -74 -26 -134.5t-74 -104t-116 -67.5t-151 -24t-151 24t-116 67.5t-74 104t-26 134.5q0 73 26 134t74 104.5t116 67.5t151 24zM397 552q-114 0 -178.5 -64.5t-64.5 -182.5t64.5 -182.5t178.5 -64.5t178.5 64.5
t64.5 182.5t-64.5 182.5t-178.5 64.5zM364 869l79 -176l-62 -31l-108 158z" />
    <glyph glyph-name="Oacute" unicode="&#xd3;" 
d="M397 635q83 0 151 -24t116 -67.5t74 -104.5t26 -134q0 -74 -26 -134.5t-74 -104t-116 -67.5t-151 -24t-151 24t-116 67.5t-74 104t-26 134.5q0 73 26 134t74 104.5t116 67.5t151 24zM397 552q-114 0 -178.5 -64.5t-64.5 -182.5t64.5 -182.5t178.5 -64.5t178.5 64.5
t64.5 182.5t-64.5 182.5t-178.5 64.5zM535 820l-108 -158l-62 31l79 176z" />
    <glyph glyph-name="Ocircumflex" unicode="&#xd4;" 
d="M397 635q83 0 151 -24t116 -67.5t74 -104.5t26 -134q0 -74 -26 -134.5t-74 -104t-116 -67.5t-151 -24t-151 24t-116 67.5t-74 104t-26 134.5q0 73 26 134t74 104.5t116 67.5t151 24zM397 552q-114 0 -178.5 -64.5t-64.5 -182.5t64.5 -182.5t178.5 -64.5t178.5 64.5
t64.5 182.5t-64.5 182.5t-178.5 64.5zM227 710l171 133l171 -133l-32 -53l-139 71l-139 -71z" />
    <glyph glyph-name="Otilde" unicode="&#xd5;" 
d="M397 635q83 0 151 -24t116 -67.5t74 -104.5t26 -134q0 -74 -26 -134.5t-74 -104t-116 -67.5t-151 -24t-151 24t-116 67.5t-74 104t-26 134.5q0 73 26 134t74 104.5t116 67.5t151 24zM397 552q-114 0 -178.5 -64.5t-64.5 -182.5t64.5 -182.5t178.5 -64.5t178.5 64.5
t64.5 182.5t-64.5 182.5t-178.5 64.5zM200 729q32 35 63.5 51t76.5 16q27 0 47 -6.5t37.5 -15t34.5 -15t37 -6.5q26 0 41.5 4.5t32.5 18.5l33 -45q-22 -29 -50 -42.5t-65 -13.5q-28 0 -48.5 6t-38.5 12.5t-36 12.5t-41 6q-41 0 -81 -34z" />
    <glyph glyph-name="Odieresis" unicode="&#xd6;" 
d="M397 635q83 0 151 -24t116 -67.5t74 -104.5t26 -134q0 -74 -26 -134.5t-74 -104t-116 -67.5t-151 -24t-151 24t-116 67.5t-74 104t-26 134.5q0 73 26 134t74 104.5t116 67.5t151 24zM397 552q-114 0 -178.5 -64.5t-64.5 -182.5t64.5 -182.5t178.5 -64.5t178.5 64.5
t64.5 182.5t-64.5 182.5t-178.5 64.5zM269 830q16 0 32 -5t29 -14.5t20.5 -23.5t7.5 -32t-7.5 -32t-20.5 -23.5t-29 -14.5t-32 -5q-17 0 -33 5t-28.5 14.5t-20 23.5t-7.5 32t7.5 32t20 23.5t28.5 14.5t33 5zM527 830q16 0 32 -5t29 -14.5t20.5 -23.5t7.5 -32t-7.5 -32
t-20.5 -23.5t-29 -14.5t-32 -5q-17 0 -33 5t-28.5 14.5t-20 23.5t-7.5 32t7.5 32t20 23.5t28.5 14.5t33 5z" />
    <glyph glyph-name="multiply" unicode="&#xd7;" horiz-adv-x="433" 
d="M215 369l95 96l61 -61l-97 -93l89 -90l-69 -69l-89 93l-100 -96l-52 58l96 97l-96 100l67 60z" />
    <glyph glyph-name="Oslash" unicode="&#xd8;" 
d="M687 519q37 -42 57 -96t20 -118q0 -74 -26 -134.5t-74 -104t-116 -67.5t-151 -24q-65 0 -119.5 14.5t-99.5 40.5l-62 -59l-57 57l55 54q-41 43 -62.5 99t-21.5 124q0 73 26 134t74 104.5t116 67.5t151 24q67 0 123.5 -15.5t101.5 -44.5l56 54h7l55 -59zM553 507
q-30 23 -69 35t-87 12q-114 0 -178.5 -65.5t-64.5 -183.5q0 -87 37 -149zM247 97q59 -41 150 -41q114 0 178.5 65.5t64.5 183.5q0 41 -8.5 75.5t-23.5 62.5z" />
    <glyph glyph-name="Ugrave" unicode="&#xd9;" horiz-adv-x="880" 
d="M351 610l5 -61l-97 -21v-284q0 -48 16 -83t43.5 -57.5t65 -33t80.5 -10.5q41 0 75 12t59 37t38.5 62.5t13.5 88.5v270l-94 19l5 61h273l5 -61l-85 -19v-260q0 -74 -24.5 -129.5t-65.5 -92.5t-96 -55t-115 -18q-69 0 -127 18t-100 54.5t-66 91.5t-24 129v260l-98 21l5 61
h308zM400 869l79 -176l-62 -31l-108 158z" />
    <glyph glyph-name="Uacute" unicode="&#xda;" horiz-adv-x="880" 
d="M351 610l5 -61l-97 -21v-284q0 -48 16 -83t43.5 -57.5t65 -33t80.5 -10.5q41 0 75 12t59 37t38.5 62.5t13.5 88.5v270l-94 19l5 61h273l5 -61l-85 -19v-260q0 -74 -24.5 -129.5t-65.5 -92.5t-96 -55t-115 -18q-69 0 -127 18t-100 54.5t-66 91.5t-24 129v260l-98 21l5 61
h308zM591 820l-108 -158l-62 31l79 176z" />
    <glyph glyph-name="Ucircumflex" unicode="&#xdb;" horiz-adv-x="880" 
d="M351 610l5 -61l-97 -21v-284q0 -48 16 -83t43.5 -57.5t65 -33t80.5 -10.5q41 0 75 12t59 37t38.5 62.5t13.5 88.5v270l-94 19l5 61h273l5 -61l-85 -19v-260q0 -74 -24.5 -129.5t-65.5 -92.5t-96 -55t-115 -18q-69 0 -127 18t-100 54.5t-66 91.5t-24 129v260l-98 21l5 61
h308zM288 713l171 133l171 -133l-32 -53l-139 71l-139 -71z" />
    <glyph glyph-name="Udieresis" unicode="&#xdc;" horiz-adv-x="880" 
d="M351 610l5 -61l-97 -21v-284q0 -48 16 -83t43.5 -57.5t65 -33t80.5 -10.5q41 0 75 12t59 37t38.5 62.5t13.5 88.5v270l-94 19l5 61h273l5 -61l-85 -19v-260q0 -74 -24.5 -129.5t-65.5 -92.5t-96 -55t-115 -18q-69 0 -127 18t-100 54.5t-66 91.5t-24 129v260l-98 21l5 61
h308zM335 822q16 0 32 -5t29 -14.5t20.5 -23.5t7.5 -32t-7.5 -32t-20.5 -23.5t-29 -14.5t-32 -5q-17 0 -33 5t-28.5 14.5t-20 23.5t-7.5 32t7.5 32t20 23.5t28.5 14.5t33 5zM593 822q16 0 32 -5t29 -14.5t20.5 -23.5t7.5 -32t-7.5 -32t-20.5 -23.5t-29 -14.5t-32 -5
q-17 0 -33 5t-28.5 14.5t-20 23.5t-7.5 32t7.5 32t20 23.5t28.5 14.5t33 5z" />
    <glyph glyph-name="Yacute" unicode="&#xdd;" horiz-adv-x="877" 
d="M360 610l5 -61l-87 -18l183 -254h9l172 249l-109 23l5 61h309l5 -61l-98 -21l-242 -335v-111l98 -21l-5 -61h-308l-5 61l98 21v113l-272 335l-93 19l5 61h330zM608 820l-108 -158l-62 31l79 176z" />
    <glyph glyph-name="Thorn" unicode="&#xde;" horiz-adv-x="749" 
d="M350 610l5 -61l-99 -21v-36q35 6 67.5 10.5t69.5 4.5q64 0 123 -8t104 -29.5t72 -60.5t27 -102q0 -48 -20 -86.5t-56 -65.5t-85 -41.5t-107 -14.5q-29 0 -53 1t-46.5 3t-45.5 5.5t-50 8.5v-34l99 -22l-5 -61h-310l-5 61l98 22v445l-98 21l5 61h310zM256 198
q42 -8 78 -11.5t86 -3.5q86 0 133 31t47 98q0 36 -17.5 58t-45.5 34.5t-63 16.5t-71 4t-70 -3.5t-77 -11.5v-212z" />
    <glyph glyph-name="germandbls" unicode="&#xdf;" horiz-adv-x="707" 
d="M98 506q0 50 18.5 88.5t50 64.5t74 39t90.5 13q97 0 151 -36.5t54 -100.5q0 -45 -24.5 -74t-51.5 -43q-30 -16 -49.5 -30t-19.5 -37q0 -20 15 -33.5t48 -22.5l103 -27q63 -17 97 -54.5t34 -103.5q0 -33 -13.5 -63.5t-40.5 -54t-69 -37.5t-99 -14q-37 0 -65 2.5t-52 8
t-47 15t-51 23.5l46 86q23 -14 43.5 -24t40 -17t40.5 -10t45 -3q58 0 82.5 23t24.5 55q0 31 -14.5 50t-51.5 30l-122 33q-51 14 -77.5 46.5t-26.5 78.5q0 24 8 42t21 31.5t28.5 24t29.5 18.5q25 14 39 30.5t14 38.5q0 34 -22.5 51t-74.5 17q-22 0 -41.5 -6t-33.5 -20
t-22.5 -37t-8.5 -57v-510h-188l-5 62l73 9v435z" />
    <glyph glyph-name="agrave" unicode="&#xe0;" horiz-adv-x="695" 
d="M464 256q-58 0 -108 -3t-93 -10q-54 -8 -78 -30t-24 -64q0 -36 29 -60.5t93 -24.5q104 0 181 43v149zM90 466q57 29 117 41.5t129 12.5q65 0 112.5 -13t78 -37t45 -57.5t14.5 -73.5v-237q0 -16 7.5 -26t23.5 -10h45l5 -66q-21 -7 -38.5 -10t-37.5 -3q-44 0 -66.5 17
t-30.5 48q-41 -35 -98 -53.5t-126 -18.5q-44 0 -86 7.5t-75 27t-53 51.5t-20 82q0 36 15.5 64.5t43.5 49t67 33.5t87 20q54 8 104.5 10t110.5 2v34q0 33 -33.5 54.5t-112.5 21.5q-45 0 -94.5 -10.5t-105.5 -35.5zM375 593l-62 -38l-111 151l86 50z" />
    <glyph glyph-name="aacute" unicode="&#xe1;" horiz-adv-x="695" 
d="M464 256q-58 0 -108 -3t-93 -10q-54 -8 -78 -30t-24 -64q0 -36 29 -60.5t93 -24.5q104 0 181 43v149zM90 466q57 29 117 41.5t129 12.5q65 0 112.5 -13t78 -37t45 -57.5t14.5 -73.5v-237q0 -16 7.5 -26t23.5 -10h45l5 -66q-21 -7 -38.5 -10t-37.5 -3q-44 0 -66.5 17
t-30.5 48q-41 -35 -98 -53.5t-126 -18.5q-44 0 -86 7.5t-75 27t-53 51.5t-20 82q0 36 15.5 64.5t43.5 49t67 33.5t87 20q54 8 104.5 10t110.5 2v34q0 33 -33.5 54.5t-112.5 21.5q-45 0 -94.5 -10.5t-105.5 -35.5zM378 756l86 -50l-111 -151l-62 38z" />
    <glyph glyph-name="acircumflex" unicode="&#xe2;" horiz-adv-x="695" 
d="M464 256q-58 0 -108 -3t-93 -10q-54 -8 -78 -30t-24 -64q0 -36 29 -60.5t93 -24.5q104 0 181 43v149zM90 466q57 29 117 41.5t129 12.5q65 0 112.5 -13t78 -37t45 -57.5t14.5 -73.5v-237q0 -16 7.5 -26t23.5 -10h45l5 -66q-21 -7 -38.5 -10t-37.5 -3q-44 0 -66.5 17
t-30.5 48q-41 -35 -98 -53.5t-126 -18.5q-44 0 -86 7.5t-75 27t-53 51.5t-20 82q0 36 15.5 64.5t43.5 49t67 33.5t87 20q54 8 104.5 10t110.5 2v34q0 33 -33.5 54.5t-112.5 21.5q-45 0 -94.5 -10.5t-105.5 -35.5zM461 546l-135 83l-136 -83l-34 45l165 144h16l160 -146z" />
    <glyph glyph-name="atilde" unicode="&#xe3;" horiz-adv-x="695" 
d="M464 256q-58 0 -108 -3t-93 -10q-54 -8 -78 -30t-24 -64q0 -36 29 -60.5t93 -24.5q104 0 181 43v149zM90 466q57 29 117 41.5t129 12.5q65 0 112.5 -13t78 -37t45 -57.5t14.5 -73.5v-237q0 -16 7.5 -26t23.5 -10h45l5 -66q-21 -7 -38.5 -10t-37.5 -3q-44 0 -66.5 17
t-30.5 48q-41 -35 -98 -53.5t-126 -18.5q-44 0 -86 7.5t-75 27t-53 51.5t-20 82q0 36 15.5 64.5t43.5 49t67 33.5t87 20q54 8 104.5 10t110.5 2v34q0 33 -33.5 54.5t-112.5 21.5q-45 0 -94.5 -10.5t-105.5 -35.5zM168 607q29 34 62 48.5t73 14.5q22 0 38 -6t30 -13t28 -13
t32 -6q23 0 36.5 4t29.5 16l29 -43q-20 -26 -50.5 -38t-60.5 -12q-22 0 -38.5 5t-31.5 11.5t-30.5 11.5t-36.5 5q-20 0 -37.5 -8t-34.5 -22z" />
    <glyph glyph-name="adieresis" unicode="&#xe4;" horiz-adv-x="695" 
d="M464 256q-58 0 -108 -3t-93 -10q-54 -8 -78 -30t-24 -64q0 -36 29 -60.5t93 -24.5q104 0 181 43v149zM90 466q57 29 117 41.5t129 12.5q65 0 112.5 -13t78 -37t45 -57.5t14.5 -73.5v-237q0 -16 7.5 -26t23.5 -10h45l5 -66q-21 -7 -38.5 -10t-37.5 -3q-44 0 -66.5 17
t-30.5 48q-41 -35 -98 -53.5t-126 -18.5q-44 0 -86 7.5t-75 27t-53 51.5t-20 82q0 36 15.5 64.5t43.5 49t67 33.5t87 20q54 8 104.5 10t110.5 2v34q0 33 -33.5 54.5t-112.5 21.5q-45 0 -94.5 -10.5t-105.5 -35.5zM227 688q29 0 50.5 -17t21.5 -44t-21.5 -44t-50.5 -17
t-50.5 17t-21.5 44t21.5 44t50.5 17zM462 688q29 0 50.5 -17t21.5 -44t-21.5 -44t-50.5 -17t-50.5 17t-21.5 44t21.5 44t50.5 17z" />
    <glyph glyph-name="aring" unicode="&#xe5;" horiz-adv-x="695" 
d="M464 256q-58 0 -108 -3t-93 -10q-54 -8 -78 -30t-24 -64q0 -36 29 -60.5t93 -24.5q104 0 181 43v149zM90 466q57 29 117 41.5t129 12.5q65 0 112.5 -13t78 -37t45 -57.5t14.5 -73.5v-237q0 -16 7.5 -26t23.5 -10h45l5 -66q-21 -7 -38.5 -10t-37.5 -3q-44 0 -66.5 17
t-30.5 48q-41 -35 -98 -53.5t-126 -18.5q-44 0 -86 7.5t-75 27t-53 51.5t-20 82q0 36 15.5 64.5t43.5 49t67 33.5t87 20q54 8 104.5 10t110.5 2v34q0 33 -33.5 54.5t-112.5 21.5q-45 0 -94.5 -10.5t-105.5 -35.5zM327 763q50 0 84 -28t34 -76t-34 -76t-84 -28t-84 28t-34 76
t34 76t84 28zM327 710q-21 0 -36 -11t-15 -40t15 -40t36 -11t36 11t15 40t-15 40t-36 11z" />
    <glyph glyph-name="ae" unicode="&#xe6;" horiz-adv-x="1039" 
d="M80 466q57 29 117 41.5t129 12.5q78 0 125 -19t76 -52q39 33 89 52t121 19q135 0 205 -71t70 -194q0 -11 -1 -22.5t-4 -22.5l-6 -6h-245l-197 11q8 -76 49 -115.5t122 -39.5q35 0 61 3t47.5 9.5t42 18t44.5 28.5l43 -72q-27 -19 -53 -32t-54 -20.5t-60 -11t-71 -3.5
q-79 0 -133 23t-92 68q-62 -53 -122 -72t-123 -19q-44 0 -86 7.5t-75 27t-53 51.5t-20 82q0 36 15.5 64.5t43.5 49t67 33.5t87 20q53 7 99.5 9.5t105.5 2.5v34q0 16 -6.5 30t-22 24.5t-42 16t-65.5 5.5q-45 0 -94.5 -10.5t-105.5 -35.5zM444 256q-58 0 -103 -3t-88 -10
q-54 -8 -78 -30t-24 -64q0 -36 29 -60.5t93 -24.5q54 0 93.5 14t77.5 49v129zM896 287q-4 82 -45.5 117.5t-113.5 35.5q-83 0 -125 -39t-53 -114h337z" />
    <glyph glyph-name="ccedilla" unicode="&#xe7;" horiz-adv-x="624" 
d="M572 268h-73l-19 144q-32 14 -64.5 21t-71.5 7q-47 0 -83 -14t-61 -39t-38 -60t-13 -77t11.5 -76.5t34.5 -60t57.5 -39.5t81.5 -14q35 0 62.5 3.5t51 11t45.5 19t46 28.5l43 -72q-51 -36 -108 -52t-122 -18l-19 -25q41 0 70 -21.5t29 -63.5q0 -48 -36 -79.5t-93 -31.5
q-28 0 -54 5.5t-46 19.5l16 44q18 -7 35 -9.5t32 -2.5q30 0 50 11.5t20 36.5q0 19 -13 27t-30 8q-14 0 -24 -1.5t-21 -4.5l-11 17l25 73q-61 7 -108.5 31t-80 59.5t-49.5 80.5t-17 96q0 56 21.5 105.5t62.5 86t100 57.5t133 21q76 0 136.5 -14t105.5 -37z" />
    <glyph glyph-name="egrave" unicode="&#xe8;" horiz-adv-x="653" 
d="M504 287q-4 82 -48.5 117.5t-116.5 35.5q-83 0 -130 -39t-58 -114h353zM358 204l-207 11q8 -76 54 -115.5t127 -39.5q35 0 62.5 3t51 9.5t45.5 18t46 28.5l43 -72q-54 -38 -112 -52.5t-136 -14.5q-73 0 -130 21t-96 58t-59 86t-20 105t21 105.5t61 86t98 57.5t132 21
q67 0 120.5 -18.5t90.5 -52.5t56.5 -83.5t19.5 -110.5q0 -11 -1 -22.5t-4 -22.5l-6 -6h-257zM366 593l-62 -38l-111 151l86 50z" />
    <glyph glyph-name="eacute" unicode="&#xe9;" horiz-adv-x="653" 
d="M504 287q-4 82 -48.5 117.5t-116.5 35.5q-83 0 -130 -39t-58 -114h353zM358 204l-207 11q8 -76 54 -115.5t127 -39.5q35 0 62.5 3t51 9.5t45.5 18t46 28.5l43 -72q-54 -38 -112 -52.5t-136 -14.5q-73 0 -130 21t-96 58t-59 86t-20 105t21 105.5t61 86t98 57.5t132 21
q67 0 120.5 -18.5t90.5 -52.5t56.5 -83.5t19.5 -110.5q0 -11 -1 -22.5t-4 -22.5l-6 -6h-257zM399 756l86 -50l-111 -151l-62 38z" />
    <glyph glyph-name="ecircumflex" unicode="&#xea;" horiz-adv-x="653" 
d="M504 287q-4 82 -48.5 117.5t-116.5 35.5q-83 0 -130 -39t-58 -114h353zM358 204l-207 11q8 -76 54 -115.5t127 -39.5q35 0 62.5 3t51 9.5t45.5 18t46 28.5l43 -72q-54 -38 -112 -52.5t-136 -14.5q-73 0 -130 21t-96 58t-59 86t-20 105t21 105.5t61 86t98 57.5t132 21
q67 0 120.5 -18.5t90.5 -52.5t56.5 -83.5t19.5 -110.5q0 -11 -1 -22.5t-4 -22.5l-6 -6h-257zM475 546l-135 83l-136 -83l-34 45l165 144h16l160 -146z" />
    <glyph glyph-name="edieresis" unicode="&#xeb;" horiz-adv-x="653" 
d="M504 287q-4 82 -48.5 117.5t-116.5 35.5q-83 0 -130 -39t-58 -114h353zM358 204l-207 11q8 -76 54 -115.5t127 -39.5q35 0 62.5 3t51 9.5t45.5 18t46 28.5l43 -72q-54 -38 -112 -52.5t-136 -14.5q-73 0 -130 21t-96 58t-59 86t-20 105t21 105.5t61 86t98 57.5t132 21
q67 0 120.5 -18.5t90.5 -52.5t56.5 -83.5t19.5 -110.5q0 -11 -1 -22.5t-4 -22.5l-6 -6h-257zM227 688q29 0 50.5 -17t21.5 -44t-21.5 -44t-50.5 -17t-50.5 17t-21.5 44t21.5 44t50.5 17zM462 688q29 0 50.5 -17t21.5 -44t-21.5 -44t-50.5 -17t-50.5 17t-21.5 44t21.5 44
t50.5 17z" />
    <glyph glyph-name="igrave" unicode="&#xec;" horiz-adv-x="314" 
d="M211 504l8 -7v-426l71 -10l-4 -61h-256l-5 61l72 10v357l-62 6l-5 60zM208 593l-62 -38l-111 151l86 50z" />
    <glyph glyph-name="iacute" unicode="&#xed;" horiz-adv-x="314" 
d="M211 504l8 -7v-426l71 -10l-4 -61h-256l-5 61l72 10v357l-62 6l-5 60zM197 756l86 -50l-111 -151l-62 38z" />
    <glyph glyph-name="icircumflex" unicode="&#xee;" horiz-adv-x="314" 
d="M211 504l8 -7v-426l71 -10l-4 -61h-256l-5 61l72 10v357l-62 6l-5 60zM283 546l-135 83l-136 -83l-34 45l165 144h16l160 -146z" />
    <glyph glyph-name="idieresis" unicode="&#xef;" horiz-adv-x="314" 
d="M211 504l8 -7v-426l71 -10l-4 -61h-256l-5 61l72 10v357l-62 6l-5 60zM35 688q29 0 50.5 -17t21.5 -44t-21.5 -44t-50.5 -17t-50.5 17t-21.5 44t21.5 44t50.5 17zM270 688q29 0 50.5 -17t21.5 -44t-21.5 -44t-50.5 -17t-50.5 17t-21.5 44t21.5 44t50.5 17z" />
    <glyph glyph-name="eth" unicode="&#xf0;" horiz-adv-x="653" 
d="M483 727l-48 -67q88 -53 141 -142.5t53 -209.5q0 -62 -16 -121t-52 -105t-94.5 -74t-143.5 -28q-74 0 -129.5 23t-92.5 60t-55.5 82.5t-18.5 90.5t18.5 90.5t55.5 82.5t92.5 60t129.5 23q38 0 69.5 -8.5t56 -21.5t41 -29t25.5 -31l5 3q-20 57 -55 101.5t-85 77.5l-44 -62
l-58 38l1 6l41 52q-31 15 -64.5 26t-71.5 19l12 63q96 -2 178 -35l54 77zM494 236q0 37 -10 69.5t-30.5 55.5t-53 36.5t-77.5 13.5t-77.5 -13.5t-54.5 -36.5t-32.5 -55.5t-10.5 -69.5q0 -38 10.5 -70t32.5 -55t54.5 -36.5t77.5 -13.5t77.5 13.5t53 36.5t30.5 55t10 70z" />
    <glyph glyph-name="ntilde" unicode="&#xf1;" horiz-adv-x="748" 
d="M166 505l26 -60q40 37 95.5 56t119.5 19t111.5 -17t79 -48t47 -73t15.5 -93v-218l71 -10l-5 -61h-254l-5 61l72 10v228q0 64 -34.5 101t-117.5 37q-54 0 -95 -14t-74 -43v-309l71 -10l-5 -61h-254l-5 61l71 10v355l-66 4l-5 61zM218 607q29 34 62 48.5t73 14.5
q22 0 38 -6t30 -13t28 -13t32 -6q23 0 36.5 4t29.5 16l29 -43q-20 -26 -50.5 -38t-60.5 -12q-22 0 -38.5 5t-31.5 11.5t-30.5 11.5t-36.5 5q-20 0 -37.5 -8t-34.5 -22z" />
    <glyph glyph-name="ograve" unicode="&#xf2;" horiz-adv-x="688" 
d="M344 520q74 0 133 -21t100 -58t62.5 -86t21.5 -105t-21.5 -105.5t-62.5 -86t-100 -57.5t-133 -21t-133 21t-100 57.5t-62.5 86t-21.5 105.5t21.5 105t62.5 86t100 58t133 21zM344 440q-98 0 -146.5 -51.5t-48.5 -138.5q0 -88 48.5 -139t146.5 -51q97 0 145.5 51t48.5 139
q0 87 -48.5 138.5t-145.5 51.5zM375 593l-62 -38l-111 151l86 50z" />
    <glyph glyph-name="oacute" unicode="&#xf3;" horiz-adv-x="688" 
d="M344 520q74 0 133 -21t100 -58t62.5 -86t21.5 -105t-21.5 -105.5t-62.5 -86t-100 -57.5t-133 -21t-133 21t-100 57.5t-62.5 86t-21.5 105.5t21.5 105t62.5 86t100 58t133 21zM344 440q-98 0 -146.5 -51.5t-48.5 -138.5q0 -88 48.5 -139t146.5 -51q97 0 145.5 51t48.5 139
q0 87 -48.5 138.5t-145.5 51.5zM396 756l86 -50l-111 -151l-62 38z" />
    <glyph glyph-name="ocircumflex" unicode="&#xf4;" horiz-adv-x="688" 
d="M344 520q74 0 133 -21t100 -58t62.5 -86t21.5 -105t-21.5 -105.5t-62.5 -86t-100 -57.5t-133 -21t-133 21t-100 57.5t-62.5 86t-21.5 105.5t21.5 105t62.5 86t100 58t133 21zM344 440q-98 0 -146.5 -51.5t-48.5 -138.5q0 -88 48.5 -139t146.5 -51q97 0 145.5 51t48.5 139
q0 87 -48.5 138.5t-145.5 51.5zM478 546l-135 83l-136 -83l-34 45l165 144h16l160 -146z" />
    <glyph glyph-name="otilde" unicode="&#xf5;" horiz-adv-x="688" 
d="M344 520q74 0 133 -21t100 -58t62.5 -86t21.5 -105t-21.5 -105.5t-62.5 -86t-100 -57.5t-133 -21t-133 21t-100 57.5t-62.5 86t-21.5 105.5t21.5 105t62.5 86t100 58t133 21zM344 440q-98 0 -146.5 -51.5t-48.5 -138.5q0 -88 48.5 -139t146.5 -51q97 0 145.5 51t48.5 139
q0 87 -48.5 138.5t-145.5 51.5zM164 607q29 34 62 48.5t73 14.5q22 0 38 -6t30 -13t28 -13t32 -6q23 0 36.5 4t29.5 16l29 -43q-20 -26 -50.5 -38t-60.5 -12q-22 0 -38.5 5t-31.5 11.5t-30.5 11.5t-36.5 5q-20 0 -37.5 -8t-34.5 -22z" />
    <glyph glyph-name="odieresis" unicode="&#xf6;" horiz-adv-x="688" 
d="M344 520q74 0 133 -21t100 -58t62.5 -86t21.5 -105t-21.5 -105.5t-62.5 -86t-100 -57.5t-133 -21t-133 21t-100 57.5t-62.5 86t-21.5 105.5t21.5 105t62.5 86t100 58t133 21zM344 440q-98 0 -146.5 -51.5t-48.5 -138.5q0 -88 48.5 -139t146.5 -51q97 0 145.5 51t48.5 139
q0 87 -48.5 138.5t-145.5 51.5zM226 688q29 0 50.5 -17t21.5 -44t-21.5 -44t-50.5 -17t-50.5 17t-21.5 44t21.5 44t50.5 17zM461 688q29 0 50.5 -17t21.5 -44t-21.5 -44t-50.5 -17t-50.5 17t-21.5 44t21.5 44t50.5 17z" />
    <glyph glyph-name="divide" unicode="&#xf7;" horiz-adv-x="410" 
d="M204 221q33 0 56.5 -17.5t23.5 -50.5t-23.5 -50t-56.5 -17t-56.5 17t-23.5 50t23.5 50.5t56.5 17.5zM204 503q33 0 56.5 -17t23.5 -50t-23.5 -50.5t-56.5 -17.5t-56.5 17.5t-23.5 50.5t23.5 50t56.5 17zM29 252v84l349 -8l-5 -76h-344z" />
    <glyph glyph-name="oslash" unicode="&#xf8;" horiz-adv-x="688" 
d="M589 491l-1 -7l-27 -31q48 -37 74 -89.5t26 -113.5q0 -56 -21.5 -105.5t-62.5 -86t-100 -57.5t-133 -21q-42 0 -78 7t-68 19l-33 -42l-62 50l25 31q-49 37 -75 89.5t-26 115.5q0 56 21.5 105t62.5 86t100 58t133 21q80 0 144 -26l35 44zM432 425q-38 15 -88 15
q-98 0 -146.5 -51.5t-48.5 -138.5q0 -80 40 -129zM254 75q37 -15 90 -15q97 0 145.5 51t48.5 139q0 77 -40 128z" />
    <glyph glyph-name="ugrave" unicode="&#xf9;" horiz-adv-x="757" 
d="M592 0l-24 55q-40 -37 -95.5 -56t-119.5 -19t-111.5 17.5t-79 49t-47 74t-15.5 93.5v215l-71 10l5 61h254l5 -61l-72 -10v-225q0 -65 34.5 -103t117.5 -38q54 0 95 14t74 43v309l-71 10l5 61h254l5 -61l-71 -10v-350l71 -18l-5 -61h-138zM408 593l-62 -38l-111 151l86 50
z" />
    <glyph glyph-name="uacute" unicode="&#xfa;" horiz-adv-x="757" 
d="M592 0l-24 55q-40 -37 -95.5 -56t-119.5 -19t-111.5 17.5t-79 49t-47 74t-15.5 93.5v215l-71 10l5 61h254l5 -61l-72 -10v-225q0 -65 34.5 -103t117.5 -38q54 0 95 14t74 43v309l-71 10l5 61h254l5 -61l-71 -10v-350l71 -18l-5 -61h-138zM434 756l86 -50l-111 -151
l-62 38z" />
    <glyph glyph-name="ucircumflex" unicode="&#xfb;" horiz-adv-x="757" 
d="M592 0l-24 55q-40 -37 -95.5 -56t-119.5 -19t-111.5 17.5t-79 49t-47 74t-15.5 93.5v215l-71 10l5 61h254l5 -61l-72 -10v-225q0 -65 34.5 -103t117.5 -38q54 0 95 14t74 43v309l-71 10l5 61h254l5 -61l-71 -10v-350l71 -18l-5 -61h-138zM521 546l-135 83l-136 -83
l-34 45l165 144h16l160 -146z" />
    <glyph glyph-name="udieresis" unicode="&#xfc;" horiz-adv-x="757" 
d="M592 0l-24 55q-40 -37 -95.5 -56t-119.5 -19t-111.5 17.5t-79 49t-47 74t-15.5 93.5v215l-71 10l5 61h254l5 -61l-72 -10v-225q0 -65 34.5 -103t117.5 -38q54 0 95 14t74 43v309l-71 10l5 61h254l5 -61l-71 -10v-350l71 -18l-5 -61h-138zM270 688q29 0 50.5 -17t21.5 -44
t-21.5 -44t-50.5 -17t-50.5 17t-21.5 44t21.5 44t50.5 17zM505 688q29 0 50.5 -17t21.5 -44t-21.5 -44t-50.5 -17t-50.5 17t-21.5 44t21.5 44t50.5 17z" />
    <glyph glyph-name="yacute" unicode="&#xfd;" horiz-adv-x="764" 
d="M317 500l5 -62l-81 -14l172 -321h11l148 321l-76 14l4 62h243l5 -62l-63 -14l-229 -464q-30 -62 -75 -92.5t-109 -30.5q-44 0 -74.5 13t-53.5 39l38 66q42 -20 75 -20q45 0 71.5 17t41.5 48l13 27l-69 18l-217 375l-77 18l4 62h293zM476 756l86 -50l-111 -151l-62 38z
" />
    <glyph glyph-name="thorn" unicode="&#xfe;" horiz-adv-x="713" 
d="M26 592l-6 61l188 12l9 -6v-188q38 26 81.5 37.5t97.5 11.5q68 0 121.5 -19.5t90.5 -55.5t56.5 -85.5t19.5 -109.5q0 -56 -20.5 -105.5t-60 -86t-97 -57.5t-132.5 -21q-45 0 -84.5 8.5t-72.5 23.5v-108l71 -10l-5 -61h-254l-5 61l71 10v679zM217 89q38 -14 74.5 -19.5
t75.5 -5.5q89 0 141.5 44t52.5 142q0 50 -13.5 85t-36.5 57.5t-55 33t-69 10.5q-58 0 -98 -14t-72 -43v-290z" />
    <glyph glyph-name="ydieresis" unicode="&#xff;" horiz-adv-x="764" 
d="M317 500l5 -62l-81 -14l172 -321h11l148 321l-76 14l4 62h243l5 -62l-63 -14l-229 -464q-30 -62 -75 -92.5t-109 -30.5q-44 0 -74.5 13t-53.5 39l38 66q42 -20 75 -20q45 0 71.5 17t41.5 48l13 27l-69 18l-217 375l-77 18l4 62h293zM302 688q29 0 50.5 -17t21.5 -44
t-21.5 -44t-50.5 -17t-50.5 17t-21.5 44t21.5 44t50.5 17zM537 688q29 0 50.5 -17t21.5 -44t-21.5 -44t-50.5 -17t-50.5 17t-21.5 44t21.5 44t50.5 17z" />
    <glyph glyph-name="Amacron" unicode="&#x100;" horiz-adv-x="885" 
d="M508 628l269 -548l91 -19l-5 -61h-313l-5 61l93 20l-43 90h-327l-45 -90l94 -20l-5 -61h-292l-5 61l100 21l214 391l55 121l118 34h6zM308 253h249l-114 251h-10zM264 767l124 -5h250v-80h-376l-5 82z" />
    <glyph glyph-name="amacron" unicode="&#x101;" horiz-adv-x="695" 
d="M464 256q-58 0 -108 -3t-93 -10q-54 -8 -78 -30t-24 -64q0 -36 29 -60.5t93 -24.5q104 0 181 43v149zM90 466q57 29 117 41.5t129 12.5q65 0 112.5 -13t78 -37t45 -57.5t14.5 -73.5v-237q0 -16 7.5 -26t23.5 -10h45l5 -66q-21 -7 -38.5 -10t-37.5 -3q-44 0 -66.5 17
t-30.5 48q-41 -35 -98 -53.5t-126 -18.5q-44 0 -86 7.5t-75 27t-53 51.5t-20 82q0 36 15.5 64.5t43.5 49t67 33.5t87 20q54 8 104.5 10t110.5 2v34q0 33 -33.5 54.5t-112.5 21.5q-45 0 -94.5 -10.5t-105.5 -35.5zM161 644l109 -4h245v-73h-356l-4 74z" />
    <glyph glyph-name="Abreve" unicode="&#x102;" horiz-adv-x="885" 
d="M508 628l269 -548l91 -19l-5 -61h-313l-5 61l93 20l-43 90h-327l-45 -90l94 -20l-5 -61h-292l-5 61l100 21l214 391l55 121l118 34h6zM308 253h249l-114 251h-10zM361 822q14 -29 37.5 -42.5t61.5 -13.5t61.5 13.5t37.5 42.5l64 -19q-17 -60 -59 -92t-104 -32t-104 32
t-59 92z" />
    <glyph glyph-name="abreve" unicode="&#x103;" horiz-adv-x="695" 
d="M464 256q-58 0 -108 -3t-93 -10q-54 -8 -78 -30t-24 -64q0 -36 29 -60.5t93 -24.5q104 0 181 43v149zM90 466q57 29 117 41.5t129 12.5q65 0 112.5 -13t78 -37t45 -57.5t14.5 -73.5v-237q0 -16 7.5 -26t23.5 -10h45l5 -66q-21 -7 -38.5 -10t-37.5 -3q-44 0 -66.5 17
t-30.5 48q-41 -35 -98 -53.5t-126 -18.5q-44 0 -86 7.5t-75 27t-53 51.5t-20 82q0 36 15.5 64.5t43.5 49t67 33.5t87 20q54 8 104.5 10t110.5 2v34q0 33 -33.5 54.5t-112.5 21.5q-45 0 -94.5 -10.5t-105.5 -35.5zM236 693q11 -23 37 -35.5t54 -12.5q29 0 54.5 12.5
t35.5 35.5l63 -18q-16 -58 -57 -87.5t-96 -29.5q-54 0 -96 29t-57 87z" />
    <glyph glyph-name="Aogonek" unicode="&#x104;" horiz-adv-x="885" 
d="M508 628l269 -548l91 -19l-5 -61q-33 -8 -50.5 -29t-17.5 -48q0 -38 19 -51t42 -13q9 0 18.5 1t19.5 3l19 -44q-23 -14 -45 -19.5t-53 -5.5q-21 0 -39.5 7.5t-33 21t-22.5 32.5t-8 43q0 27 13.5 52t38.5 50h-214l-5 61l93 20l-43 90h-327l-45 -90l94 -20l-5 -61h-292
l-5 61l100 21l214 391l55 121l118 34h6zM308 253h249l-114 251h-10z" />
    <glyph glyph-name="aogonek" unicode="&#x105;" horiz-adv-x="695" 
d="M90 466q57 29 117 41.5t129 12.5q65 0 112.5 -13t78 -37t45 -57.5t14.5 -73.5v-237q0 -16 7.5 -26t23.5 -10h45l5 -66q-49 -17 -64 -35t-15 -32q0 -31 17 -41t43 -10q13 0 28 3l17 -40q-17 -12 -37.5 -18t-42.5 -6q-42 0 -71 25.5t-29 67.5q0 21 10 40t27 38
q-45 13 -56 60q-41 -35 -98 -53.5t-126 -18.5q-44 0 -86 7.5t-75 27t-53 51.5t-20 82q0 36 15.5 64.5t43.5 49t67 33.5t87 20q54 8 104.5 10t110.5 2v34q0 33 -33.5 54.5t-112.5 21.5q-45 0 -94.5 -10.5t-105.5 -35.5zM464 256q-58 0 -108 -3t-93 -10q-54 -8 -78 -30
t-24 -64q0 -36 29 -60.5t93 -24.5q104 0 181 43v149z" />
    <glyph glyph-name="Cacute" unicode="&#x106;" horiz-adv-x="729" 
d="M593 395l-16 112q-33 25 -76.5 36.5t-88.5 11.5q-57 0 -104 -16.5t-81.5 -48.5t-53.5 -78.5t-19 -106.5t19 -106.5t53.5 -78.5t81.5 -48.5t104 -16.5q45 0 88.5 11.5t76.5 36.5l16 120h80l10 -190q-66 -31 -136 -44.5t-145 -13.5q-87 0 -156 25.5t-117 70t-73.5 104.5
t-25.5 130t25.5 130t73.5 104.5t117 70t156 25.5q75 0 145 -12.5t136 -41.5l-10 -191zM578 837l-108 -158l-62 31l79 176z" />
    <glyph glyph-name="cacute" unicode="&#x107;" horiz-adv-x="624" 
d="M572 268h-73l-19 144q-32 14 -64.5 21t-71.5 7q-47 0 -83 -14t-61 -39t-38 -60t-13 -77t11.5 -76.5t34.5 -60t57.5 -39.5t81.5 -14q35 0 62.5 3.5t51 11t45.5 19t46 28.5l43 -72q-54 -38 -115.5 -54t-132.5 -16q-72 0 -129 21t-96.5 58t-60.5 86t-21 105t21.5 105.5
t62.5 86t100 57.5t133 21q76 0 136.5 -14t105.5 -37zM400 756l86 -50l-111 -151l-62 38z" />
    <glyph glyph-name="Ccircumflex" unicode="&#x108;" horiz-adv-x="729" 
d="M593 395l-16 112q-33 25 -76.5 36.5t-88.5 11.5q-57 0 -104 -16.5t-81.5 -48.5t-53.5 -78.5t-19 -106.5t19 -106.5t53.5 -78.5t81.5 -48.5t104 -16.5q45 0 88.5 11.5t76.5 36.5l16 120h80l10 -190q-66 -31 -136 -44.5t-145 -13.5q-87 0 -156 25.5t-117 70t-73.5 104.5
t-25.5 130t25.5 130t73.5 104.5t117 70t156 25.5q75 0 145 -12.5t136 -41.5l-10 -191zM241 732l171 133l171 -133l-32 -53l-139 71l-139 -71z" />
    <glyph glyph-name="ccircumflex" unicode="&#x109;" horiz-adv-x="624" 
d="M572 268h-73l-19 144q-32 14 -64.5 21t-71.5 7q-47 0 -83 -14t-61 -39t-38 -60t-13 -77t11.5 -76.5t34.5 -60t57.5 -39.5t81.5 -14q35 0 62.5 3.5t51 11t45.5 19t46 28.5l43 -72q-54 -38 -115.5 -54t-132.5 -16q-72 0 -129 21t-96.5 58t-60.5 86t-21 105t21.5 105.5
t62.5 86t100 57.5t133 21q76 0 136.5 -14t105.5 -37zM481 546l-135 83l-136 -83l-34 45l165 144h16l160 -146z" />
    <glyph glyph-name="Cdotaccent" unicode="&#x10a;" horiz-adv-x="729" 
d="M593 395l-16 112q-33 25 -76.5 36.5t-88.5 11.5q-57 0 -104 -16.5t-81.5 -48.5t-53.5 -78.5t-19 -106.5t19 -106.5t53.5 -78.5t81.5 -48.5t104 -16.5q45 0 88.5 11.5t76.5 36.5l16 120h80l10 -190q-66 -31 -136 -44.5t-145 -13.5q-87 0 -156 25.5t-117 70t-73.5 104.5
t-25.5 130t25.5 130t73.5 104.5t117 70t156 25.5q75 0 145 -12.5t136 -41.5l-10 -191zM407 836q16 0 32 -5t29 -14.5t20.5 -23.5t7.5 -32t-7.5 -32t-20.5 -23.5t-29 -14.5t-32 -5q-17 0 -33 5t-28.5 14.5t-20 23.5t-7.5 32t7.5 32t20 23.5t28.5 14.5t33 5z" />
    <glyph glyph-name="cdotaccent" unicode="&#x10b;" horiz-adv-x="624" 
d="M572 268h-73l-19 144q-32 14 -64.5 21t-71.5 7q-47 0 -83 -14t-61 -39t-38 -60t-13 -77t11.5 -76.5t34.5 -60t57.5 -39.5t81.5 -14q35 0 62.5 3.5t51 11t45.5 19t46 28.5l43 -72q-54 -38 -115.5 -54t-132.5 -16q-72 0 -129 21t-96.5 58t-60.5 86t-21 105t21.5 105.5
t62.5 86t100 57.5t133 21q76 0 136.5 -14t105.5 -37zM356 688q33 0 57 -19t24 -49t-24 -49t-57 -19q-32 0 -56 19t-24 49t24 49t56 19z" />
    <glyph glyph-name="Ccaron" unicode="&#x10c;" horiz-adv-x="729" 
d="M593 395l-16 112q-33 25 -76.5 36.5t-88.5 11.5q-57 0 -104 -16.5t-81.5 -48.5t-53.5 -78.5t-19 -106.5t19 -106.5t53.5 -78.5t81.5 -48.5t104 -16.5q45 0 88.5 11.5t76.5 36.5l16 120h80l10 -190q-66 -31 -136 -44.5t-145 -13.5q-87 0 -156 25.5t-117 70t-73.5 104.5
t-25.5 130t25.5 130t73.5 104.5t117 70t156 25.5q75 0 145 -12.5t136 -41.5l-10 -191zM267 860l139 -71l139 71l32 -53l-171 -133l-171 133z" />
    <glyph glyph-name="ccaron" unicode="&#x10d;" horiz-adv-x="624" 
d="M572 268h-73l-19 144q-32 14 -64.5 21t-71.5 7q-47 0 -83 -14t-61 -39t-38 -60t-13 -77t11.5 -76.5t34.5 -60t57.5 -39.5t81.5 -14q35 0 62.5 3.5t51 11t45.5 19t46 28.5l43 -72q-54 -38 -115.5 -54t-132.5 -16q-72 0 -129 21t-96.5 58t-60.5 86t-21 105t21.5 105.5
t62.5 86t100 57.5t133 21q76 0 136.5 -14t105.5 -37zM213 750l133 -83l136 83l36 -45l-165 -155h-18l-158 155z" />
    <glyph glyph-name="Dcaron" unicode="&#x10e;" horiz-adv-x="815" 
d="M29 602q45 6 87.5 10t88 6.5t97 4t113.5 1.5q82 0 150 -19.5t117 -58.5t76 -98.5t27 -138.5q0 -80 -27 -139.5t-76 -99.5t-117 -60t-150 -20q-62 0 -113.5 1.5t-97 4t-88 6.5t-87.5 10l5 63l98 8v447l-98 9zM254 84q37 -7 74.5 -10t85.5 -3q57 0 102.5 13.5t77.5 42.5
t49.5 74t17.5 108t-17.5 107.5t-49.5 72.5t-77.5 41t-102.5 13q-48 0 -85.5 -3t-74.5 -10v-446zM273 838l139 -71l139 71l32 -53l-171 -133l-171 133z" />
    <glyph glyph-name="dcaron" unicode="&#x10f;" horiz-adv-x="811" 
d="M615 83l71 -22v-61h-122l-32 51q-43 -38 -97 -54.5t-120 -16.5q-67 0 -120 19.5t-90.5 55.5t-57.5 85.5t-20 109.5q0 59 21.5 108.5t62.5 85.5t99.5 56t133.5 20q46 0 83 -8t67 -22v92l-70 10l-6 61l189 12l8 -5v-577zM494 413q-40 14 -75 18.5t-75 4.5q-89 0 -141.5 -44
t-52.5 -142q0 -50 13.5 -85t36.5 -57.5t55 -33t69 -10.5q57 0 101 15.5t69 41.5v292zM716 509q-23 3 -39 17.5t-16 45.5t21 48.5t55 17.5q35 0 55.5 -17.5t20.5 -48.5q0 -25 -15 -63.5t-56 -99.5l-51 15z" />
    <glyph glyph-name="Dcroat" unicode="&#x110;" horiz-adv-x="816" 
d="M30 602q45 6 87.5 10t88 6.5t97 4t113.5 1.5q82 0 150 -19.5t117 -58.5t76 -98.5t27 -138.5q0 -80 -27 -139.5t-76 -99.5t-117 -60t-150 -20q-62 0 -113.5 1.5t-97 4t-88 6.5t-87.5 10l5 63l98 8v204l-82 -2l-5 85l6 2l81 -4v162l-98 9zM255 364l189 -2l5 -71l-5 -4
l-189 -2v-201q37 -7 74.5 -10t85.5 -3q57 0 102.5 13.5t77.5 42.5t49.5 74t17.5 108t-17.5 107.5t-49.5 72.5t-77.5 41t-102.5 13q-48 0 -85.5 -3t-74.5 -10v-166z" />
    <glyph glyph-name="dcroat" unicode="&#x111;" horiz-adv-x="708" 
d="M679 508l-64 1v-426l71 -22v-61h-122l-32 51q-43 -38 -97 -54.5t-120 -16.5q-67 0 -120 19.5t-90.5 55.5t-57.5 85.5t-20 109.5q0 55 21.5 101t62.5 79t99.5 51.5t133.5 18.5q46 0 83 -8t67 -22v42l-89 2v69h89v19l-70 10l-6 61l189 12l8 -5v-97h66l4 -72zM494 393
q-40 14 -75 18.5t-75 4.5q-45 0 -80.5 -9t-61 -28.5t-39 -51.5t-13.5 -77q0 -50 13.5 -85t36.5 -57.5t55 -33t69 -10.5q57 0 101 15.5t69 41.5v272z" />
    <glyph glyph-name="Emacron" unicode="&#x112;" horiz-adv-x="739" 
d="M497 610l175 6l7 -4l-13 -204l-79 4l-9 113h-328v-156h184l31 73l62 -5v-241l-65 -5l-28 94h-184v-200h330l40 141l80 -7l-20 -219h-645l-5 61l98 21v446l-98 21l5 61h462zM201 768l124 -5h250v-80h-376l-5 82z" />
    <glyph glyph-name="emacron" unicode="&#x113;" horiz-adv-x="653" 
d="M504 287q-4 82 -48.5 117.5t-116.5 35.5q-83 0 -130 -39t-58 -114h353zM358 204l-207 11q8 -76 54 -115.5t127 -39.5q35 0 62.5 3t51 9.5t45.5 18t46 28.5l43 -72q-54 -38 -112 -52.5t-136 -14.5q-73 0 -130 21t-96 58t-59 86t-20 105t21 105.5t61 86t98 57.5t132 21
q67 0 120.5 -18.5t90.5 -52.5t56.5 -83.5t19.5 -110.5q0 -11 -1 -22.5t-4 -22.5l-6 -6h-257zM168 644l109 -4h245v-73h-356l-4 74z" />
    <glyph glyph-name="Ebreve" unicode="&#x114;" horiz-adv-x="739" 
d="M497 610l175 6l7 -4l-13 -204l-79 4l-9 113h-328v-156h184l31 73l62 -5v-241l-65 -5l-28 94h-184v-200h330l40 141l80 -7l-20 -219h-645l-5 61l98 21v446l-98 21l5 61h462zM292 830q14 -29 37.5 -42.5t61.5 -13.5t61.5 13.5t37.5 42.5l64 -19q-17 -60 -59 -92t-104 -32
t-104 32t-59 92z" />
    <glyph glyph-name="ebreve" unicode="&#x115;" horiz-adv-x="653" 
d="M504 287q-4 82 -48.5 117.5t-116.5 35.5q-83 0 -130 -39t-58 -114h353zM358 204l-207 11q8 -76 54 -115.5t127 -39.5q35 0 62.5 3t51 9.5t45.5 18t46 28.5l43 -72q-54 -38 -112 -52.5t-136 -14.5q-73 0 -130 21t-96 58t-59 86t-20 105t21 105.5t61 86t98 57.5t132 21
q67 0 120.5 -18.5t90.5 -52.5t56.5 -83.5t19.5 -110.5q0 -11 -1 -22.5t-4 -22.5l-6 -6h-257zM247 693q11 -23 37 -35.5t54 -12.5q29 0 54.5 12.5t35.5 35.5l63 -18q-16 -58 -57 -87.5t-96 -29.5q-54 0 -96 29t-57 87z" />
    <glyph glyph-name="Edotaccent" unicode="&#x116;" horiz-adv-x="739" 
d="M497 610l175 6l7 -4l-13 -204l-79 4l-9 113h-328v-156h184l31 73l62 -5v-241l-65 -5l-28 94h-184v-200h330l40 141l80 -7l-20 -219h-645l-5 61l98 21v446l-98 21l5 61h462zM368 809q16 0 32 -5t29 -14.5t20.5 -23.5t7.5 -32t-7.5 -32t-20.5 -23.5t-29 -14.5t-32 -5
q-17 0 -33 5t-28.5 14.5t-20 23.5t-7.5 32t7.5 32t20 23.5t28.5 14.5t33 5z" />
    <glyph glyph-name="edotaccent" unicode="&#x117;" horiz-adv-x="653" 
d="M504 287q-4 82 -48.5 117.5t-116.5 35.5q-83 0 -130 -39t-58 -114h353zM358 204l-207 11q8 -76 54 -115.5t127 -39.5q35 0 62.5 3t51 9.5t45.5 18t46 28.5l43 -72q-54 -38 -112 -52.5t-136 -14.5q-73 0 -130 21t-96 58t-59 86t-20 105t21 105.5t61 86t98 57.5t132 21
q67 0 120.5 -18.5t90.5 -52.5t56.5 -83.5t19.5 -110.5q0 -11 -1 -22.5t-4 -22.5l-6 -6h-257zM341 688q33 0 57 -19t24 -49t-24 -49t-57 -19q-32 0 -56 19t-24 49t24 49t56 19z" />
    <glyph glyph-name="Eogonek" unicode="&#x118;" horiz-adv-x="739" 
d="M497 610l175 6l7 -4l-13 -204l-79 4l-9 113h-328v-156h184l31 73l62 -5v-241l-65 -5l-28 94h-184v-200h330l40 141l80 -7l-20 -219q-41 -9 -55 -29.5t-14 -47.5q0 -38 19 -51t42 -13q9 0 18.5 1t19.5 3l19 -44q-23 -14 -45 -19.5t-53 -5.5q-21 0 -39.5 7.5t-33 21
t-22.5 32.5t-8 43q0 53 46 102h-539l-5 61l98 21v446l-98 21l5 61h462z" />
    <glyph glyph-name="eogonek" unicode="&#x119;" horiz-adv-x="653" 
d="M358 204l-207 11q8 -76 54 -115.5t127 -39.5q35 0 62.5 3t51 9.5t45.5 18t46 28.5l43 -72q-25 -16 -40 -30.5t-23.5 -27.5t-11 -23.5t-2.5 -18.5q0 -31 15.5 -43t41.5 -12q13 0 28 3l17 -40q-17 -12 -37.5 -18t-42.5 -6q-42 0 -71 25.5t-29 67.5q0 21 8 36t24 35
q-30 -8 -58 -11.5t-67 -3.5q-73 0 -130 21t-96 58t-59 86t-20 105t21 105.5t61 86t98 57.5t132 21q67 0 120.5 -18.5t90.5 -52.5t56.5 -83.5t19.5 -110.5q0 -11 -1 -22.5t-4 -22.5l-6 -6h-257zM504 287q-4 82 -48.5 117.5t-116.5 35.5q-83 0 -130 -39t-58 -114h353z" />
    <glyph glyph-name="Ecaron" unicode="&#x11a;" horiz-adv-x="739" 
d="M497 610l175 6l7 -4l-13 -204l-79 4l-9 113h-328v-156h184l31 73l62 -5v-241l-65 -5l-28 94h-184v-200h330l40 141l80 -7l-20 -219h-645l-5 61l98 21v446l-98 21l5 61h462zM246 839l139 -71l139 71l32 -53l-171 -133l-171 133z" />
    <glyph glyph-name="ecaron" unicode="&#x11b;" horiz-adv-x="653" 
d="M504 287q-4 82 -48.5 117.5t-116.5 35.5q-83 0 -130 -39t-58 -114h353zM358 204l-207 11q8 -76 54 -115.5t127 -39.5q35 0 62.5 3t51 9.5t45.5 18t46 28.5l43 -72q-54 -38 -112 -52.5t-136 -14.5q-73 0 -130 21t-96 58t-59 86t-20 105t21 105.5t61 86t98 57.5t132 21
q67 0 120.5 -18.5t90.5 -52.5t56.5 -83.5t19.5 -110.5q0 -11 -1 -22.5t-4 -22.5l-6 -6h-257zM208 750l133 -83l136 83l36 -45l-165 -155h-18l-158 155z" />
    <glyph glyph-name="Gcircumflex" unicode="&#x11c;" horiz-adv-x="790" 
d="M599 404l-12 103q-36 25 -83 36.5t-92 11.5q-57 0 -104 -16.5t-81.5 -48.5t-53.5 -78.5t-19 -106.5t17.5 -106.5t50 -78t78 -48t102.5 -16.5q96 0 170 51v149l-114 21l5 59h293l4 -59l-66 -17v-261l-23 -11l-81 40q-44 -27 -95.5 -40t-105.5 -13q-86 0 -153 25.5
t-112.5 70t-69.5 104.5t-24 130t25.5 130t73.5 104.5t117 70t156 25.5q75 0 150 -12.5t141 -41.5l-14 -181zM242 726l171 133l171 -133l-32 -53l-139 71l-139 -71z" />
    <glyph glyph-name="gcircumflex" unicode="&#x11d;" horiz-adv-x="761" 
d="M657 429q-15 5 -29 8t-30 3l-2 -10q27 -30 44 -67t17 -77q0 -45 -18.5 -87.5t-55 -74.5t-92.5 -51.5t-131 -19.5q-60 0 -105.5 11.5t-79.5 32.5q-18 -14 -26 -31.5t-8 -34.5q0 -18 7 -37.5t27 -34.5q55 27 108 39.5t121 12.5q53 0 95 -7t78 -20.5t68 -35t64 -49.5
l-42 -51q-60 33 -126.5 48t-136.5 15q-71 0 -139.5 -12t-131.5 -34q-54 38 -82 86.5t-32 96.5q17 23 43.5 45t60.5 45q-30 30 -45 68t-15 80q0 45 18 87.5t54.5 74.5t92.5 51.5t132 19.5q106 0 175 -39q10 19 27 34q14 3 29 4t32 1q33 0 64.5 -6t59.5 -14v-56zM360 136
q83 0 129 37t46 113q0 75 -46 112.5t-129 37.5q-85 0 -130 -37.5t-45 -112.5q0 -76 45 -113t130 -37zM495 546l-135 83l-136 -83l-34 45l165 144h16l160 -146z" />
    <glyph glyph-name="Gbreve" unicode="&#x11e;" horiz-adv-x="790" 
d="M599 404l-12 103q-36 25 -83 36.5t-92 11.5q-57 0 -104 -16.5t-81.5 -48.5t-53.5 -78.5t-19 -106.5t17.5 -106.5t50 -78t78 -48t102.5 -16.5q96 0 170 51v149l-114 21l5 59h293l4 -59l-66 -17v-261l-23 -11l-81 40q-44 -27 -95.5 -40t-105.5 -13q-86 0 -153 25.5
t-112.5 70t-69.5 104.5t-24 130t25.5 130t73.5 104.5t117 70t156 25.5q75 0 150 -12.5t141 -41.5l-14 -181zM300 822q14 -29 37.5 -42.5t61.5 -13.5t61.5 13.5t37.5 42.5l64 -19q-17 -60 -59 -92t-104 -32t-104 32t-59 92z" />
    <glyph glyph-name="gbreve" unicode="&#x11f;" horiz-adv-x="761" 
d="M657 429q-15 5 -29 8t-30 3l-2 -10q27 -30 44 -67t17 -77q0 -45 -18.5 -87.5t-55 -74.5t-92.5 -51.5t-131 -19.5q-60 0 -105.5 11.5t-79.5 32.5q-18 -14 -26 -31.5t-8 -34.5q0 -18 7 -37.5t27 -34.5q55 27 108 39.5t121 12.5q53 0 95 -7t78 -20.5t68 -35t64 -49.5
l-42 -51q-60 33 -126.5 48t-136.5 15q-71 0 -139.5 -12t-131.5 -34q-54 38 -82 86.5t-32 96.5q17 23 43.5 45t60.5 45q-30 30 -45 68t-15 80q0 45 18 87.5t54.5 74.5t92.5 51.5t132 19.5q106 0 175 -39q10 19 27 34q14 3 29 4t32 1q33 0 64.5 -6t59.5 -14v-56zM360 136
q83 0 129 37t46 113q0 75 -46 112.5t-129 37.5q-85 0 -130 -37.5t-45 -112.5q0 -76 45 -113t130 -37zM274 684q11 -23 37 -35.5t54 -12.5q29 0 54.5 12.5t35.5 35.5l63 -18q-16 -58 -57 -87.5t-96 -29.5q-54 0 -96 29t-57 87z" />
    <glyph glyph-name="Gdotaccent" unicode="&#x120;" horiz-adv-x="790" 
d="M599 404l-12 103q-36 25 -83 36.5t-92 11.5q-57 0 -104 -16.5t-81.5 -48.5t-53.5 -78.5t-19 -106.5t17.5 -106.5t50 -78t78 -48t102.5 -16.5q96 0 170 51v149l-114 21l5 59h293l4 -59l-66 -17v-261l-23 -11l-81 40q-44 -27 -95.5 -40t-105.5 -13q-86 0 -153 25.5
t-112.5 70t-69.5 104.5t-24 130t25.5 130t73.5 104.5t117 70t156 25.5q75 0 150 -12.5t141 -41.5l-14 -181zM413 830q16 0 32 -5t29 -14.5t20.5 -23.5t7.5 -32t-7.5 -32t-20.5 -23.5t-29 -14.5t-32 -5q-17 0 -33 5t-28.5 14.5t-20 23.5t-7.5 32t7.5 32t20 23.5t28.5 14.5
t33 5z" />
    <glyph glyph-name="gdotaccent" unicode="&#x121;" horiz-adv-x="761" 
d="M657 429q-15 5 -29 8t-30 3l-2 -10q27 -30 44 -67t17 -77q0 -45 -18.5 -87.5t-55 -74.5t-92.5 -51.5t-131 -19.5q-60 0 -105.5 11.5t-79.5 32.5q-18 -14 -26 -31.5t-8 -34.5q0 -18 7 -37.5t27 -34.5q55 27 108 39.5t121 12.5q53 0 95 -7t78 -20.5t68 -35t64 -49.5
l-42 -51q-60 33 -126.5 48t-136.5 15q-71 0 -139.5 -12t-131.5 -34q-54 38 -82 86.5t-32 96.5q17 23 43.5 45t60.5 45q-30 30 -45 68t-15 80q0 45 18 87.5t54.5 74.5t92.5 51.5t132 19.5q106 0 175 -39q10 19 27 34q14 3 29 4t32 1q33 0 64.5 -6t59.5 -14v-56zM360 136
q83 0 129 37t46 113q0 75 -46 112.5t-129 37.5q-85 0 -130 -37.5t-45 -112.5q0 -76 45 -113t130 -37zM368 688q33 0 57 -19t24 -49t-24 -49t-57 -19q-32 0 -56 19t-24 49t24 49t56 19z" />
    <glyph glyph-name="Gcommaaccent" unicode="&#x122;" horiz-adv-x="790" 
d="M599 404l-12 103q-36 25 -83 36.5t-92 11.5q-57 0 -104 -16.5t-81.5 -48.5t-53.5 -78.5t-19 -106.5t17.5 -106.5t50 -78t78 -48t102.5 -16.5q96 0 170 51v149l-114 21l5 59h293l4 -59l-66 -17v-261l-23 -11l-81 40q-44 -27 -95.5 -40t-105.5 -13q-86 0 -153 25.5
t-112.5 70t-69.5 104.5t-24 130t25.5 130t73.5 104.5t117 70t156 25.5q75 0 150 -12.5t141 -41.5l-14 -181zM336 -130q0 35 23.5 53t57.5 18q35 0 58 -18t23 -53q0 -41 -22 -88.5t-54 -86.5l-55 19l27 89q-26 4 -42 19t-16 48z" />
    <glyph glyph-name="gcommaaccent" unicode="&#x123;" horiz-adv-x="761" 
d="M657 429q-15 5 -29 8t-30 3l-2 -10q27 -30 44 -67t17 -77q0 -45 -18.5 -87.5t-55 -74.5t-92.5 -51.5t-131 -19.5q-60 0 -105.5 11.5t-79.5 32.5q-18 -14 -26 -31.5t-8 -34.5q0 -18 7 -37.5t27 -34.5q55 27 108 39.5t121 12.5q53 0 95 -7t78 -20.5t68 -35t64 -49.5
l-42 -51q-60 33 -126.5 48t-136.5 15q-71 0 -139.5 -12t-131.5 -34q-54 38 -82 86.5t-32 96.5q17 23 43.5 45t60.5 45q-30 30 -45 68t-15 80q0 45 18 87.5t54.5 74.5t92.5 51.5t132 19.5q106 0 175 -39q10 19 27 34q14 3 29 4t32 1q33 0 64.5 -6t59.5 -14v-56zM360 136
q83 0 129 37t46 113q0 75 -46 112.5t-129 37.5q-85 0 -130 -37.5t-45 -112.5q0 -76 45 -113t130 -37zM388.005 681.022q22.999 -2.99902 38.998 -17.499q15.999 -14.499 15.999 -45.4971t-20.999 -48.4971t-54.9961 -17.499q-34.998 0 -55.4971 17.499t-20.499 48.4971
q0 24.999 14.999 63.4961q14.999 38.498 55.9971 99.4941l50.9971 -14.999z" />
    <glyph glyph-name="Hcircumflex" unicode="&#x124;" horiz-adv-x="874" 
d="M255 353h364v175l-98 21l5 61h308l5 -61l-98 -21v-446l98 -21l-5 -61h-308l-5 61l98 21v186h-364v-186l98 -21l-5 -61h-308l-5 61l98 21v446l-98 21l5 61h308l5 -61l-98 -21v-175zM266 710l171 133l171 -133l-32 -53l-139 71l-139 -71z" />
    <glyph glyph-name="hcircumflex" unicode="&#x125;" horiz-adv-x="748" 
d="M209 665l9 -6v-193q38 26 86.5 40t102.5 14q64 0 111.5 -17t79 -48t47 -73t15.5 -93v-218l71 -10l-5 -61h-254l-5 61l72 10v228q0 64 -34.5 101t-117.5 37q-54 0 -95 -14t-74 -43v-309l71 -10l-5 -61h-254l-5 61l71 10v512l-69 9l-6 61zM293 674l-135 83l-136 -83l-34 45
l165 144h16l160 -146z" />
    <glyph glyph-name="Hbar" unicode="&#x126;" horiz-adv-x="874" 
d="M26 482l107 -4v50l-98 21l5 61h308l5 -61l-98 -21v-51h364v51l-98 21l5 61h308l5 -61l-98 -21v-51h93l4 -3l-9 -63l-88 -10v-319l98 -21l-5 -61h-308l-5 61l98 21v186h-364v-186l98 -21l-5 -61h-308l-5 61l98 21v319h-107l-5 78zM619 353v48h-364v-48h364z" />
    <glyph glyph-name="hbar" unicode="&#x127;" horiz-adv-x="751" 
d="M103 658l109 23l13 -3v-83l182 8l7 -9l-7 -78h-182v-91q16 12 37.5 22.5t45.5 18.5t49 13t48 5q128 0 195.5 -58.5t67.5 -170.5v-184l71 -9l-5 -62h-254l-5 62l71 9v184q0 77 -37 111t-104 34q-55 0 -102 -16t-78 -48v-265l71 -9l-5 -62h-254l-5 62l71 9v445h-71l-7 5
l13 66l65 3v68z" />
    <glyph glyph-name="Itilde" unicode="&#x128;" horiz-adv-x="380" 
d="M345 610l5 -61l-99 -21v-445l99 -22l-5 -61h-310l-5 61l98 22v445l-98 21l5 61h310zM-10 731q32 35 63.5 51t76.5 16q27 0 47 -6.5t37.5 -15t34.5 -15t37 -6.5q26 0 41.5 4.5t32.5 18.5l33 -45q-22 -29 -50 -42.5t-65 -13.5q-28 0 -48.5 6t-38.5 12.5t-36 12.5t-41 6
q-41 0 -81 -34z" />
    <glyph glyph-name="itilde" unicode="&#x129;" horiz-adv-x="314" 
d="M211 504l8 -7v-426l71 -10l-4 -61h-256l-5 61l72 10v357l-62 6l-5 60zM-31 607q29 34 62 48.5t73 14.5q22 0 38 -6t30 -13t28 -13t32 -6q23 0 36.5 4t29.5 16l29 -43q-20 -26 -50.5 -38t-60.5 -12q-22 0 -38.5 5t-31.5 11.5t-30.5 11.5t-36.5 5q-20 0 -37.5 -8t-34.5 -22
z" />
    <glyph glyph-name="uni012A" unicode="&#x12a;" horiz-adv-x="380" 
d="M345 610l5 -61l-99 -21v-445l99 -22l-5 -61h-310l-5 61l98 22v445l-98 21l5 61h310zM8 775l124 -5h250v-80h-376l-5 82z" />
    <glyph glyph-name="imacron" unicode="&#x12b;" horiz-adv-x="314" 
d="M211 504l8 -7v-426l71 -10l-4 -61h-256l-5 61l72 10v357l-62 6l-5 60zM-28 644l109 -4h245v-73h-356l-4 74z" />
    <glyph glyph-name="Ibreve" unicode="&#x12c;" horiz-adv-x="380" 
d="M345 610l5 -61l-99 -21v-445l99 -22l-5 -61h-310l-5 61l98 22v445l-98 21l5 61h310zM91 822q14 -29 37.5 -42.5t61.5 -13.5t61.5 13.5t37.5 42.5l64 -19q-17 -60 -59 -92t-104 -32t-104 32t-59 92z" />
    <glyph glyph-name="uni012D" unicode="&#x12d;" horiz-adv-x="314" 
d="M211 504l8 -7v-426l71 -10l-4 -61h-256l-5 61l72 10v357l-62 6l-5 60zM67 693q11 -23 37 -35.5t54 -12.5q29 0 54.5 12.5t35.5 35.5l63 -18q-16 -58 -57 -87.5t-96 -29.5q-54 0 -96 29t-57 87z" />
    <glyph glyph-name="Iogonek" unicode="&#x12e;" horiz-adv-x="380" 
d="M343 610l5 -61l-99 -21v-445l99 -22l-4 -61q-29 -13 -38 -31.5t-9 -45.5q0 -38 19 -51t42 -13q16 0 38 5l19 -45q-23 -14 -45 -19.5t-53 -5.5q-21 0 -39.5 7.5t-33 21t-22.5 32.5t-8 43q0 27 10 52t36 50h-227l-5 61l98 22v445l-98 21l5 61h310z" />
    <glyph glyph-name="iogonek" unicode="&#x12f;" horiz-adv-x="314" 
d="M211 504l8 -7v-426l71 -10l-4 -61q-31 0 -50.5 -7t-30 -16.5t-14 -20.5t-3.5 -19q0 -31 17 -43t43 -12q13 0 28 3l17 -40q-17 -12 -37.5 -18t-42.5 -6q-42 0 -71 25.5t-29 67.5q0 43 37 86h-120l-5 61l72 10v357l-62 6l-5 60zM157 698q33 0 57 -19t24 -49t-24 -49
t-57 -19q-32 0 -56 19t-24 49t24 49t56 19z" />
    <glyph glyph-name="Idotaccent" unicode="&#x130;" horiz-adv-x="380" 
d="M345 610l5 -61l-99 -21v-445l99 -22l-5 -61h-310l-5 61l98 22v445l-98 21l5 61h310zM190 817q16 0 32 -5t29 -14.5t20.5 -23.5t7.5 -32t-7.5 -32t-20.5 -23.5t-29 -14.5t-32 -5q-17 0 -33 5t-28.5 14.5t-20 23.5t-7.5 32t7.5 32t20 23.5t28.5 14.5t33 5z" />
    <glyph glyph-name="dotlessi" unicode="&#x131;" horiz-adv-x="314" 
d="M211 504l8 -7v-426l71 -10l-4 -61h-256l-5 61l72 10v357l-62 6l-5 60z" />
    <glyph glyph-name="Jcircumflex" unicode="&#x134;" horiz-adv-x="637" 
d="M606 610l5 -61l-86 -21v-249q0 -79 -20.5 -139.5t-65.5 -100.5q-35 -31 -84.5 -47.5t-116.5 -16.5q-57 0 -107 8.5t-104 28.5l7 190l75 4l29 -128q20 -9 42.5 -14.5t47.5 -5.5q78 0 121 40q54 50 54 164v266l-106 21l5 61h304zM281 708l171 133l171 -133l-32 -53l-139 71
l-139 -71z" />
    <glyph glyph-name="jcircumflex" unicode="&#x135;" horiz-adv-x="268" 
d="M270 546l-135 83l-136 -83l-34 45l165 144h16l160 -146zM211 504l8 -7v-420q0 -128 -54 -195.5t-157 -67.5q-26 0 -51.5 5t-53.5 16l8 58l91 4q28 9 46 20.5t29 30t15.5 46.5t4.5 70v364l-62 6l-5 60z" />
    <glyph glyph-name="Kcommaaccent" unicode="&#x136;" horiz-adv-x="863" 
d="M132 528l-97 21l5 61h308l5 -61l-98 -21v-175l137 20l168 159l-70 9l5 69h301l5 -63l-97 -15l-222 -192l252 -257l94 -22l-5 -61h-321l-5 61l79 13l-188 210l-133 -6v-196l98 -21l-5 -61h-308l-5 61l97 21v446zM355 -114q0 35 23.5 53t57.5 18q35 0 58 -18t23 -53
q0 -41 -22 -88.5t-54 -86.5l-55 19l27 89q-26 4 -42 19t-16 48z" />
    <glyph glyph-name="kcommaaccent" unicode="&#x137;" horiz-adv-x="677" 
d="M209 665l9 -6v-368l67 22l137 114l-53 13l5 60h246l5 -62l-77 -19l-177 -143l189 -191l85 -19l-6 -63l-153 -5l-206 224h-62v-151l71 -10l-5 -61h-254l-5 61l71 10v512l-69 9l-6 61zM333 -153q-23 3 -39 17.5t-16 45.5t21 48.5t55 17.5q35 0 55.5 -17.5t20.5 -48.5
q0 -25 -15 -63.5t-56 -99.5l-51 15z" />
    <glyph glyph-name="kgreenlandic" unicode="&#x138;" horiz-adv-x="677" 
d="M218 291l67 22l137 114l-53 13l5 60h246l5 -62l-77 -19l-177 -143l189 -191l85 -19l-6 -63l-153 -5l-206 224h-62v-151l71 -10l-5 -61h-254l-5 61l71 10v358l-71 10l5 61h244l5 -61l-61 -10v-138z" />
    <glyph glyph-name="Lacute" unicode="&#x139;" horiz-adv-x="727" 
d="M341 610l5 -61l-97 -21v-444h327l48 146l75 -7l-13 -223h-654l-5 61l99 21v446l-99 21l5 61h309zM350 820l-108 -158l-62 31l79 176z" />
    <glyph glyph-name="lacute" unicode="&#x13a;" horiz-adv-x="309" 
d="M209 665l9 -6v-588l71 -10l-5 -61h-254l-5 61l71 10v512l-69 9l-6 61zM203 898l86 -50l-111 -151l-62 38z" />
    <glyph glyph-name="Lcommaaccent" unicode="&#x13b;" horiz-adv-x="727" 
d="M341 610l5 -61l-97 -21v-444h327l48 146l75 -7l-13 -223h-654l-5 61l99 21v446l-99 21l5 61h309zM362 -161q-23 3 -39 17.5t-16 45.5t21 48.5t55 17.5q35 0 55.5 -17.5t20.5 -48.5q0 -25 -15 -63.5t-56 -99.5l-51 15z" />
    <glyph glyph-name="lcommaaccent" unicode="&#x13c;" horiz-adv-x="309" 
d="M209 665l9 -6v-588l71 -10l-5 -61h-254l-5 61l71 10v512l-69 9l-6 61zM131 -169q-23 3 -39 17.5t-16 45.5t21 48.5t55 17.5q35 0 55.5 -17.5t20.5 -48.5q0 -25 -15 -63.5t-56 -99.5l-51 15z" />
    <glyph glyph-name="Lcaron" unicode="&#x13d;" horiz-adv-x="727" 
d="M341 610l5 -61l-97 -21v-444h327l48 146l75 -7l-13 -223h-654l-5 61l99 21v446l-99 21l5 61h309zM421 511q0 35 23.5 53t57.5 18q35 0 58 -18t23 -53q0 -41 -22 -88.5t-54 -86.5l-55 19l27 89q-26 4 -42 19t-16 48z" />
    <glyph glyph-name="lcaron" unicode="&#x13e;" horiz-adv-x="439" 
d="M209 665l9 -6v-588l71 -10l-5 -61h-254l-5 61l71 10v512l-69 9l-6 61zM319 553q-23 3 -39 17.5t-16 45.5t21 48.5t55 17.5q35 0 55.5 -17.5t20.5 -48.5q0 -25 -15 -63.5t-56 -99.5l-51 15z" />
    <glyph glyph-name="Ldot" unicode="&#x13f;" horiz-adv-x="727" 
d="M341 610l5 -61l-97 -21v-444h327l48 146l75 -7l-13 -223h-654l-5 61l99 21v446l-99 21l5 61h309zM470 419q40 0 68 -20.5t28 -60.5t-28 -60.5t-68 -20.5t-68 20.5t-28 60.5t28 60.5t68 20.5z" />
    <glyph glyph-name="ldot" unicode="&#x140;" horiz-adv-x="433" 
d="M209 665l9 -6v-588l71 -10l-5 -61h-254l-5 61l71 10v512l-69 9l-6 61zM365 398q33 0 57 -19t24 -49t-24 -49t-57 -19q-32 0 -56 19t-24 49t24 49t56 19z" />
    <glyph glyph-name="Lslash" unicode="&#x141;" horiz-adv-x="727" 
d="M343 610l5 -61l-97 -21v-148l118 26l16 -71l-134 -32v-219h327l48 146l75 -7l-15 -223h-652l-5 61l99 21v190l-90 -21l-20 76l5 4l105 20v177l-99 21l5 61h309z" />
    <glyph glyph-name="lslash" unicode="&#x142;" horiz-adv-x="309" 
d="M209 665l9 -6v-264l60 23l25 -69l-85 -32v-246l71 -10l-5 -61h-254l-5 61l71 10v201l-51 -19l-30 68l5 5l76 25v232l-69 9l-6 61z" />
    <glyph glyph-name="Nacute" unicode="&#x143;" horiz-adv-x="859" 
d="M283 610l361 -442h9v361l-108 21l5 60h278l5 -60l-78 -21v-512l-107 -31l-431 514h-7l13 -214v-205l104 -20l-5 -61h-291l-5 61l93 20v448l-93 21l5 60h252zM560 820l-108 -158l-62 31l79 176z" />
    <glyph glyph-name="nacute" unicode="&#x144;" horiz-adv-x="748" 
d="M166 505l26 -60q40 37 95.5 56t119.5 19t111.5 -17t79 -48t47 -73t15.5 -93v-218l71 -10l-5 -61h-254l-5 61l72 10v228q0 64 -34.5 101t-117.5 37q-54 0 -95 -14t-74 -43v-309l71 -10l-5 -61h-254l-5 61l71 10v355l-66 4l-5 61zM440 756l86 -50l-111 -151l-62 38z" />
    <glyph glyph-name="Ncommaaccent" unicode="&#x145;" horiz-adv-x="859" 
d="M283 610l361 -442h9v361l-108 21l5 60h278l5 -60l-78 -21v-512l-107 -31l-431 514h-7l13 -214v-205l104 -20l-5 -61h-291l-5 61l93 20v448l-93 21l5 60h252zM380 -77q0 35 23.5 53t57.5 18q35 0 58 -18t23 -53q0 -41 -22 -88.5t-54 -86.5l-55 19l27 89q-26 4 -42 19
t-16 48z" />
    <glyph glyph-name="ncommaaccent" unicode="&#x146;" horiz-adv-x="748" 
d="M166 505l26 -60q40 37 95.5 56t119.5 19t111.5 -17t79 -48t47 -73t15.5 -93v-218l71 -10l-5 -61h-254l-5 61l72 10v228q0 64 -34.5 101t-117.5 37q-54 0 -95 -14t-74 -43v-309l71 -10l-5 -61h-254l-5 61l71 10v355l-66 4l-5 61zM345 -160q-23 3 -39 17.5t-16 45.5
t21 48.5t55 17.5q35 0 55.5 -17.5t20.5 -48.5q0 -25 -15 -63.5t-56 -99.5l-51 15z" />
    <glyph glyph-name="Ncaron" unicode="&#x147;" horiz-adv-x="859" 
d="M283 610l361 -442h9v361l-108 21l5 60h278l5 -60l-78 -21v-512l-107 -31l-431 514h-7l13 -214v-205l104 -20l-5 -61h-291l-5 61l93 20v448l-93 21l5 60h252zM287 840l139 -71l139 71l32 -53l-171 -133l-171 133z" />
    <glyph glyph-name="ncaron" unicode="&#x148;" horiz-adv-x="748" 
d="M166 505l26 -60q40 37 95.5 56t119.5 19t111.5 -17t79 -48t47 -73t15.5 -93v-218l71 -10l-5 -61h-254l-5 61l72 10v228q0 64 -34.5 101t-117.5 37q-54 0 -95 -14t-74 -43v-309l71 -10l-5 -61h-254l-5 61l71 10v355l-66 4l-5 61zM257 750l133 -83l136 83l36 -45l-165 -155
h-18l-158 155z" />
    <glyph glyph-name="napostrophe" unicode="&#x149;" horiz-adv-x="881" 
d="M304 505l26 -60q40 37 95.5 56t119.5 19t111.5 -17t79 -48t47 -73t15.5 -93v-218l71 -10l-5 -61h-254l-5 61l72 10v228q0 64 -34.5 101t-117.5 37q-54 0 -95 -14t-74 -43v-309l71 -10l-5 -61h-254l-5 61l71 10v355l-66 4l-5 61zM73 573q-23 3 -39 17.5t-16 45.5t21 48.5
t55 17.5q35 0 55.5 -17.5t20.5 -48.5q0 -25 -15 -63.5t-56 -99.5l-51 15z" />
    <glyph glyph-name="Eng" unicode="&#x14a;" horiz-adv-x="859" 
d="M283 610l361 -442h9v361l-108 21l5 60h278l5 -60l-78 -21v-466q0 -128 -48.5 -190.5t-151.5 -62.5q-26 0 -51.5 5t-53.5 16l8 58l91 4q45 7 70 27t31 65l-433 515h-7l13 -214v-205l104 -20l-5 -61h-291l-5 61l93 20v448l-93 21l5 60h252z" />
    <glyph glyph-name="eng" unicode="&#x14b;" horiz-adv-x="702" 
d="M166 505l26 -60q40 37 95.5 56t119.5 19t111.5 -17t79 -48t47 -73t15.5 -93v-218q0 -125 -54.5 -191t-156.5 -66q-26 0 -51.5 5t-53.5 16l8 58l91 4q28 9 46.5 20.5t29.5 30t15.5 46.5t4.5 70v235q0 64 -34.5 101t-117.5 37q-54 0 -95 -14t-74 -43v-309l71 -10l-5 -61
h-254l-5 61l71 10v355l-66 4l-5 61z" />
    <glyph glyph-name="Omacron" unicode="&#x14c;" 
d="M397 635q83 0 151 -24t116 -67.5t74 -104.5t26 -134q0 -74 -26 -134.5t-74 -104t-116 -67.5t-151 -24t-151 24t-116 67.5t-74 104t-26 134.5q0 73 26 134t74 104.5t116 67.5t151 24zM397 552q-114 0 -178.5 -64.5t-64.5 -182.5t64.5 -182.5t178.5 -64.5t178.5 64.5
t64.5 182.5t-64.5 182.5t-178.5 64.5zM215 775l124 -5h250v-80h-376l-5 82z" />
    <glyph glyph-name="omacron" unicode="&#x14d;" horiz-adv-x="688" 
d="M344 520q74 0 133 -21t100 -58t62.5 -86t21.5 -105t-21.5 -105.5t-62.5 -86t-100 -57.5t-133 -21t-133 21t-100 57.5t-62.5 86t-21.5 105.5t21.5 105t62.5 86t100 58t133 21zM344 440q-98 0 -146.5 -51.5t-48.5 -138.5q0 -88 48.5 -139t146.5 -51q97 0 145.5 51t48.5 139
q0 87 -48.5 138.5t-145.5 51.5zM167 644l109 -4h245v-73h-356l-4 74z" />
    <glyph glyph-name="Obreve" unicode="&#x14e;" 
d="M397 635q83 0 151 -24t116 -67.5t74 -104.5t26 -134q0 -74 -26 -134.5t-74 -104t-116 -67.5t-151 -24t-151 24t-116 67.5t-74 104t-26 134.5q0 73 26 134t74 104.5t116 67.5t151 24zM397 552q-114 0 -178.5 -64.5t-64.5 -182.5t64.5 -182.5t178.5 -64.5t178.5 64.5
t64.5 182.5t-64.5 182.5t-178.5 64.5zM299 822q14 -29 37.5 -42.5t61.5 -13.5t61.5 13.5t37.5 42.5l64 -19q-17 -60 -59 -92t-104 -32t-104 32t-59 92z" />
    <glyph glyph-name="obreve" unicode="&#x14f;" horiz-adv-x="688" 
d="M344 520q74 0 133 -21t100 -58t62.5 -86t21.5 -105t-21.5 -105.5t-62.5 -86t-100 -57.5t-133 -21t-133 21t-100 57.5t-62.5 86t-21.5 105.5t21.5 105t62.5 86t100 58t133 21zM344 440q-98 0 -146.5 -51.5t-48.5 -138.5q0 -88 48.5 -139t146.5 -51q97 0 145.5 51t48.5 139
q0 87 -48.5 138.5t-145.5 51.5zM252 693q11 -23 37 -35.5t54 -12.5q29 0 54.5 12.5t35.5 35.5l63 -18q-16 -58 -57 -87.5t-96 -29.5q-54 0 -96 29t-57 87z" />
    <glyph glyph-name="Ohungarumlaut" unicode="&#x150;" 
d="M397 635q83 0 151 -24t116 -67.5t74 -104.5t26 -134q0 -74 -26 -134.5t-74 -104t-116 -67.5t-151 -24t-151 24t-116 67.5t-74 104t-26 134.5q0 73 26 134t74 104.5t116 67.5t151 24zM397 552q-114 0 -178.5 -64.5t-64.5 -182.5t64.5 -182.5t178.5 -64.5t178.5 64.5
t64.5 182.5t-64.5 182.5t-178.5 64.5zM334 874l99 -38l-91 -170l-65 25zM504 874l89 -49l-118 -159l-65 36z" />
    <glyph glyph-name="ohungarumlaut" unicode="&#x151;" horiz-adv-x="688" 
d="M344 520q74 0 133 -21t100 -58t62.5 -86t21.5 -105t-21.5 -105.5t-62.5 -86t-100 -57.5t-133 -21t-133 21t-100 57.5t-62.5 86t-21.5 105.5t21.5 105t62.5 86t100 58t133 21zM344 440q-98 0 -146.5 -51.5t-48.5 -138.5q0 -88 48.5 -139t146.5 -51q97 0 145.5 51t48.5 139
q0 87 -48.5 138.5t-145.5 51.5zM285 756l94 -36l-86 -161l-62 24zM446 756l84 -46l-111 -151l-62 34z" />
    <glyph glyph-name="OE" unicode="&#x152;" horiz-adv-x="1193" 
d="M947 610l175 6l7 -4l-13 -204l-79 4l-9 113h-308v-156h164l31 73l62 -5v-241l-65 -5l-28 94h-164v-200h310l40 141l80 -7l-20 -219h-530v50q-41 -36 -96.5 -55.5t-126.5 -19.5q-80 0 -144 24t-109 67.5t-69.5 104t-24.5 134.5q0 73 24.5 134t69.5 104.5t109 67.5t144 24
q72 0 127.5 -20t95.5 -55v50h347zM377 554q-49 0 -90 -17t-70.5 -49t-46 -78t-16.5 -105t16.5 -105t46 -78t70.5 -49t90 -17t90 17t70.5 49t46 78t16.5 105t-16.5 105t-46 78t-70.5 49t-90 17z" />
    <glyph glyph-name="oe" unicode="&#x153;" horiz-adv-x="1115" 
d="M633 215q8 -76 49 -115.5t122 -39.5q35 0 61 3t47.5 9.5t42 18t44.5 28.5l43 -72q-27 -19 -53 -32t-54 -20.5t-60 -11t-71 -3.5q-79 0 -136.5 23.5t-94.5 65.5q-39 -42 -99 -65.5t-140 -23.5q-74 0 -131.5 21t-96.5 57.5t-59 86t-20 105.5t20 105t59 86t96.5 58t131.5 21
q81 0 141 -24.5t98 -66.5q38 42 97.5 66.5t140.5 24.5q135 0 206 -71t71 -194q0 -11 -1 -22.5t-4 -22.5l-6 -6h-247zM334 440q-49 0 -84 -13.5t-57.5 -38.5t-33 -60t-10.5 -78q0 -44 10.5 -79t33 -59.5t57.5 -38t84 -13.5q97 0 140.5 51.5t43.5 138.5q0 86 -43.5 138
t-140.5 52zM966 287q-4 82 -43.5 117.5t-111.5 35.5q-83 0 -125 -39t-53 -114h333z" />
    <glyph glyph-name="Racute" unicode="&#x154;" horiz-adv-x="864" 
d="M28 597q99 15 188.5 23t184.5 8q67 0 129 -9t108.5 -32t74.5 -63t28 -103q0 -80 -48 -121.5t-128 -57.5v-7q40 -10 60 -37l72 -101q9 -13 22 -18t25 -5q38 0 55 33l49 -28q-15 -51 -54.5 -75t-90.5 -24q-37 0 -71 18.5t-55 53.5l-77 125q-11 16 -28.5 26t-46.5 10
q-25 0 -46 1t-41.5 3t-40.5 5.5t-43 9.5v-150l97 -22l-5 -60h-313l-5 60l103 23v443l-98 9zM254 309q42 -8 82.5 -11.5t91.5 -3.5q43 0 77.5 6t59 21t37.5 40t13 62q0 40 -18.5 64t-48 37t-65.5 17.5t-72 4.5q-72 0 -157 -15v-222zM547 820l-108 -158l-62 31l79 176z" />
    <glyph glyph-name="racute" unicode="&#x155;" horiz-adv-x="586" 
d="M158 505l34 -60q40 37 85.5 56t109.5 19q62 0 106.5 -14t79.5 -43l-16 -195h-73l-17 131q-16 18 -44 28t-59 10q-51 0 -83 -14t-63 -43v-309l71 -10l-5 -61h-254l-5 61l71 10v355l-66 4l-5 61zM399 756l86 -50l-111 -151l-62 38z" />
    <glyph glyph-name="Rcommaaccent" unicode="&#x156;" horiz-adv-x="864" 
d="M28 597q99 15 188.5 23t184.5 8q67 0 129 -9t108.5 -32t74.5 -63t28 -103q0 -80 -48 -121.5t-128 -57.5v-7q40 -10 60 -37l72 -101q9 -13 22 -18t25 -5q38 0 55 33l49 -28q-15 -51 -54.5 -75t-90.5 -24q-37 0 -71 18.5t-55 53.5l-77 125q-11 16 -28.5 26t-46.5 10
q-25 0 -46 1t-41.5 3t-40.5 5.5t-43 9.5v-150l97 -22l-5 -60h-313l-5 60l103 23v443l-98 9zM254 309q42 -8 82.5 -11.5t91.5 -3.5q43 0 77.5 6t59 21t37.5 40t13 62q0 40 -18.5 64t-48 37t-65.5 17.5t-72 4.5q-72 0 -157 -15v-222zM373 -89q0 35 23.5 53t57.5 18
q35 0 58 -18t23 -53q0 -41 -22 -88.5t-54 -86.5l-55 19l27 89q-26 4 -42 19t-16 48z" />
    <glyph glyph-name="rcommaaccent" unicode="&#x157;" horiz-adv-x="586" 
d="M158 505l34 -60q40 37 85.5 56t109.5 19q62 0 106.5 -14t79.5 -43l-16 -195h-73l-17 131q-16 18 -44 28t-59 10q-51 0 -83 -14t-63 -43v-309l71 -10l-5 -61h-254l-5 61l71 10v355l-66 4l-5 61zM138 -159q-23 3 -39 17.5t-16 45.5t21 48.5t55 17.5q35 0 55.5 -17.5
t20.5 -48.5q0 -25 -15 -63.5t-56 -99.5l-51 15z" />
    <glyph glyph-name="Rcaron" unicode="&#x158;" horiz-adv-x="864" 
d="M28 597q99 15 188.5 23t184.5 8q67 0 129 -9t108.5 -32t74.5 -63t28 -103q0 -80 -48 -121.5t-128 -57.5v-7q40 -10 60 -37l72 -101q9 -13 22 -18t25 -5q38 0 55 33l49 -28q-15 -51 -54.5 -75t-90.5 -24q-37 0 -71 18.5t-55 53.5l-77 125q-11 16 -28.5 26t-46.5 10
q-25 0 -46 1t-41.5 3t-40.5 5.5t-43 9.5v-150l97 -22l-5 -60h-313l-5 60l103 23v443l-98 9zM254 309q42 -8 82.5 -11.5t91.5 -3.5q43 0 77.5 6t59 21t37.5 40t13 62q0 40 -18.5 64t-48 37t-65.5 17.5t-72 4.5q-72 0 -157 -15v-222zM270 842l139 -71l139 71l32 -53l-171 -133
l-171 133z" />
    <glyph glyph-name="rcaron" unicode="&#x159;" horiz-adv-x="586" 
d="M158 505l34 -60q40 37 85.5 56t109.5 19q62 0 106.5 -14t79.5 -43l-16 -195h-73l-17 131q-16 18 -44 28t-59 10q-51 0 -83 -14t-63 -43v-309l71 -10l-5 -61h-254l-5 61l71 10v355l-66 4l-5 61zM229 750l133 -83l136 83l36 -45l-165 -155h-18l-158 155z" />
    <glyph glyph-name="Sacute" unicode="&#x15a;" horiz-adv-x="725" 
d="M579 391l-28 102q-39 26 -89.5 41.5t-117.5 15.5q-88 0 -129.5 -21t-41.5 -66q0 -29 20 -46.5t55 -22.5l221 -32q48 -7 88.5 -20t69 -34t44.5 -51t16 -70q0 -63 -29 -104t-76.5 -65t-108.5 -33.5t-125 -9.5q-82 0 -160 17t-158 63l11 174l64 -1l22 -96q45 -32 98.5 -51.5
t131.5 -19.5q42 0 78.5 4t63 15t41.5 30t15 50q0 37 -24 58.5t-69 27.5l-230 33q-40 6 -74 18t-59.5 31.5t-40 47.5t-14.5 66q0 53 23 89.5t64.5 59.5t98 33.5t124.5 10.5q95 0 169 -19t127 -45l-10 -177zM510 820l-108 -158l-62 31l79 176z" />
    <glyph glyph-name="sacute" unicode="&#x15b;" horiz-adv-x="597" 
d="M457 317l-14 90q-32 16 -68 24t-79 8q-33 0 -60.5 -3t-48 -10t-32 -19t-11.5 -31q0 -17 10 -29.5t39 -17.5l211 -34q73 -12 119 -48.5t46 -103.5q0 -45 -19 -76t-54 -50.5t-85 -28t-112 -8.5q-75 0 -140 11t-125 38l5 150h69l15 -81q80 -37 176 -37q45 0 75.5 5t48.5 14
t25.5 21.5t7.5 28.5q0 51 -70 61l-203 32q-69 11 -107.5 47t-38.5 94q0 45 20 75t55 48t82.5 25.5t101.5 7.5q71 0 129.5 -11t109.5 -31l-10 -161h-68zM355 750l86 -50l-111 -151l-62 38z" />
    <glyph glyph-name="Scircumflex" unicode="&#x15c;" horiz-adv-x="725" 
d="M579 391l-28 102q-39 26 -89.5 41.5t-117.5 15.5q-88 0 -129.5 -21t-41.5 -66q0 -29 20 -46.5t55 -22.5l221 -32q48 -7 88.5 -20t69 -34t44.5 -51t16 -70q0 -63 -29 -104t-76.5 -65t-108.5 -33.5t-125 -9.5q-82 0 -160 17t-158 63l11 174l64 -1l22 -96q45 -32 98.5 -51.5
t131.5 -19.5q42 0 78.5 4t63 15t41.5 30t15 50q0 37 -24 58.5t-69 27.5l-230 33q-40 6 -74 18t-59.5 31.5t-40 47.5t-14.5 66q0 53 23 89.5t64.5 59.5t98 33.5t124.5 10.5q95 0 169 -19t127 -45l-10 -177zM202 727l171 133l171 -133l-32 -53l-139 71l-139 -71z" />
    <glyph glyph-name="scircumflex" unicode="&#x15d;" horiz-adv-x="597" 
d="M457 317l-14 90q-32 16 -68 24t-79 8q-33 0 -60.5 -3t-48 -10t-32 -19t-11.5 -31q0 -17 10 -29.5t39 -17.5l211 -34q73 -12 119 -48.5t46 -103.5q0 -45 -19 -76t-54 -50.5t-85 -28t-112 -8.5q-75 0 -140 11t-125 38l5 150h69l15 -81q80 -37 176 -37q45 0 75.5 5t48.5 14
t25.5 21.5t7.5 28.5q0 51 -70 61l-203 32q-69 11 -107.5 47t-38.5 94q0 45 20 75t55 48t82.5 25.5t101.5 7.5q71 0 129.5 -11t109.5 -31l-10 -161h-68zM444 546l-135 83l-136 -83l-34 45l165 144h16l160 -146z" />
    <glyph glyph-name="Scedilla" unicode="&#x15e;" horiz-adv-x="725" 
d="M591 391l-28 102q-39 26 -94.5 41.5t-122.5 15.5q-88 0 -129.5 -21t-41.5 -66q0 -29 20 -46.5t55 -22.5l231 -32q48 -7 88.5 -20t69 -34t44.5 -51t16 -70q0 -61 -28.5 -101t-75 -64.5t-106.5 -35t-122 -11.5l-26 -35q44 0 75 -23t31 -68q0 -52 -38.5 -85.5t-100.5 -33.5
q-29 0 -57.5 6t-49.5 20l17 48q20 -8 38 -10.5t34 -2.5q32 0 53.5 12.5t21.5 38.5q0 20 -13.5 29t-32.5 9q-26 0 -48 -7l-12 19l29 86q-66 5 -128.5 22t-127.5 55l11 174l64 -1l22 -96q45 -32 98.5 -51.5t131.5 -19.5q42 0 80 4t66.5 15t45 30t16.5 50q0 37 -24 58.5
t-69 27.5l-240 33q-40 6 -74 18t-59.5 31.5t-40 47.5t-14.5 66q0 53 23 89.5t64.5 59.5t98 33.5t124.5 10.5q95 0 174 -19t132 -45l-10 -177z" />
    <glyph glyph-name="scedilla" unicode="&#x15f;" horiz-adv-x="597" 
d="M457 317l-14 90q-32 16 -68 24t-79 8q-33 0 -60.5 -3t-48 -10t-32 -19t-11.5 -31q0 -17 10 -29.5t39 -17.5l211 -34q73 -12 119 -48.5t46 -103.5q0 -42 -16.5 -71.5t-47.5 -49t-75.5 -29.5t-99.5 -12l-19 -26q41 0 70 -21.5t29 -63.5q0 -48 -36 -79.5t-93 -31.5
q-28 0 -54 5.5t-46 19.5l16 44q18 -7 35 -9.5t32 -2.5q30 0 50 11.5t20 36.5q0 19 -13 27t-30 8q-14 0 -24 -1.5t-21 -4.5l-11 17l24 71q-63 2 -118.5 13.5t-106.5 34.5l5 150h69l15 -81q80 -37 176 -37q45 0 75.5 5t48.5 14t25.5 21.5t7.5 28.5q0 51 -70 61l-203 32
q-69 11 -107.5 47t-38.5 94q0 45 20 75t55 48t82.5 25.5t101.5 7.5q71 0 129.5 -11t109.5 -31l-10 -161h-68z" />
    <glyph glyph-name="Scaron" unicode="&#x160;" horiz-adv-x="725" 
d="M579 391l-28 102q-39 26 -89.5 41.5t-117.5 15.5q-88 0 -129.5 -21t-41.5 -66q0 -29 20 -46.5t55 -22.5l221 -32q48 -7 88.5 -20t69 -34t44.5 -51t16 -70q0 -63 -29 -104t-76.5 -65t-108.5 -33.5t-125 -9.5q-82 0 -160 17t-158 63l11 174l64 -1l22 -96q45 -32 98.5 -51.5
t131.5 -19.5q42 0 78.5 4t63 15t41.5 30t15 50q0 37 -24 58.5t-69 27.5l-230 33q-40 6 -74 18t-59.5 31.5t-40 47.5t-14.5 66q0 53 23 89.5t64.5 59.5t98 33.5t124.5 10.5q95 0 169 -19t127 -45l-10 -177zM228 853l139 -71l139 71l32 -53l-171 -133l-171 133z" />
    <glyph glyph-name="scaron" unicode="&#x161;" horiz-adv-x="597" 
d="M457 317l-14 90q-32 16 -68 24t-79 8q-33 0 -60.5 -3t-48 -10t-32 -19t-11.5 -31q0 -17 10 -29.5t39 -17.5l211 -34q73 -12 119 -48.5t46 -103.5q0 -45 -19 -76t-54 -50.5t-85 -28t-112 -8.5q-75 0 -140 11t-125 38l5 150h69l15 -81q80 -37 176 -37q45 0 75.5 5t48.5 14
t25.5 21.5t7.5 28.5q0 51 -70 61l-203 32q-69 11 -107.5 47t-38.5 94q0 45 20 75t55 48t82.5 25.5t101.5 7.5q71 0 129.5 -11t109.5 -31l-10 -161h-68zM175 750l133 -83l136 83l36 -45l-165 -155h-18l-158 155z" />
    <glyph glyph-name="Tcommaaccent" unicode="&#x162;" horiz-adv-x="769" 
d="M552 610l168 8l12 -3l11 -229l-70 -9l-39 152l-189 -4v-442l98 -22l-7 -61h-303l-7 61l99 22v442l-190 4l-38 -152l-71 9l11 229l12 3l130 -8h373zM303 -115q0 35 23.5 53t57.5 18q35 0 58 -18t23 -53q0 -41 -22 -88.5t-54 -86.5l-55 19l27 89q-26 4 -42 19t-16 48z" />
    <glyph glyph-name="tcommaaccent" unicode="&#x163;" horiz-adv-x="479" 
d="M96 500v99l104 65l16 -5v-159h211l7 -6l-10 -81l-208 6v-223q0 -39 7.5 -64.5t23 -40.5t38.5 -21t54 -6q58 0 104 23l31 -60q-29 -24 -71.5 -35.5t-93.5 -11.5q-109 0 -161 55t-52 162v226l-79 5l-7 6l19 66h67zM219 -175q-23 3 -39 17.5t-16 45.5t21 48.5t55 17.5
q35 0 55.5 -17.5t20.5 -48.5q0 -25 -15 -63.5t-56 -99.5l-51 15z" />
    <glyph glyph-name="Tcaron" unicode="&#x164;" horiz-adv-x="769" 
d="M552 610l168 8l12 -3l11 -229l-70 -9l-39 152l-189 -4v-442l98 -22l-7 -61h-303l-7 61l99 22v442l-190 4l-38 -152l-71 9l11 229l12 3l130 -8h373zM245 825l139 -71l139 71l32 -53l-171 -133l-171 133z" />
    <glyph glyph-name="tcaron" unicode="&#x165;" horiz-adv-x="606" 
d="M96 500v99l104 65l16 -5v-159h211l7 -6l-10 -81l-208 6v-223q0 -39 7.5 -64.5t23 -40.5t38.5 -21t54 -6q58 0 104 23l31 -60q-29 -24 -71.5 -35.5t-93.5 -11.5q-109 0 -161 55t-52 162v226l-79 5l-7 6l19 66h67zM494 551q-23 3 -39 17.5t-16 45.5t21 48.5t55 17.5
q35 0 55.5 -17.5t20.5 -48.5q0 -25 -15 -63.5t-56 -99.5l-51 15z" />
    <glyph glyph-name="Tbar" unicode="&#x166;" horiz-adv-x="769" 
d="M37 615l12 3l140 -8h373l158 8l12 -3l11 -229l-70 -9l-39 149l-189 -4v-174l130 -4v-73l-130 -3v-185l98 -22l-7 -61h-303l-7 61l99 22v185h-116l-5 82l7 3l114 -5v174l-190 4l-38 -149l-71 9z" />
    <glyph glyph-name="tbar" unicode="&#x167;" horiz-adv-x="479" 
d="M96 500v99l104 65l16 -5v-159h211l7 -6l-10 -81l-208 6v-102h50l109 4l6 -3l-4 -74h-161v-48q0 -39 7.5 -64.5t23 -40.5t38.5 -21t54 -6q58 0 104 23l31 -60q-29 -24 -71.5 -35.5t-93.5 -11.5q-109 0 -161 55t-52 162v47l-75 6l5 67h70v106l-79 5l-7 6l19 66h67z" />
    <glyph glyph-name="Utilde" unicode="&#x168;" horiz-adv-x="880" 
d="M351 610l5 -61l-97 -21v-284q0 -48 16 -83t43.5 -57.5t65 -33t80.5 -10.5q41 0 75 12t59 37t38.5 62.5t13.5 88.5v270l-94 19l5 61h273l5 -61l-85 -19v-260q0 -74 -24.5 -129.5t-65.5 -92.5t-96 -55t-115 -18q-69 0 -127 18t-100 54.5t-66 91.5t-24 129v260l-98 21l5 61
h308zM259 725q32 35 63.5 51t76.5 16q27 0 47 -6.5t37.5 -15t34.5 -15t37 -6.5q26 0 41.5 4.5t32.5 18.5l33 -45q-22 -29 -50 -42.5t-65 -13.5q-28 0 -48.5 6t-38.5 12.5t-36 12.5t-41 6q-41 0 -81 -34z" />
    <glyph glyph-name="utilde" unicode="&#x169;" horiz-adv-x="757" 
d="M592 0l-24 55q-40 -37 -95.5 -56t-119.5 -19t-111.5 17.5t-79 49t-47 74t-15.5 93.5v215l-71 10l5 61h254l5 -61l-72 -10v-225q0 -65 34.5 -103t117.5 -38q54 0 95 14t74 43v309l-71 10l5 61h254l5 -61l-71 -10v-350l71 -18l-5 -61h-138zM200 607q29 34 62 48.5t73 14.5
q22 0 38 -6t30 -13t28 -13t32 -6q23 0 36.5 4t29.5 16l29 -43q-20 -26 -50.5 -38t-60.5 -12q-22 0 -38.5 5t-31.5 11.5t-30.5 11.5t-36.5 5q-20 0 -37.5 -8t-34.5 -22z" />
    <glyph glyph-name="Umacron" unicode="&#x16a;" horiz-adv-x="880" 
d="M351 610l5 -61l-97 -21v-284q0 -48 16 -83t43.5 -57.5t65 -33t80.5 -10.5q41 0 75 12t59 37t38.5 62.5t13.5 88.5v270l-94 19l5 61h273l5 -61l-85 -19v-260q0 -74 -24.5 -129.5t-65.5 -92.5t-96 -55t-115 -18q-69 0 -127 18t-100 54.5t-66 91.5t-24 129v260l-98 21l5 61
h308zM272 766l124 -5h250v-80h-376l-5 82z" />
    <glyph glyph-name="umacron" unicode="&#x16b;" horiz-adv-x="757" 
d="M592 0l-24 55q-40 -37 -95.5 -56t-119.5 -19t-111.5 17.5t-79 49t-47 74t-15.5 93.5v215l-71 10l5 61h254l5 -61l-72 -10v-225q0 -65 34.5 -103t117.5 -38q54 0 95 14t74 43v309l-71 10l5 61h254l5 -61l-71 -10v-350l71 -18l-5 -61h-138zM217 644l109 -4h245v-73h-356
l-4 74z" />
    <glyph glyph-name="Ubreve" unicode="&#x16c;" horiz-adv-x="880" 
d="M351 610l5 -61l-97 -21v-284q0 -48 16 -83t43.5 -57.5t65 -33t80.5 -10.5q41 0 75 12t59 37t38.5 62.5t13.5 88.5v270l-94 19l5 61h273l5 -61l-85 -19v-260q0 -74 -24.5 -129.5t-65.5 -92.5t-96 -55t-115 -18q-69 0 -127 18t-100 54.5t-66 91.5t-24 129v260l-98 21l5 61
h308zM361 819q14 -29 37.5 -42.5t61.5 -13.5t61.5 13.5t37.5 42.5l64 -19q-17 -60 -59 -92t-104 -32t-104 32t-59 92z" />
    <glyph glyph-name="ubreve" unicode="&#x16d;" horiz-adv-x="757" 
d="M592 0l-24 55q-40 -37 -95.5 -56t-119.5 -19t-111.5 17.5t-79 49t-47 74t-15.5 93.5v215l-71 10l5 61h254l5 -61l-72 -10v-225q0 -65 34.5 -103t117.5 -38q54 0 95 14t74 43v309l-71 10l5 61h254l5 -61l-71 -10v-350l71 -18l-5 -61h-138zM297 693q11 -23 37 -35.5
t54 -12.5q29 0 54.5 12.5t35.5 35.5l63 -18q-16 -58 -57 -87.5t-96 -29.5q-54 0 -96 29t-57 87z" />
    <glyph glyph-name="Uring" unicode="&#x16e;" horiz-adv-x="880" 
d="M351 610l5 -61l-97 -21v-284q0 -48 16 -83t43.5 -57.5t65 -33t80.5 -10.5q41 0 75 12t59 37t38.5 62.5t13.5 88.5v270l-94 19l5 61h273l5 -61l-85 -19v-260q0 -74 -24.5 -129.5t-65.5 -92.5t-96 -55t-115 -18q-69 0 -127 18t-100 54.5t-66 91.5t-24 129v260l-98 21l5 61
h308zM459 858q53 0 88.5 -29.5t35.5 -79.5t-35.5 -79.5t-88.5 -29.5q-52 0 -87.5 29.5t-35.5 79.5t35.5 79.5t87.5 29.5zM459 802q-22 0 -37.5 -11.5t-15.5 -41.5t15.5 -42t37.5 -12q23 0 38.5 12t15.5 42t-15.5 41.5t-38.5 11.5z" />
    <glyph glyph-name="uring" unicode="&#x16f;" horiz-adv-x="757" 
d="M592 0l-24 55q-40 -37 -95.5 -56t-119.5 -19t-111.5 17.5t-79 49t-47 74t-15.5 93.5v215l-71 10l5 61h254l5 -61l-72 -10v-225q0 -65 34.5 -103t117.5 -38q54 0 95 14t74 43v309l-71 10l5 61h254l5 -61l-71 -10v-350l71 -18l-5 -61h-138zM378 763q50 0 84 -28t34 -76
t-34 -76t-84 -28t-84 28t-34 76t34 76t84 28zM378 710q-21 0 -36 -11t-15 -40t15 -40t36 -11t36 11t15 40t-15 40t-36 11z" />
    <glyph glyph-name="Uhungarumlaut" unicode="&#x170;" horiz-adv-x="880" 
d="M351 610l5 -61l-97 -21v-284q0 -48 16 -83t43.5 -57.5t65 -33t80.5 -10.5q41 0 75 12t59 37t38.5 62.5t13.5 88.5v270l-94 19l5 61h273l5 -61l-85 -19v-260q0 -74 -24.5 -129.5t-65.5 -92.5t-96 -55t-115 -18q-69 0 -127 18t-100 54.5t-66 91.5t-24 129v260l-98 21l5 61
h308zM399 874l99 -38l-91 -170l-65 25zM569 874l89 -49l-118 -159l-65 36z" />
    <glyph glyph-name="uhungarumlaut" unicode="&#x171;" horiz-adv-x="757" 
d="M592 0l-24 55q-40 -37 -95.5 -56t-119.5 -19t-111.5 17.5t-79 49t-47 74t-15.5 93.5v215l-71 10l5 61h254l5 -61l-72 -10v-225q0 -65 34.5 -103t117.5 -38q54 0 95 14t74 43v309l-71 10l5 61h254l5 -61l-71 -10v-350l71 -18l-5 -61h-138zM344 756l94 -36l-86 -161l-62 24
zM505 756l84 -46l-111 -151l-62 34z" />
    <glyph glyph-name="Uogonek" unicode="&#x172;" horiz-adv-x="880" 
d="M349 610l5 -61l-97 -21v-284q0 -48 16 -83t43.5 -57.5t65 -33t80.5 -10.5q41 0 75.5 13.5t59 40.5t38.5 66t14 90v260l-94 19l5 61h272l5 -61l-85 -19v-260q0 -71 -22 -124t-60 -90t-88 -57t-107 -23q-18 -22 -18 -53q0 -38 19 -51t42 -13q9 0 18.5 1t19.5 3l19 -44
q-23 -14 -45 -19.5t-53 -5.5q-21 0 -39.5 7.5t-33 21t-22.5 32.5t-8 43q0 42 37 79q-62 5 -112.5 25t-87.5 56t-57 88.5t-20 121.5v260l-98 21l5 61h308z" />
    <glyph glyph-name="uogonek" unicode="&#x173;" horiz-adv-x="757" 
d="M288 500l5 -61l-72 -10v-225q0 -65 34.5 -103t117.5 -38q54 0 95 14t74 43v309l-71 10l5 61h254l5 -61l-71 -10v-350l71 -18l-5 -61q-25 0 -40 -7t-23.5 -16.5t-11 -20.5t-2.5 -19q0 -31 17 -43t43 -12q13 0 28 3l17 -40q-17 -12 -37.5 -18t-42.5 -6q-42 0 -71 25.5
t-29 67.5q0 43 37 86h-23l-24 55q-40 -37 -95.5 -56t-119.5 -19t-111.5 17.5t-79 49t-47 74t-15.5 93.5v215l-71 10l5 61h254z" />
    <glyph glyph-name="Wcircumflex" unicode="&#x174;" horiz-adv-x="1298" 
d="M438 118l147 413l-91 18l5 61h313l5 -61l-86 -21l142 -410h7l185 411l-93 20l5 61h293l5 -61l-99 -20l-253 -513l-121 -35h-4l-155 431l-148 -396l-123 -35h-4l-257 550l-90 18l5 61h313l5 -61l-93 -20l180 -411h7zM485 711l171 133l171 -133l-32 -53l-139 71l-139 -71z
" />
    <glyph glyph-name="wcircumflex" unicode="&#x175;" horiz-adv-x="1102" 
d="M279 500l5 -61l-59 -8l163 -334h8l117 280l-24 53l-64 9l5 61h254l5 -61l-59 -8l120 -334h8l152 334l-65 8l4 61h229l4 -61l-64 -9l-218 -428l-108 -12l-127 277l-122 -265l-113 -12l-246 440l-64 9l5 61h254zM701 546l-135 83l-136 -83l-34 45l165 144h16l160 -146z" />
    <glyph glyph-name="Ycircumflex" unicode="&#x176;" horiz-adv-x="877" 
d="M360 610l5 -61l-87 -18l183 -254h9l172 249l-109 23l5 61h309l5 -61l-98 -21l-242 -335v-111l98 -21l-5 -61h-308l-5 61l98 21v113l-272 335l-93 19l5 61h330zM301 708l171 133l171 -133l-32 -53l-139 71l-139 -71z" />
    <glyph glyph-name="ycircumflex" unicode="&#x177;" horiz-adv-x="764" 
d="M317 500l5 -62l-81 -14l172 -321h11l148 321l-76 14l4 62h243l5 -62l-63 -14l-229 -464q-30 -62 -75 -92.5t-109 -30.5q-44 0 -74.5 13t-53.5 39l38 66q42 -20 75 -20q45 0 71.5 17t41.5 48l13 27l-69 18l-217 375l-77 18l4 62h293zM552 546l-135 83l-136 -83l-34 45
l165 144h16l160 -146z" />
    <glyph glyph-name="Ydieresis" unicode="&#x178;" horiz-adv-x="877" 
d="M360 610l5 -61l-87 -18l183 -254h9l172 249l-109 23l5 61h309l5 -61l-98 -21l-242 -335v-111l98 -21l-5 -61h-308l-5 61l98 21v113l-272 335l-93 19l5 61h330zM337 812q16 0 32 -5t29 -14.5t20.5 -23.5t7.5 -32t-7.5 -32t-20.5 -23.5t-29 -14.5t-32 -5q-17 0 -33 5
t-28.5 14.5t-20 23.5t-7.5 32t7.5 32t20 23.5t28.5 14.5t33 5zM595 812q16 0 32 -5t29 -14.5t20.5 -23.5t7.5 -32t-7.5 -32t-20.5 -23.5t-29 -14.5t-32 -5q-17 0 -33 5t-28.5 14.5t-20 23.5t-7.5 32t7.5 32t20 23.5t28.5 14.5t33 5z" />
    <glyph glyph-name="Zacute" unicode="&#x179;" horiz-adv-x="684" 
d="M91 373l-56 18l56 227h12l149 -8h209l174 6h9l10 -56l-455 -466l4 -8l152 4l176 -4l78 129l57 -11l-35 -204h-425l-166 -6h-8l-10 74l452 453l-3 6l-134 -3h-148zM491 820l-108 -158l-62 31l79 176z" />
    <glyph glyph-name="zacute" unicode="&#x17a;" horiz-adv-x="570" 
d="M65 505l137 -5h339l9 -42l-370 -381l1 -3l200 6h56l52 107l61 -9l-19 -178h-364l-135 -7l-4 3l-8 60l363 365l-1 3l-188 -4h-51l-42 -113l-69 11l21 186zM336 756l86 -50l-111 -151l-62 38z" />
    <glyph glyph-name="Zdotaccent" unicode="&#x17b;" horiz-adv-x="684" 
d="M91 373l-56 18l56 227h12l149 -8h209l174 6h9l10 -56l-455 -466l4 -8l152 4l176 -4l78 129l57 -11l-35 -204h-425l-166 -6h-8l-10 74l452 453l-3 6l-134 -3h-148zM361 811q16 0 32 -5t29 -14.5t20.5 -23.5t7.5 -32t-7.5 -32t-20.5 -23.5t-29 -14.5t-32 -5q-17 0 -33 5
t-28.5 14.5t-20 23.5t-7.5 32t7.5 32t20 23.5t28.5 14.5t33 5z" />
    <glyph glyph-name="zdotaccent" unicode="&#x17c;" horiz-adv-x="570" 
d="M65 505l137 -5h339l9 -42l-370 -381l1 -3l200 6h56l52 107l61 -9l-19 -178h-364l-135 -7l-4 3l-8 60l363 365l-1 3l-188 -4h-51l-42 -113l-69 11l21 186zM299 688q33 0 57 -19t24 -49t-24 -49t-57 -19q-32 0 -56 19t-24 49t24 49t56 19z" />
    <glyph glyph-name="Zcaron" unicode="&#x17d;" horiz-adv-x="684" 
d="M91 373l-56 18l56 227h12l149 -8h209l174 6h9l10 -56l-455 -466l4 -8l152 4l176 -4l78 129l57 -11l-35 -204h-425l-166 -6h-8l-10 74l452 453l-3 6l-134 -3h-148zM222 832l139 -71l139 71l32 -53l-171 -133l-171 133z" />
    <glyph glyph-name="zcaron" unicode="&#x17e;" horiz-adv-x="570" 
d="M65 505l137 -5h339l9 -42l-370 -381l1 -3l200 6h56l52 107l61 -9l-19 -178h-364l-135 -7l-4 3l-8 60l363 365l-1 3l-188 -4h-51l-42 -113l-69 11l21 186zM161 750l133 -83l136 83l36 -45l-165 -155h-18l-158 155z" />
    <glyph glyph-name="longs" unicode="&#x17f;" horiz-adv-x="340" 
d="M98 516q0 57 23 102.5t77 72.5q28 14 63.5 22t83.5 8q66 0 101.5 -20t35.5 -56q0 -35 -17 -53.5t-46 -18.5q-36 0 -55.5 18t-23.5 49q-12 3 -28 3q-22 0 -39.5 -7t-29.5 -23.5t-18.5 -44t-6.5 -68.5v-429l73 -9l-5 -62h-256l-5 62l73 9v445z" />
    <glyph glyph-name="florin" unicode="&#x192;" horiz-adv-x="484" 
d="M98 500v16q0 57 23 102.5t77 72.5q28 14 68.5 22t88.5 8q66 0 96.5 -20t30.5 -56q0 -35 -17 -53.5t-46 -18.5q-71 0 -79 62q-12 3 -28 3q-45 0 -69 -21t-25 -65v-52h192l6 -8l-9 -74l-189 3v-324q0 -60 -14 -105t-36.5 -78t-49.5 -55t-54 -36l-52 46q46 40 66 96.5
t20 118.5v333l-68 11l-5 72h73z" />
    <glyph glyph-name="AEacute" unicode="&#x1fc;" horiz-adv-x="1150" 
d="M376 616l173 -6h362l193 6h6l-15 -211l-78 8l-5 112h-320v-157h175l31 74l60 -5v-242l-61 -4l-30 93h-175v-198h320l39 137l74 -4l-19 -219h-629l-5 61l98 21v67h-297l-50 -69l81 -19l-5 -61h-282l-5 61l88 21l341 447l-89 19l14 68h10zM331 231h239v289h-23zM777 820
l-108 -158l-62 31l79 176z" />
    <glyph glyph-name="aeacute" unicode="&#x1fd;" horiz-adv-x="1039" 
d="M80 466q57 29 117 41.5t129 12.5q78 0 125 -19t76 -52q39 33 89 52t121 19q135 0 205 -71t70 -194q0 -11 -1 -22.5t-4 -22.5l-6 -6h-245l-197 11q8 -76 49 -115.5t122 -39.5q35 0 61 3t47.5 9.5t42 18t44.5 28.5l43 -72q-27 -19 -53 -32t-54 -20.5t-60 -11t-71 -3.5
q-79 0 -133 23t-92 68q-62 -53 -122 -72t-123 -19q-44 0 -86 7.5t-75 27t-53 51.5t-20 82q0 36 15.5 64.5t43.5 49t67 33.5t87 20q53 7 99.5 9.5t105.5 2.5v34q0 16 -6.5 30t-22 24.5t-42 16t-65.5 5.5q-45 0 -94.5 -10.5t-105.5 -35.5zM444 256q-58 0 -103 -3t-88 -10
q-54 -8 -78 -30t-24 -64q0 -36 29 -60.5t93 -24.5q54 0 93.5 14t77.5 49v129zM896 287q-4 82 -45.5 117.5t-113.5 35.5q-83 0 -125 -39t-53 -114h337zM598 756l86 -50l-111 -151l-62 38z" />
    <glyph glyph-name="Oslashacute" unicode="&#x1fe;" 
d="M687 519q37 -42 57 -96t20 -118q0 -74 -26 -134.5t-74 -104t-116 -67.5t-151 -24q-65 0 -119.5 14.5t-99.5 40.5l-62 -59l-57 57l55 54q-41 43 -62.5 99t-21.5 124q0 73 26 134t74 104.5t116 67.5t151 24q67 0 123.5 -15.5t101.5 -44.5l56 54h7l55 -59zM553 507
q-30 23 -69 35t-87 12q-114 0 -178.5 -65.5t-64.5 -183.5q0 -87 37 -149zM247 97q59 -41 150 -41q114 0 178.5 65.5t64.5 183.5q0 41 -8.5 75.5t-23.5 62.5zM550 820l-108 -158l-62 31l79 176z" />
    <glyph glyph-name="oslashacute" unicode="&#x1ff;" horiz-adv-x="688" 
d="M589 491l-1 -7l-27 -31q48 -37 74 -89.5t26 -113.5q0 -56 -21.5 -105.5t-62.5 -86t-100 -57.5t-133 -21q-42 0 -78 7t-68 19l-33 -42l-62 50l25 31q-49 37 -75 89.5t-26 115.5q0 56 21.5 105t62.5 86t100 58t133 21q80 0 144 -26l35 44zM432 425q-38 15 -88 15
q-98 0 -146.5 -51.5t-48.5 -138.5q0 -80 40 -129zM254 75q37 -15 90 -15q97 0 145.5 51t48.5 139q0 77 -40 128zM405 756l86 -50l-111 -151l-62 38z" />
    <glyph glyph-name="uni0200" unicode="&#x200;" horiz-adv-x="885" 
d="M508 628l269 -548l91 -19l-5 -61h-313l-5 61l93 20l-43 90h-327l-45 -90l94 -20l-5 -61h-292l-5 61l100 21l214 391l55 121l118 34h6zM308 253h249l-114 251h-10zM538 691l-65 -25l-91 170l99 38zM405 702l-65 -36l-118 159l89 49z" />
    <glyph glyph-name="uni0201" unicode="&#x201;" horiz-adv-x="695" 
d="M464 256q-58 0 -108 -3t-93 -10q-54 -8 -78 -30t-24 -64q0 -36 29 -60.5t93 -24.5q104 0 181 43v149zM90 466q57 29 117 41.5t129 12.5q65 0 112.5 -13t78 -37t45 -57.5t14.5 -73.5v-237q0 -16 7.5 -26t23.5 -10h45l5 -66q-21 -7 -38.5 -10t-37.5 -3q-44 0 -66.5 17
t-30.5 48q-41 -35 -98 -53.5t-126 -18.5q-44 0 -86 7.5t-75 27t-53 51.5t-20 82q0 36 15.5 64.5t43.5 49t67 33.5t87 20q54 8 104.5 10t110.5 2v34q0 33 -33.5 54.5t-112.5 21.5q-45 0 -94.5 -10.5t-105.5 -35.5zM436 583l-62 -24l-86 161l94 36zM310 593l-62 -34l-111 151
l84 46z" />
    <glyph glyph-name="uni0202" unicode="&#x202;" horiz-adv-x="885" 
d="M508 628l269 -548l91 -19l-5 -61h-313l-5 61l93 20l-43 90h-327l-45 -90l94 -20l-5 -61h-292l-5 61l100 21l214 391l55 121l118 34h6zM308 253h249l-114 251h-10zM271 708l171 133l171 -133l-32 -53l-139 71l-139 -71z" />
    <glyph glyph-name="uni0203" unicode="&#x203;" horiz-adv-x="695" 
d="M464 256q-58 0 -108 -3t-93 -10q-54 -8 -78 -30t-24 -64q0 -36 29 -60.5t93 -24.5q104 0 181 43v149zM90 466q57 29 117 41.5t129 12.5q65 0 112.5 -13t78 -37t45 -57.5t14.5 -73.5v-237q0 -16 7.5 -26t23.5 -10h45l5 -66q-21 -7 -38.5 -10t-37.5 -3q-44 0 -66.5 17
t-30.5 48q-41 -35 -98 -53.5t-126 -18.5q-44 0 -86 7.5t-75 27t-53 51.5t-20 82q0 36 15.5 64.5t43.5 49t67 33.5t87 20q54 8 104.5 10t110.5 2v34q0 33 -33.5 54.5t-112.5 21.5q-45 0 -94.5 -10.5t-105.5 -35.5zM466 546l-135 83l-136 -83l-34 45l165 144h16l160 -146z" />
    <glyph glyph-name="uni0204" unicode="&#x204;" horiz-adv-x="739" 
d="M497 610l175 6l7 -4l-13 -204l-79 4l-9 113h-328v-156h184l31 73l62 -5v-241l-65 -5l-28 94h-184v-200h330l40 141l80 -7l-20 -219h-645l-5 61l98 21v446l-98 21l5 61h462zM505 691l-65 -25l-91 170l99 38zM372 702l-65 -36l-118 159l89 49z" />
    <glyph glyph-name="uni0205" unicode="&#x205;" horiz-adv-x="653" 
d="M504 287q-4 82 -48.5 117.5t-116.5 35.5q-83 0 -130 -39t-58 -114h353zM358 204l-207 11q8 -76 54 -115.5t127 -39.5q35 0 62.5 3t51 9.5t45.5 18t46 28.5l43 -72q-54 -38 -112 -52.5t-136 -14.5q-73 0 -130 21t-96 58t-59 86t-20 105t21 105.5t61 86t98 57.5t132 21
q67 0 120.5 -18.5t90.5 -52.5t56.5 -83.5t19.5 -110.5q0 -11 -1 -22.5t-4 -22.5l-6 -6h-257zM433 583l-62 -24l-86 161l94 36zM307 593l-62 -34l-111 151l84 46z" />
    <glyph glyph-name="uni0206" unicode="&#x206;" horiz-adv-x="739" 
d="M497 610l175 6l7 -4l-13 -204l-79 4l-9 113h-328v-156h184l31 73l62 -5v-241l-65 -5l-28 94h-184v-200h330l40 141l80 -7l-20 -219h-645l-5 61l98 21v446l-98 21l5 61h462zM222 708l171 133l171 -133l-32 -53l-139 71l-139 -71z" />
    <glyph glyph-name="uni0207" unicode="&#x207;" horiz-adv-x="653" 
d="M504 287q-4 82 -48.5 117.5t-116.5 35.5q-83 0 -130 -39t-58 -114h353zM358 204l-207 11q8 -76 54 -115.5t127 -39.5q35 0 62.5 3t51 9.5t45.5 18t46 28.5l43 -72q-54 -38 -112 -52.5t-136 -14.5q-73 0 -130 21t-96 58t-59 86t-20 105t21 105.5t61 86t98 57.5t132 21
q67 0 120.5 -18.5t90.5 -52.5t56.5 -83.5t19.5 -110.5q0 -11 -1 -22.5t-4 -22.5l-6 -6h-257zM474 546l-135 83l-136 -83l-34 45l165 144h16l160 -146z" />
    <glyph glyph-name="uni0208" unicode="&#x208;" horiz-adv-x="380" 
d="M345 610l5 -61l-99 -21v-445l99 -22l-5 -61h-310l-5 61l98 22v445l-98 21l5 61h310zM302 691l-65 -25l-91 170l99 38zM169 702l-65 -36l-118 159l89 49z" />
    <glyph glyph-name="uni0209" unicode="&#x209;" horiz-adv-x="314" 
d="M211 504l8 -7v-426l71 -10l-4 -61h-256l-5 61l72 10v357l-62 6l-5 60zM256 583l-62 -24l-86 161l94 36zM130 593l-62 -34l-111 151l84 46z" />
    <glyph glyph-name="uni020A" unicode="&#x20a;" horiz-adv-x="380" 
d="M345 610l5 -61l-99 -21v-445l99 -22l-5 -61h-310l-5 61l98 22v445l-98 21l5 61h310zM20 708l171 133l171 -133l-32 -53l-139 71l-139 -71z" />
    <glyph glyph-name="uni020B" unicode="&#x20b;" horiz-adv-x="314" 
d="M211 504l8 -7v-426l71 -10l-4 -61h-256l-5 61l72 10v357l-62 6l-5 60zM293 546l-135 83l-136 -83l-34 45l165 144h16l160 -146z" />
    <glyph glyph-name="uni020C" unicode="&#x20c;" 
d="M397 635q83 0 151 -24t116 -67.5t74 -104.5t26 -134q0 -74 -26 -134.5t-74 -104t-116 -67.5t-151 -24t-151 24t-116 67.5t-74 104t-26 134.5q0 73 26 134t74 104.5t116 67.5t151 24zM397 552q-114 0 -178.5 -64.5t-64.5 -182.5t64.5 -182.5t178.5 -64.5t178.5 64.5
t64.5 182.5t-64.5 182.5t-178.5 64.5zM494 691l-65 -25l-91 170l99 38zM361 702l-65 -36l-118 159l89 49z" />
    <glyph glyph-name="uni020D" unicode="&#x20d;" horiz-adv-x="688" 
d="M344 520q74 0 133 -21t100 -58t62.5 -86t21.5 -105t-21.5 -105.5t-62.5 -86t-100 -57.5t-133 -21t-133 21t-100 57.5t-62.5 86t-21.5 105.5t21.5 105t62.5 86t100 58t133 21zM344 440q-98 0 -146.5 -51.5t-48.5 -138.5q0 -88 48.5 -139t146.5 -51q97 0 145.5 51t48.5 139
q0 87 -48.5 138.5t-145.5 51.5zM443 583l-62 -24l-86 161l94 36zM317 593l-62 -34l-111 151l84 46z" />
    <glyph glyph-name="uni020E" unicode="&#x20e;" 
d="M397 635q83 0 151 -24t116 -67.5t74 -104.5t26 -134q0 -74 -26 -134.5t-74 -104t-116 -67.5t-151 -24t-151 24t-116 67.5t-74 104t-26 134.5q0 73 26 134t74 104.5t116 67.5t151 24zM397 552q-114 0 -178.5 -64.5t-64.5 -182.5t64.5 -182.5t178.5 -64.5t178.5 64.5
t64.5 182.5t-64.5 182.5t-178.5 64.5zM227 708l171 133l171 -133l-32 -53l-139 71l-139 -71z" />
    <glyph glyph-name="uni020F" unicode="&#x20f;" horiz-adv-x="688" 
d="M344 520q74 0 133 -21t100 -58t62.5 -86t21.5 -105t-21.5 -105.5t-62.5 -86t-100 -57.5t-133 -21t-133 21t-100 57.5t-62.5 86t-21.5 105.5t21.5 105t62.5 86t100 58t133 21zM344 440q-98 0 -146.5 -51.5t-48.5 -138.5q0 -88 48.5 -139t146.5 -51q97 0 145.5 51t48.5 139
q0 87 -48.5 138.5t-145.5 51.5zM478 546l-135 83l-136 -83l-34 45l165 144h16l160 -146z" />
    <glyph glyph-name="uni0210" unicode="&#x210;" horiz-adv-x="864" 
d="M28 597q99 15 188.5 23t184.5 8q67 0 129 -9t108.5 -32t74.5 -63t28 -103q0 -80 -48 -121.5t-128 -57.5v-7q40 -10 60 -37l72 -101q9 -13 22 -18t25 -5q38 0 55 33l49 -28q-15 -51 -54.5 -75t-90.5 -24q-37 0 -71 18.5t-55 53.5l-77 125q-11 16 -28.5 26t-46.5 10
q-25 0 -46 1t-41.5 3t-40.5 5.5t-43 9.5v-150l97 -22l-5 -60h-313l-5 60l103 23v443l-98 9zM254 309q42 -8 82.5 -11.5t91.5 -3.5q43 0 77.5 6t59 21t37.5 40t13 62q0 40 -18.5 64t-48 37t-65.5 17.5t-72 4.5q-72 0 -157 -15v-222zM518 691l-65 -25l-91 170l99 38zM385 702
l-65 -36l-118 159l89 49z" />
    <glyph glyph-name="uni0211" unicode="&#x211;" horiz-adv-x="591" 
d="M158 505l34 -60q40 37 85.5 56t109.5 19q62 0 106.5 -14t79.5 -43l-16 -195h-73l-17 131q-16 18 -44 28t-59 10q-51 0 -83 -14t-63 -43v-309l71 -10l-5 -61h-254l-5 61l71 10v355l-66 4l-5 61zM453 583l-62 -24l-86 161l94 36zM327 593l-62 -34l-111 151l84 46z" />
    <glyph glyph-name="uni0212" unicode="&#x212;" horiz-adv-x="864" 
d="M28 597q99 15 188.5 23t184.5 8q67 0 129 -9t108.5 -32t74.5 -63t28 -103q0 -80 -48 -121.5t-128 -57.5v-7q40 -10 60 -37l72 -101q9 -13 22 -18t25 -5q38 0 55 33l49 -28q-15 -51 -54.5 -75t-90.5 -24q-37 0 -71 18.5t-55 53.5l-77 125q-11 16 -28.5 26t-46.5 10
q-25 0 -46 1t-41.5 3t-40.5 5.5t-43 9.5v-150l97 -22l-5 -60h-313l-5 60l103 23v443l-98 9zM254 309q42 -8 82.5 -11.5t91.5 -3.5q43 0 77.5 6t59 21t37.5 40t13 62q0 40 -18.5 64t-48 37t-65.5 17.5t-72 4.5q-72 0 -157 -15v-222zM239 708l171 133l171 -133l-32 -53
l-139 71l-139 -71z" />
    <glyph glyph-name="uni0213" unicode="&#x213;" horiz-adv-x="591" 
d="M158 505l34 -60q40 37 85.5 56t109.5 19q62 0 106.5 -14t79.5 -43l-16 -195h-73l-17 131q-16 18 -44 28t-59 10q-51 0 -83 -14t-63 -43v-309l71 -10l-5 -61h-254l-5 61l71 10v355l-66 4l-5 61zM496 546l-135 83l-136 -83l-34 45l165 144h16l160 -146z" />
    <glyph glyph-name="uni0214" unicode="&#x214;" horiz-adv-x="880" 
d="M351 610l5 -61l-97 -21v-284q0 -48 16 -83t43.5 -57.5t65 -33t80.5 -10.5q41 0 75 12t59 37t38.5 62.5t13.5 88.5v270l-94 19l5 61h273l5 -61l-85 -19v-260q0 -74 -24.5 -129.5t-65.5 -92.5t-96 -55t-115 -18q-69 0 -127 18t-100 54.5t-66 91.5t-24 129v260l-98 21l5 61
h308zM563 691l-65 -25l-91 170l99 38zM430 702l-65 -36l-118 159l89 49z" />
    <glyph glyph-name="uni0215" unicode="&#x215;" horiz-adv-x="757" 
d="M592 0l-24 55q-40 -37 -95.5 -56t-119.5 -19t-111.5 17.5t-79 49t-47 74t-15.5 93.5v215l-71 10l5 61h254l5 -61l-72 -10v-225q0 -65 34.5 -103t117.5 -38q54 0 95 14t74 43v309l-71 10l5 61h254l5 -61l-71 -10v-350l71 -18l-5 -61h-138zM481 583l-62 -24l-86 161l94 36z
M355 593l-62 -34l-111 151l84 46z" />
    <glyph glyph-name="uni0216" unicode="&#x216;" horiz-adv-x="880" 
d="M351 610l5 -61l-97 -21v-284q0 -48 16 -83t43.5 -57.5t65 -33t80.5 -10.5q41 0 75 12t59 37t38.5 62.5t13.5 88.5v270l-94 19l5 61h273l5 -61l-85 -19v-260q0 -74 -24.5 -129.5t-65.5 -92.5t-96 -55t-115 -18q-69 0 -127 18t-100 54.5t-66 91.5t-24 129v260l-98 21l5 61
h308zM286 708l171 133l171 -133l-32 -53l-139 71l-139 -71z" />
    <glyph glyph-name="uni0217" unicode="&#x217;" horiz-adv-x="757" 
d="M592 0l-24 55q-40 -37 -95.5 -56t-119.5 -19t-111.5 17.5t-79 49t-47 74t-15.5 93.5v215l-71 10l5 61h254l5 -61l-72 -10v-225q0 -65 34.5 -103t117.5 -38q54 0 95 14t74 43v309l-71 10l5 61h254l5 -61l-71 -10v-350l71 -18l-5 -61h-138zM514 546l-135 83l-136 -83
l-34 45l165 144h16l160 -146z" />
    <glyph glyph-name="Scommaaccent" unicode="&#x218;" horiz-adv-x="725" 
d="M579 391l-28 102q-39 26 -89.5 41.5t-117.5 15.5q-88 0 -129.5 -21t-41.5 -66q0 -29 20 -46.5t55 -22.5l221 -32q48 -7 88.5 -20t69 -34t44.5 -51t16 -70q0 -63 -29 -104t-76.5 -65t-108.5 -33.5t-125 -9.5q-82 0 -160 17t-158 63l11 174l64 -1l22 -96q45 -32 98.5 -51.5
t131.5 -19.5q42 0 78.5 4t63 15t41.5 30t15 50q0 37 -24 58.5t-69 27.5l-230 33q-40 6 -74 18t-59.5 31.5t-40 47.5t-14.5 66q0 53 23 89.5t64.5 59.5t98 33.5t124.5 10.5q95 0 169 -19t127 -45l-10 -177zM290 -124q0 35 23.5 53t57.5 18q35 0 58 -18t23 -53
q0 -41 -22 -88.5t-54 -86.5l-55 19l27 89q-26 4 -42 19t-16 48z" />
    <glyph glyph-name="scommaaccent" unicode="&#x219;" horiz-adv-x="597" 
d="M457 317l-14 90q-32 16 -68 24t-79 8q-33 0 -60.5 -3t-48 -10t-32 -19t-11.5 -31q0 -17 10 -29.5t39 -17.5l211 -34q73 -12 119 -48.5t46 -103.5q0 -45 -19 -76t-54 -50.5t-85 -28t-112 -8.5q-75 0 -140 11t-125 38l5 150h69l15 -81q80 -37 176 -37q45 0 75.5 5t48.5 14
t25.5 21.5t7.5 28.5q0 51 -70 61l-203 32q-69 11 -107.5 47t-38.5 94q0 45 20 75t55 48t82.5 25.5t101.5 7.5q71 0 129.5 -11t109.5 -31l-10 -161h-68zM278 -176q-23 3 -39 17.5t-16 45.5t21 48.5t55 17.5q35 0 55.5 -17.5t20.5 -48.5q0 -25 -15 -63.5t-56 -99.5l-51 15z
" />
    <glyph glyph-name="uni021A" unicode="&#x21a;" horiz-adv-x="769" 
d="M552 610l168 8l12 -3l11 -229l-70 -9l-39 152l-189 -4v-442l98 -22l-7 -61h-303l-7 61l99 22v442l-190 4l-38 -152l-71 9l11 229l12 3l130 -8h373zM360 -165q-23 3 -39 17.5t-16 45.5t21 48.5t55 17.5q35 0 55.5 -17.5t20.5 -48.5q0 -25 -15 -63.5t-56 -99.5l-51 15z" />
    <glyph glyph-name="uni021B" unicode="&#x21b;" horiz-adv-x="479" 
d="M96 500v99l104 65l16 -5v-159h211l7 -6l-10 -81l-208 6v-223q0 -39 7.5 -64.5t23 -40.5t38.5 -21t54 -6q58 0 104 23l31 -60q-29 -24 -71.5 -35.5t-93.5 -11.5q-109 0 -161 55t-52 162v226l-79 5l-7 6l19 66h67zM258 -198q-23 3 -39 17.5t-16 45.5t21 48.5t55 17.5
q35 0 55.5 -17.5t20.5 -48.5q0 -25 -15 -63.5t-56 -99.5l-51 15z" />
    <glyph glyph-name="dotlessj" unicode="&#x237;" horiz-adv-x="268" 
d="M211 504l8 -7v-420q0 -128 -54 -195.5t-157 -67.5q-26 0 -51.5 5t-53.5 16l8 58l91 4q28 9 46 20.5t29 30t15.5 46.5t4.5 70v364l-62 6l-5 60z" />
    <glyph glyph-name="circumflex" unicode="&#x2c6;" horiz-adv-x="454" 
d="M358 546l-135 83l-136 -83l-34 45l165 144h16l160 -146z" />
    <glyph glyph-name="caron" unicode="&#x2c7;" horiz-adv-x="454" 
d="M89 750l133 -83l136 83l36 -45l-165 -155h-18l-158 155z" />
    <glyph glyph-name="breve" unicode="&#x2d8;" horiz-adv-x="330" 
d="M76 693q11 -23 37 -35.5t54 -12.5q29 0 54.5 12.5t35.5 35.5l63 -18q-16 -58 -57 -87.5t-96 -29.5q-54 0 -96 29t-57 87z" />
    <glyph glyph-name="dotaccent" unicode="&#x2d9;" horiz-adv-x="241" 
d="M120 688q33 0 57 -19t24 -49t-24 -49t-57 -19q-32 0 -56 19t-24 49t24 49t56 19z" />
    <glyph glyph-name="ring" unicode="&#x2da;" horiz-adv-x="326" 
d="M163 763q50 0 84 -28t34 -76t-34 -76t-84 -28t-84 28t-34 76t34 76t84 28zM163 710q-21 0 -36 -11t-15 -40t15 -40t36 -11t36 11t15 40t-15 40t-36 11z" />
    <glyph glyph-name="ogonek" unicode="&#x2db;" horiz-adv-x="231" 
d="M147 54q-17 -24 -27 -42t-14.5 -32t-5.5 -24.5t-1 -18.5q0 -31 17 -43t43 -12q13 0 28 3l17 -40q-17 -12 -37.5 -18t-42.5 -6q-42 0 -71 25.5t-29 67.5q0 35 22 66.5t64 63.5z" />
    <glyph glyph-name="tilde" unicode="&#x2dc;" horiz-adv-x="427" 
d="M25 607q29 34 62 48.5t73 14.5q22 0 38 -6t30 -13t28 -13t32 -6q23 0 36.5 4t29.5 16l29 -43q-20 -26 -50.5 -38t-60.5 -12q-22 0 -38.5 5t-31.5 11.5t-30.5 11.5t-36.5 5q-20 0 -37.5 -8t-34.5 -22z" />
    <glyph glyph-name="hungarumlaut" unicode="&#x2dd;" horiz-adv-x="353" 
d="M81 756l94 -36l-86 -161l-62 24zM242 756l84 -46l-111 -151l-62 34z" />
    <glyph glyph-name="uni0400" unicode="&#x400;" horiz-adv-x="739" 
d="M497 610l175 6l7 -4l-13 -204l-79 4l-9 113h-328v-156h184l31 73l62 -5v-241l-65 -5l-28 94h-184v-200h330l40 141l80 -7l-20 -219h-645l-5 61l98 21v446l-98 21l5 61h462zM369 869l79 -176l-62 -31l-108 158z" />
    <glyph glyph-name="afii10023" unicode="&#x401;" horiz-adv-x="739" 
d="M497 610l175 6l7 -4l-13 -204l-79 4l-9 113h-328v-156h184l31 73l62 -5v-241l-65 -5l-28 94h-184v-200h330l40 141l80 -7l-20 -219h-645l-5 61l98 21v446l-98 21l5 61h462zM255 817q16 0 32 -5t29 -14.5t20.5 -23.5t7.5 -32t-7.5 -32t-20.5 -23.5t-29 -14.5t-32 -5
q-17 0 -33 5t-28.5 14.5t-20 23.5t-7.5 32t7.5 32t20 23.5t28.5 14.5t33 5zM513 817q16 0 32 -5t29 -14.5t20.5 -23.5t7.5 -32t-7.5 -32t-20.5 -23.5t-29 -14.5t-32 -5q-17 0 -33 5t-28.5 14.5t-20 23.5t-7.5 32t7.5 32t20 23.5t28.5 14.5t33 5z" />
    <glyph glyph-name="afii10051" unicode="&#x402;" horiz-adv-x="916" 
d="M58 616l159 -6h350l164 7h11l-11 -101l-9 -5l-277 12v-126q32 20 78 30.5t92 10.5q67 0 116 -17t80.5 -48.5t46.5 -76.5t15 -100v-99q0 -60 -12.5 -105t-35.5 -78t-54.5 -55t-69.5 -36l-42 46q30 19 49 42t29.5 50t14 57.5t3.5 65.5v112q0 76 -35.5 116.5t-124.5 40.5
q-47 0 -81 -8.5t-69 -26.5v-235l98 -22l-5 -61h-307l-5 61l99 22v438l-182 7l-36 -147l-72 5l12 230h11z" />
    <glyph glyph-name="afii10052" unicode="&#x403;" horiz-adv-x="706" 
d="M477 610l186 7h11l12 -242l-81 -5l-42 157l-150 -5h-166v-440l99 -20l-5 -62h-307l-5 62l97 20v446l-97 20l5 62h443zM507 820l-108 -158l-62 31l79 176z" />
    <glyph glyph-name="afii10053" unicode="&#x404;" horiz-adv-x="733" 
d="M683 387h-80l-26 120q-33 25 -76.5 36.5t-88.5 11.5q-51 0 -95 -13.5t-77.5 -39.5t-55 -64t-27.5 -88l320 8l5 -9l-9 -86l-316 8q6 -51 27 -91.5t54.5 -68t77.5 -42t96 -14.5q45 0 88.5 11.5t76.5 36.5l26 97l80 -5v-166q-66 -29 -136 -41.5t-145 -12.5q-87 0 -156 26
t-117 71t-73.5 106t-25.5 131t25.5 129.5t73.5 103t117 68.5t156 25q75 0 145 -13.5t136 -44.5v-190z" />
    <glyph glyph-name="afii10054" unicode="&#x405;" horiz-adv-x="725" 
d="M579 391l-28 102q-39 26 -89.5 41.5t-117.5 15.5q-88 0 -129.5 -21t-41.5 -66q0 -29 20 -46.5t55 -22.5l221 -32q48 -7 88.5 -20t69 -34t44.5 -51t16 -70q0 -63 -29 -104t-76.5 -65t-108.5 -33.5t-125 -9.5q-82 0 -160 17t-158 63l11 174l64 -1l22 -96q45 -32 98.5 -51.5
t131.5 -19.5q42 0 78.5 4t63 15t41.5 30t15 50q0 37 -24 58.5t-69 27.5l-230 33q-40 6 -74 18t-59.5 31.5t-40 47.5t-14.5 66q0 53 23 89.5t64.5 59.5t98 33.5t124.5 10.5q95 0 169 -19t127 -45l-10 -177z" />
    <glyph glyph-name="afii10055" unicode="&#x406;" horiz-adv-x="380" 
d="M345 610l5 -61l-99 -21v-445l99 -22l-5 -61h-310l-5 61l98 22v445l-98 21l5 61h310z" />
    <glyph glyph-name="afii10056" unicode="&#x407;" horiz-adv-x="380" 
d="M345 610l5 -61l-99 -21v-445l99 -22l-5 -61h-310l-5 61l98 22v445l-98 21l5 61h310zM62 817q16 0 32 -5t29 -14.5t20.5 -23.5t7.5 -32t-7.5 -32t-20.5 -23.5t-29 -14.5t-32 -5q-17 0 -33 5t-28.5 14.5t-20 23.5t-7.5 32t7.5 32t20 23.5t28.5 14.5t33 5zM320 817
q16 0 32 -5t29 -14.5t20.5 -23.5t7.5 -32t-7.5 -32t-20.5 -23.5t-29 -14.5t-32 -5q-17 0 -33 5t-28.5 14.5t-20 23.5t-7.5 32t7.5 32t20 23.5t28.5 14.5t33 5z" />
    <glyph glyph-name="afii10057" unicode="&#x408;" horiz-adv-x="637" 
d="M606 610l5 -61l-86 -21v-249q0 -79 -20.5 -139.5t-65.5 -100.5q-35 -31 -84.5 -47.5t-116.5 -16.5q-57 0 -107 8.5t-104 28.5l7 190l75 4l29 -128q20 -9 42.5 -14.5t47.5 -5.5q78 0 121 40q54 50 54 164v266l-106 21l5 61h304z" />
    <glyph glyph-name="afii10058" unicode="&#x409;" horiz-adv-x="1254" 
d="M215 617l151 -7h485l5 -60l-97 -22v-142q25 7 46.5 12.5t43 9t44.5 5t51 1.5q58 0 107 -13t85 -39t56 -64.5t20 -90.5q0 -66 -27 -109.5t-72 -69t-104 -36t-123 -10.5q-47 0 -89.5 2t-84.5 5.5t-86 9.5t-93 14l5 62l98 9v440h-241q0 -74 -2 -132.5t-6 -103.5t-8.5 -78.5
t-10.5 -58.5q-19 -82 -70 -125t-139 -43q-30 0 -56.5 5t-46.5 16.5t-31.5 30.5t-11.5 47q0 44 23 65t58 21q36 0 59 -20t23 -68q5 -2 9 -2h8q14 0 24.5 6t19.5 16q12 14 20.5 33.5t13.5 40.5t8 41t5 35q12 100 12 279l-93 20l5 68h7zM759 77q40 -8 70.5 -11.5t66.5 -3.5
q39 0 74.5 7t62 23.5t42 43t15.5 66.5q0 37 -11.5 62t-34 40t-55.5 21t-76 6q-25 0 -45 -1.5t-37.5 -4.5t-34.5 -7.5t-37 -10.5v-230z" />
    <glyph glyph-name="afii10059" unicode="&#x40a;" horiz-adv-x="1215" 
d="M351 610l5 -61l-98 -21v-175h341v174l-103 23l5 60h313l5 -60l-97 -22v-142q25 7 46.5 12.5t43 9t44.5 5t51 1.5q58 0 107 -13t85 -39t56 -64.5t20 -90.5q0 -66 -27 -109.5t-72 -69t-104 -36t-123 -10.5q-47 0 -89.5 2t-84.5 5.5t-86 9.5t-93 14l5 62l98 9v184h-341v-186
l98 -21l-5 -61h-308l-5 61l98 21v446l-98 21l5 61h308zM722 77q40 -8 70.5 -11.5t66.5 -3.5q39 0 74.5 7t62 23.5t42 43t15.5 66.5q0 37 -11.5 62t-34 40t-55.5 21t-76 6q-48 0 -82.5 -5.5t-71.5 -18.5v-230z" />
    <glyph glyph-name="afii10060" unicode="&#x40b;" horiz-adv-x="978" 
d="M49 616l159 -6h350l164 7h11l-11 -101l-9 -5l-277 12v-126q32 20 78 30.5t92 10.5q134 0 197 -65.5t63 -176.5v-115l78 -20l-5 -61h-287l-5 61l99 20v115q0 76 -35.5 116.5t-124.5 40.5q-47 0 -81 -8.5t-69 -26.5v-235l98 -22l-5 -61h-307l-5 61l99 22v438l-182 7
l-36 -147l-72 5l12 230h11z" />
    <glyph glyph-name="afii10061" unicode="&#x40c;" horiz-adv-x="818" 
d="M343 610l5 -60l-98 -21v-170q45 0 89 11t76 33l67 139q20 43 62.5 63.5t102.5 20.5q55 0 87.5 -21.5t32.5 -64.5t-24.5 -64t-60.5 -21q-31 0 -54 18.5t-27 48.5q-17 0 -27.5 -8.5t-18.5 -23.5l-43 -100q-10 -17 -26.5 -31.5t-37.5 -22.5v-6q24 -2 48 -20.5t48 -48.5
l104 -131q33 -42 59 -55.5t46 -13.5h31l10 -59q-20 -8 -40.5 -12.5t-46.5 -4.5q-32 0 -57 5t-47.5 17t-43 33.5t-43.5 54.5l-103 149q-17 23 -43.5 33t-55.5 10h-64v-204l98 -21l-5 -62h-308l-5 62l99 21v446l-99 21l5 60h308zM576 820l-108 -158l-62 31l79 176z" />
    <glyph glyph-name="uni040D" unicode="&#x40d;" horiz-adv-x="889" 
d="M251 209l384 302v17l-98 21l5 61h307l5 -61l-98 -21v-446l98 -21l-5 -61h-307l-5 61l98 21v235l6 90h-4l-383 -302v-23l98 -21l-5 -61h-307l-5 61l98 21v446l-98 21l5 61h307l5 -61l-98 -21v-217l-7 -102h4zM403 869l79 -176l-62 -31l-108 158z" />
    <glyph glyph-name="afii10062" unicode="&#x40e;" horiz-adv-x="848" 
d="M325 610l5 -62l-75 -16l184 -309h13l177 306l-91 19l4 62h288l5 -62l-87 -19l-263 -421q-23 -35 -45 -60.5t-46.5 -41.5t-52 -23.5t-60.5 -7.5q-78 0 -122.5 34t-44.5 93q0 35 25 56.5t61 21.5q39 0 57 -20.5t18 -45.5q0 -14 -1.5 -27.5t-6.5 -21.5q6 -5 13.5 -6.5
t14.5 -1.5q23 0 42 12.5t41 44.5l27 40l-58 15l-244 358l-85 21l5 62h302zM424 652q-40 0 -74.5 7.5t-60 21.5t-40 35t-14.5 47q0 35 16 50.5t47 15.5q72 0 72 -61q0 -10 -2 -17.5t-4 -14.5q7 -16 23.5 -22t36.5 -6t36.5 6t23.5 22q-2 7 -4 14.5t-2 17.5q0 61 72 61
q31 0 47 -15.5t16 -50.5q0 -26 -14.5 -47t-40 -35t-60 -21.5t-74.5 -7.5z" />
    <glyph glyph-name="afii10145" unicode="&#x40f;" horiz-adv-x="872" 
d="M503 0l-27 -147h-80l-9 147h-342l-5 62l99 20v446l-99 20l5 62h308l5 -62l-98 -20v-442h353v442l-97 20l5 62h307l5 -62l-97 -20v-446l97 -20l-5 -62h-325z" />
    <glyph glyph-name="afii10017" unicode="&#x410;" horiz-adv-x="885" 
d="M508 628l269 -548l91 -19l-5 -61h-313l-5 61l93 20l-43 90h-327l-45 -90l94 -20l-5 -61h-292l-5 61l100 21l214 391l55 121l118 34h6zM308 253h249l-114 251h-10z" />
    <glyph glyph-name="afii10018" unicode="&#x411;" horiz-adv-x="784" 
d="M259 76q94 -17 169 -17q35 0 69.5 4.5t62 18t44.5 38.5t17 67q0 38 -16.5 61t-43 36t-60 17t-68.5 4q-45 0 -85.5 -4.5t-88.5 -14.5v-210zM513 610l148 7h11l8 -195l-78 -4l-29 110l-153 -5h-161v-160q53 13 103 18.5t112 5.5q128 0 199 -52t71 -147q0 -65 -27.5 -106
t-73 -63.5t-104 -30.5t-120.5 -8q-97 0 -190.5 6.5t-194.5 21.5l5 62l99 7v449l-104 22l5 62h474z" />
    <glyph glyph-name="afii10019" unicode="&#x412;" horiz-adv-x="785" 
d="M25 603q58 7 107 12t94 8.5t88 5t88 1.5q58 0 110 -7t91.5 -25.5t62.5 -50.5t23 -81t-29 -83.5t-80 -42.5v-4q80 -12 120 -52.5t40 -101.5q0 -57 -28 -95.5t-72.5 -61t-100 -32t-110.5 -9.5q-68 0 -120.5 2t-98.5 6t-90 9.5t-95 12.5l5 61l99 8v448l-99 8zM250 82
q45 -8 82 -11t74 -3q39 0 76.5 4.5t67.5 17t48.5 35t18.5 59.5q0 29 -12.5 48.5t-33.5 31.5t-49.5 17.5t-60.5 5.5h-211v-205zM250 372h206q51 0 81 18t30 64q0 27 -12.5 45t-35 29t-54.5 15.5t-72 4.5q-35 0 -69.5 -2.5t-73.5 -9.5v-164z" />
    <glyph glyph-name="afii10020" unicode="&#x413;" horiz-adv-x="706" 
d="M477 610l186 7h11l12 -242l-81 -5l-42 157l-150 -5h-166v-440l99 -20l-5 -62h-307l-5 62l97 20v446l-97 20l5 62h443z" />
    <glyph glyph-name="afii10021" unicode="&#x414;" horiz-adv-x="806" 
d="M120 617l178 -7h456l5 -62l-78 -20v-440l83 5l12 -5l-9 -231l-80 -5l-19 148h-538l-16 -148l-80 5l-15 224l9 5q53 8 85.5 39.5t49.5 78.5q13 34 20 74t10 82.5t3.5 85.5t0.5 83l-92 24l5 63zM560 86v438h-265q0 -88 -6 -174.5t-31 -168.5q-16 -52 -45 -95h347z" />
    <glyph glyph-name="afii10022" unicode="&#x415;" horiz-adv-x="739" 
d="M497 610l175 6l7 -4l-13 -204l-79 4l-9 113h-328v-156h184l31 73l62 -5v-241l-65 -5l-28 94h-184v-200h330l40 141l80 -7l-20 -219h-645l-5 61l98 21v446l-98 21l5 61h462z" />
    <glyph glyph-name="afii10024" unicode="&#x416;" horiz-adv-x="1153" 
d="M729 610l5 -61l-97 -20v-170q38 2 70.5 11.5t61.5 29.5l73 142q43 84 163 84q55 0 87.5 -21.5t32.5 -64.5t-24.5 -64t-60.5 -21q-31 0 -54 18.5t-27 48.5q-32 0 -46 -32l-43 -96q-9 -20 -26 -34t-38 -22v-6q24 -2 49.5 -20.5t46.5 -50.5l84 -131q29 -45 57 -57t48 -12h31
l10 -59q-20 -8 -40.5 -12.5t-46.5 -4.5q-32 0 -57.5 4t-47.5 16t-41 33.5t-38 56.5l-83 152q-14 25 -37 32.5t-49 7.5h-55v-205l97 -20l-5 -62h-306l-5 62l97 20v205h-55q-26 0 -49 -7.5t-37 -32.5l-83 -152q-19 -35 -38.5 -56.5t-41 -33.5t-47 -16t-57.5 -4
q-26 0 -46.5 4.5t-40.5 12.5l10 59h31q20 0 48 12t57 57l84 131q21 32 46.5 50.5t49.5 20.5v6q-21 8 -38 22t-26 34l-43 96q-14 32 -46 32q-4 -30 -27 -48.5t-54 -18.5q-36 0 -60.5 21t-24.5 64t32.5 64.5t87.5 21.5q120 0 163 -84l73 -142q29 -20 61 -29.5t71 -11.5v170
l-97 20l5 61h306z" />
    <glyph glyph-name="afii10025" unicode="&#x417;" horiz-adv-x="694" 
d="M41 563q40 19 76.5 32.5t73 22.5t73 13t76.5 4q62 0 115 -8.5t92 -29.5t61.5 -55.5t22.5 -86.5q0 -36 -19.5 -68t-55.5 -47v-5q58 -15 85.5 -53t27.5 -92q0 -47 -16 -81t-43.5 -57.5t-63 -38.5t-74.5 -23.5t-78.5 -11.5t-74.5 -3q-42 0 -79 5t-72 15.5t-69 28t-69 41.5
l6 154h72l30 -100q42 -30 88.5 -45t105.5 -15q34 0 72 6t69.5 20t52 38.5t20.5 62.5q0 103 -108 103h-222v83h203q42 0 65.5 21t23.5 62q0 27 -12.5 45t-34.5 29.5t-52.5 16.5t-66.5 5q-30 0 -53.5 -2t-44 -7t-40 -12.5t-40.5 -17.5l-42 -118h-67z" />
    <glyph glyph-name="afii10026" unicode="&#x418;" horiz-adv-x="889" 
d="M251 209l384 302v17l-98 21l5 61h307l5 -61l-98 -21v-446l98 -21l-5 -61h-307l-5 61l98 21v235l6 90h-4l-383 -302v-23l98 -21l-5 -61h-307l-5 61l98 21v446l-98 21l5 61h307l5 -61l-98 -21v-217l-7 -102h4z" />
    <glyph glyph-name="afii10027" unicode="&#x419;" horiz-adv-x="889" 
d="M251 209l384 302v17l-98 21l5 61h307l5 -61l-98 -21v-446l98 -21l-5 -61h-307l-5 61l98 21v235l6 90h-4l-383 -302v-23l98 -21l-5 -61h-307l-5 61l98 21v446l-98 21l5 61h307l5 -61l-98 -21v-217l-7 -102h4zM444 652q-40 0 -74.5 7.5t-60 21.5t-40 35t-14.5 47
q0 35 16 50.5t47 15.5q72 0 72 -61q0 -10 -2 -17.5t-4 -14.5q7 -16 23.5 -22t36.5 -6t36.5 6t23.5 22q-2 7 -4 14.5t-2 17.5q0 61 72 61q31 0 47 -15.5t16 -50.5q0 -26 -14.5 -47t-40 -35t-60 -21.5t-74.5 -7.5z" />
    <glyph glyph-name="afii10028" unicode="&#x41a;" horiz-adv-x="818" 
d="M343 610l5 -60l-98 -21v-170q45 0 89 11t76 33l67 139q20 43 62.5 63.5t102.5 20.5q55 0 87.5 -21.5t32.5 -64.5t-24.5 -64t-60.5 -21q-31 0 -54 18.5t-27 48.5q-17 0 -27.5 -8.5t-18.5 -23.5l-43 -100q-10 -17 -26.5 -31.5t-37.5 -22.5v-6q24 -2 48 -20.5t48 -48.5
l104 -131q33 -42 59 -55.5t46 -13.5h31l10 -59q-20 -8 -40.5 -12.5t-46.5 -4.5q-32 0 -57 5t-47.5 17t-43 33.5t-43.5 54.5l-103 149q-17 23 -43.5 33t-55.5 10h-64v-204l98 -21l-5 -62h-308l-5 62l99 21v446l-99 21l5 60h308z" />
    <glyph glyph-name="afii10029" unicode="&#x41b;" horiz-adv-x="900" 
d="M199 617l151 -7h519v-61l-98 -22v-446l98 -21l-5 -60h-321l-5 60l112 21v443h-271q0 -74 -2 -132.5t-6 -103.5t-8.5 -78.5t-10.5 -58.5q-19 -82 -70 -125t-139 -43q-30 0 -56.5 5t-46.5 17t-31.5 31.5t-11.5 47.5q0 44 23 64t58 20q36 0 59 -20t23 -68q5 -2 9 -2h8
q14 0 24.5 6t19.5 16q12 14 20.5 33.5t13.5 40.5t8 41t5 35q12 100 12 279l-93 20l5 68h7z" />
    <glyph glyph-name="afii10030" unicode="&#x41c;" horiz-adv-x="1049" 
d="M309 610l214 -414h9l210 414h278l5 -61l-98 -21v-446l98 -21l-5 -61h-313l-5 61l105 21v434h-13l-254 -506l-56 -9l-266 517h-14l11 -224v-213l89 -20l-5 -61h-269l-5 61l93 20v448l-93 20l5 61h279z" />
    <glyph glyph-name="afii10031" unicode="&#x41d;" horiz-adv-x="874" 
d="M255 353h364v175l-98 21l5 61h308l5 -61l-98 -21v-446l98 -21l-5 -61h-308l-5 61l98 21v186h-364v-186l98 -21l-5 -61h-308l-5 61l98 21v446l-98 21l5 61h308l5 -61l-98 -21v-175z" />
    <glyph glyph-name="afii10032" unicode="&#x41e;" 
d="M397 635q83 0 151 -24t116 -67.5t74 -104.5t26 -134q0 -74 -26 -134.5t-74 -104t-116 -67.5t-151 -24t-151 24t-116 67.5t-74 104t-26 134.5q0 73 26 134t74 104.5t116 67.5t151 24zM397 552q-114 0 -178.5 -64.5t-64.5 -182.5t64.5 -182.5t178.5 -64.5t178.5 64.5
t64.5 182.5t-64.5 182.5t-178.5 64.5z" />
    <glyph glyph-name="afii10033" unicode="&#x41f;" horiz-adv-x="863" 
d="M823 610l5 -62l-99 -20v-446l99 -20l-5 -62h-308l-5 62l98 20v442h-353v-442l97 -20l-5 -62h-307l-5 62l97 20v446l-97 20l5 62h783z" />
    <glyph glyph-name="afii10034" unicode="&#x420;" 
d="M30 597q99 15 188.5 23t184.5 8q64 0 124.5 -8t107.5 -30.5t75.5 -64t28.5 -107.5q0 -52 -20 -92.5t-57 -69t-88 -43.5t-113 -15q-29 0 -54.5 1t-50 3.5t-49 6.5t-51.5 9v-136l97 -22l-5 -60h-313l-5 60l103 23v443l-98 9zM256 299q42 -8 82.5 -11.5t91.5 -3.5
q43 0 77.5 8t59 24.5t37.5 43t13 63.5q0 40 -18.5 64t-48 37t-65.5 17.5t-72 4.5q-72 0 -157 -15v-232z" />
    <glyph glyph-name="afii10035" unicode="&#x421;" horiz-adv-x="729" 
d="M593 395l-16 112q-33 25 -76.5 36.5t-88.5 11.5q-57 0 -104 -16.5t-81.5 -48.5t-53.5 -78.5t-19 -106.5t19 -106.5t53.5 -78.5t81.5 -48.5t104 -16.5q45 0 88.5 11.5t76.5 36.5l16 120h80l10 -190q-66 -31 -136 -44.5t-145 -13.5q-87 0 -156 25.5t-117 70t-73.5 104.5
t-25.5 130t25.5 130t73.5 104.5t117 70t156 25.5q75 0 145 -12.5t136 -41.5l-10 -191z" />
    <glyph glyph-name="afii10036" unicode="&#x422;" horiz-adv-x="769" 
d="M552 610l168 8l12 -3l11 -229l-70 -9l-39 152l-189 -4v-442l98 -22l-7 -61h-303l-7 61l99 22v442l-190 4l-38 -152l-71 9l11 229l12 3l130 -8h373z" />
    <glyph glyph-name="afii10037" unicode="&#x423;" horiz-adv-x="848" 
d="M325 610l5 -62l-75 -16l184 -309h13l177 306l-91 19l4 62h288l5 -62l-87 -19l-263 -421q-23 -35 -45 -60.5t-46.5 -41.5t-52 -23.5t-60.5 -7.5q-78 0 -122.5 34t-44.5 93q0 35 25 56.5t61 21.5q39 0 57 -20.5t18 -45.5q0 -14 -1.5 -27.5t-6.5 -21.5q6 -5 13.5 -6.5
t14.5 -1.5q23 0 42 12.5t41 44.5l27 40l-58 15l-244 358l-85 21l5 62h302z" />
    <glyph glyph-name="afii10038" unicode="&#x424;" horiz-adv-x="990" 
d="M612 635l5 -62l-64 -11v-48q35 12 76.5 17.5t74.5 5.5q56 0 103 -13t81 -39.5t53 -67t19 -95.5t-19 -95.5t-53 -67t-81 -39.5t-103 -13q-33 0 -74.5 5t-76.5 17v-56l64 -11l-5 -62h-235l-5 62l65 11v56q-35 -12 -76.5 -17t-74.5 -5q-56 0 -103 13t-81 39.5t-53 67
t-19 95.5t19 95.5t53 67t81 39.5t103 13q33 0 74.5 -5.5t76.5 -17.5v48l-65 11l5 62h235zM553 205q33 -11 65 -15.5t63 -4.5q36 0 65 6.5t49.5 22t31.5 42t11 66.5t-11 66t-31.5 42t-49.5 22.5t-65 6.5q-31 0 -63 -5t-65 -16v-233zM437 439q-33 11 -65 15.5t-63 4.5
q-36 0 -65 -6.5t-49.5 -22.5t-31.5 -42t-11 -66t11 -66.5t31.5 -42t49.5 -22t65 -6.5q31 0 63 5t65 16v233z" />
    <glyph glyph-name="afii10039" unicode="&#x425;" horiz-adv-x="868" 
d="M387 610l5 -61l-82 -20l136 -147h12l133 150l-77 17l5 61h289l5 -61l-96 -21l-192 -204l221 -244l88 -19l-5 -61h-319l-5 61l82 19l-169 187h-10l-155 -184l113 -22l-5 -61h-330l-5 61l99 22l216 242l-186 203l-104 21l5 61h331z" />
    <glyph glyph-name="afii10040" unicode="&#x426;" horiz-adv-x="848" 
d="M345 610l5 -62l-98 -20v-442h335v442l-99 20l5 62h308l5 -62l-98 -20v-441l98 7h11l-11 -237h-78l-23 143h-668l-5 62l97 20v446l-97 20l5 62h308z" />
    <glyph glyph-name="afii10041" unicode="&#x427;" horiz-adv-x="850" 
d="M343 610l5 -62l-97 -20v-110q0 -42 15.5 -69t41.5 -43.5t60 -23t71 -6.5q46 0 82 6t77 19v227l-98 20l5 62h307l5 -62l-98 -20v-446l98 -20l-5 -62h-307l-5 62l98 20v141q-52 -19 -99.5 -27.5t-109.5 -8.5q-50 0 -96.5 11.5t-83.5 37.5t-59 67.5t-22 101.5v123l-98 20
l5 62h308z" />
    <glyph glyph-name="afii10042" unicode="&#x428;" horiz-adv-x="1197" 
d="M342 610l5 -62l-87 -20v-442h278v442l-88 20l5 62h288l5 -62l-89 -20v-442h278v442l-87 20l5 62h297l5 -62l-98 -20v-446l98 -20l-5 -62h-1107l-5 62l98 20v446l-98 20l5 62h297z" />
    <glyph glyph-name="afii10043" unicode="&#x429;" horiz-adv-x="1201" 
d="M40 0l-5 62l98 20v446l-98 20l5 62h297l5 -62l-87 -20v-442h278v442l-88 20l5 62h288l5 -62l-89 -20v-442h278v442l-87 20l5 62h297l5 -62l-98 -20v-441l98 7h11l-11 -237h-78l-23 143h-1011z" />
    <glyph glyph-name="afii10044" unicode="&#x42a;" horiz-adv-x="877" 
d="M44 618l163 -8h240l5 -60l-97 -22v-142q27 7 50 12.5t45.5 9t46.5 5t53 1.5q58 0 109 -13t88.5 -39t59 -64.5t21.5 -90.5q0 -66 -28.5 -109.5t-75.5 -69t-107.5 -36t-124.5 -10.5q-47 0 -91 2t-88 5.5t-89.5 9.5t-94.5 14l5 62l98 9v445l-101 5l-40 -158l-74 6l15 236h12
zM355 77q43 -8 77 -11.5t70 -3.5q39 0 76 7t65.5 23.5t45.5 43t17 66.5q0 37 -13 61.5t-37.5 39t-59 20.5t-77.5 6q-50 0 -86 -6.5t-78 -17.5v-228z" />
    <glyph glyph-name="afii10045" unicode="&#x42b;" horiz-adv-x="1084" 
d="M1039 610l6 -62l-97 -20v-446l97 -20l-5 -62h-288l-5 62l82 20v446l-97 20l5 62h302zM354 610l5 -60l-97 -22v-142q27 7 50 12.5t45.5 9t46.5 5t53 1.5q58 0 109 -13t88.5 -39t59 -64.5t21.5 -90.5q0 -66 -28.5 -109.5t-75.5 -69t-107.5 -36t-124.5 -10.5q-47 0 -90.5 2
t-87 5.5t-88.5 9.5t-94 14l5 62l98 9v443l-103 23l5 60h310zM262 79q43 -10 77 -14t70 -4q39 0 76 7t65.5 23.5t45.5 43.5t17 67q0 37 -13 62t-37.5 40t-59 21t-77.5 6q-50 0 -86 -6t-78 -20v-226z" />
    <glyph glyph-name="afii10046" unicode="&#x42c;" horiz-adv-x="762" 
d="M354 610l5 -60l-97 -22v-142q27 7 50 12.5t45.5 9t46.5 5t53 1.5q58 0 109 -13t88.5 -39t59 -64.5t21.5 -90.5q0 -66 -28.5 -109.5t-75.5 -69t-107.5 -36t-124.5 -10.5q-47 0 -90.5 2t-87 5.5t-88.5 9.5t-94 14l5 62l98 9v443l-103 23l5 60h310zM262 79q43 -10 77 -14
t70 -4q39 0 76 7t65.5 23.5t45.5 43.5t17 67q0 37 -13 62t-37.5 40t-59 21t-77.5 6q-50 0 -86 -6t-78 -20v-226z" />
    <glyph glyph-name="afii10047" unicode="&#x42d;" horiz-adv-x="738" 
d="M55 577q66 31 136 44.5t145 13.5q87 0 156 -25t117 -68.5t73.5 -103t25.5 -129.5t-25.5 -131t-73.5 -106t-117 -71t-156 -26q-75 0 -145 12.5t-136 41.5v166l80 5l26 -97q33 -25 76.5 -36.5t88.5 -11.5q52 0 96 13t77.5 40t54.5 67.5t27 95.5l-316 -8l-9 86l5 9l320 -8
q-6 54 -27.5 92.5t-55 63.5t-77.5 37t-95 12q-45 0 -88.5 -11.5t-76.5 -36.5l-26 -120h-80v190z" />
    <glyph glyph-name="afii10048" unicode="&#x42e;" horiz-adv-x="1078" 
d="M351 610l5 -63l-97 -21v-172h112q8 61 35 112.5t70.5 89t102 58.5t129.5 21q78 0 140.5 -25t107 -69.5t68.5 -104.5t24 -130t-24 -130.5t-68.5 -104.5t-107 -69.5t-140.5 -25.5q-73 0 -133 22.5t-104 62t-70 93.5t-32 118l-110 7v-196l97 -20l-5 -63h-307l-5 63l99 20
v443l-99 21l5 63h307zM708 60q48 0 88.5 15t69 46t44.5 77t16 108t-16 108t-44.5 76.5t-69 45.5t-88.5 15q-49 0 -89 -15t-68.5 -45.5t-44.5 -76.5t-16 -108t16 -108t44.5 -77t69 -46t88.5 -15z" />
    <glyph glyph-name="afii10049" unicode="&#x42f;" horiz-adv-x="846" 
d="M708 526v-443l103 -23l-5 -60h-313l-5 60l97 22v150q-23 -6 -43 -9.5t-40.5 -5.5t-41.5 -3t-46 -1q-29 0 -44 -10.5t-26 -26.5l-62 -126q-21 -35 -55 -52.5t-71 -17.5q-51 0 -90.5 24t-54.5 75l49 28q8 -17 22.5 -25t32.5 -8q12 0 25 5t22 18l57 100q11 14 22.5 23.5
t32.5 14.5v7q-80 16 -126 56t-46 120q0 63 28.5 103.5t75.5 64t107.5 33t124.5 9.5q94 0 184 -8t189 -23l-5 -62zM585 531q-43 9 -82 12t-75 3t-72 -4.5t-65.5 -17.5t-48 -37t-18.5 -64q0 -37 13 -62t37.5 -40t59 -21t77.5 -6q51 0 91.5 3.5t82.5 11.5v222z" />
    <glyph glyph-name="afii10065" unicode="&#x430;" horiz-adv-x="695" 
d="M464 256q-58 0 -108 -3t-93 -10q-54 -8 -78 -30t-24 -64q0 -36 29 -60.5t93 -24.5q104 0 181 43v149zM90 466q57 29 117 41.5t129 12.5q65 0 112.5 -13t78 -37t45 -57.5t14.5 -73.5v-237q0 -16 7.5 -26t23.5 -10h45l5 -66q-21 -7 -38.5 -10t-37.5 -3q-44 0 -66.5 17
t-30.5 48q-41 -35 -98 -53.5t-126 -18.5q-44 0 -86 7.5t-75 27t-53 51.5t-20 82q0 36 15.5 64.5t43.5 49t67 33.5t87 20q54 8 104.5 10t110.5 2v34q0 33 -33.5 54.5t-112.5 21.5q-45 0 -94.5 -10.5t-105.5 -35.5z" />
    <glyph glyph-name="afii10066" unicode="&#x431;" horiz-adv-x="691" 
d="M664 686q-28 -64 -88.5 -92.5t-137.5 -28.5h-137q-76 0 -117 -46t-50 -131h6q35 48 90.5 76t128.5 28q84 0 140.5 -22.5t91 -58.5t49.5 -82t15 -93q0 -45 -18 -90.5t-55.5 -82.5t-95 -60t-137.5 -23q-82 0 -141.5 24.5t-98.5 69.5t-57.5 107t-18.5 137q0 80 19.5 145.5
t57.5 111.5t93.5 71t127.5 25h85q34 0 62 3t53 9t47.5 16.5t45.5 25.5zM168 236q0 -30 9.5 -61t31 -55.5t56 -40.5t84.5 -16q51 0 85.5 15t56.5 40t31.5 55.5t9.5 62.5q0 31 -8.5 62t-28.5 55.5t-53 40t-83 15.5t-86.5 -16t-59.5 -40.5t-34 -55.5t-11 -61z" />
    <glyph glyph-name="afii10067" unicode="&#x432;" horiz-adv-x="641" 
d="M26 495q94 8 170 12.5t142 4.5q40 0 83.5 -4.5t79.5 -18.5t59 -39t23 -65q0 -43 -25 -70t-70 -37v-4q62 -8 98.5 -40t36.5 -83q0 -49 -23.5 -80.5t-60 -50t-82.5 -26t-91 -7.5q-47 0 -89.5 1t-83 3t-81 5t-83.5 7l-4 60l71 10v354l-66 9zM371 302q43 0 66 17t23 53
q0 25 -14 39t-34 20.5t-43 7.5t-41 1q-29 0 -57 -2.5t-54 -7.5v-128h154zM217 72q37 -6 67.5 -8t63.5 -2q75 0 113.5 21.5t38.5 69.5q0 42 -29.5 59t-74.5 17h-179v-157z" />
    <glyph glyph-name="afii10068" unicode="&#x433;" horiz-adv-x="585" 
d="M388 500l161 6l6 -2l-13 -209h-67l-23 128l-115 -4h-119v-347l72 -11l-5 -61h-256l-4 61l72 11v356l-72 11l4 61h359z" />
    <glyph glyph-name="afii10069" unicode="&#x434;" horiz-adv-x="740" 
d="M244 500h439l5 -62l-72 -10v-348l84 5l9 -3l-8 -214l-65 -5l-22 137h-480l-27 -137l-65 5l-10 209q47 2 72.5 14t42.5 38q25 37 33.5 106t8.5 187l-79 19l5 62zM277 427q0 -85 -4.5 -144t-12.5 -98q-8 -42 -19 -67t-23 -40h277v349h-218z" />
    <glyph glyph-name="afii10070" unicode="&#x435;" horiz-adv-x="653" 
d="M504 287q-4 82 -48.5 117.5t-116.5 35.5q-83 0 -130 -39t-58 -114h353zM358 204l-207 11q8 -76 54 -115.5t127 -39.5q35 0 62.5 3t51 9.5t45.5 18t46 28.5l43 -72q-54 -38 -112 -52.5t-136 -14.5q-73 0 -130 21t-96 58t-59 86t-20 105t21 105.5t61 86t98 57.5t132 21
q67 0 120.5 -18.5t90.5 -52.5t56.5 -83.5t19.5 -110.5q0 -11 -1 -22.5t-4 -22.5l-6 -6h-257z" />
    <glyph glyph-name="afii10072" unicode="&#x436;" horiz-adv-x="989" 
d="M623 500l4 -62l-73 -10v-125q15 1 27 3.5t23 6t23 8.5t26 11q10 12 16 22.5t11 22t10.5 24.5t16.5 31q22 37 53.5 55.5t80.5 18.5q48 0 74 -18.5t26 -58.5q0 -26 -18 -45.5t-50 -19.5q-9 0 -19 3.5t-18.5 10t-14.5 17t-6 24.5q-18 0 -27 -11t-16 -26q-9 -21 -16.5 -37
t-16.5 -29.5t-21.5 -24.5t-32.5 -20v-6q44 -14 69.5 -44.5t50.5 -78.5q14 -26 34.5 -48t58.5 -24l57 -3l4 -58q-20 -9 -40 -12.5t-49 -3.5q-47 0 -81.5 17t-60.5 46q-21 23 -38 50.5t-31 58.5q-15 32 -36 50t-69 18v-161l73 -10l-5 -62h-256l-3 62l72 10v161q-48 0 -69 -18
t-36 -50q-14 -31 -31 -58.5t-38 -50.5q-26 -29 -60.5 -46t-81.5 -17q-29 0 -49 3.5t-40 12.5l4 58l57 3q38 2 58.5 24t34.5 48q25 48 50.5 78.5t69.5 44.5v6q-20 9 -32.5 20t-21.5 24.5t-16.5 29.5t-16.5 37q-7 15 -16 26t-27 11q0 -14 -6 -24.5t-14.5 -17t-18.5 -10
t-19 -3.5q-32 0 -50 19.5t-18 45.5q0 40 26 58.5t74 18.5q49 0 80.5 -18.5t53.5 -55.5q10 -18 16 -31t10.5 -24.5t10 -22t16.5 -22.5q28 -13 49.5 -20t50.5 -9v125l-72 10l5 62h255z" />
    <glyph glyph-name="afii10073" unicode="&#x437;" horiz-adv-x="603" 
d="M35 459q63 32 123.5 46.5t127.5 14.5q33 0 79 -5t87.5 -20.5t70.5 -45.5t29 -79q0 -19 -8.5 -35.5t-22 -29.5t-30.5 -21.5t-35 -12.5v-4q23 -4 45.5 -13t40 -23.5t28.5 -35t11 -47.5q0 -51 -31 -83.5t-77 -51.5t-99 -26t-98 -7q-64 0 -122 12t-125 41l10 156h62l16 -88
q29 -20 70.5 -30.5t92.5 -10.5q30 0 61 2.5t56.5 11.5t42 27t16.5 49q0 37 -30 54.5t-99 17.5h-140l-15 72l5 6h147q18 0 36.5 1.5t33.5 8.5t24.5 21t9.5 38q0 39 -39.5 56t-107.5 17q-42 0 -80 -8.5t-76 -28.5l-20 -96h-61z" />
    <glyph glyph-name="afii10074" unicode="&#x438;" horiz-adv-x="735" 
d="M286 500l5 -61l-73 -11v-250l298 230v20l-70 11l5 61h254l5 -61l-73 -11v-355l73 -12l-5 -61h-254l-5 61l70 12v242l-298 -229v-13l73 -12l-5 -61h-256l-5 61l72 12v355l-72 11l5 61h256z" />
    <glyph glyph-name="afii10075" unicode="&#x439;" horiz-adv-x="735" 
d="M286 500l5 -61l-73 -11v-250l298 230v20l-70 11l5 61h254l5 -61l-73 -11v-355l73 -12l-5 -61h-254l-5 61l70 12v242l-298 -229v-13l73 -12l-5 -61h-256l-5 61l72 12v355l-72 11l5 61h256zM367 541q-37 0 -70.5 7t-58.5 20t-40 32.5t-15 43.5q0 32 18 48.5t50 16.5t49 -16
t17 -45q0 -16 -5 -29q6 -14 21 -20.5t34 -6.5t34 6.5t21 20.5q-5 13 -5 29q0 29 17 45t49 16t50 -16.5t18 -48.5q0 -24 -15 -43.5t-40 -32.5t-58.5 -20t-70.5 -7z" />
    <glyph glyph-name="afii10076" unicode="&#x43a;" horiz-adv-x="705" 
d="M284 500l5 -62l-71 -9v-126q38 1 75 8t64 19q14 12 22 23.5t14.5 23.5t13 26.5t17.5 32.5t23 31.5t27.5 22t36.5 12.5t49 4q48 0 74 -18.5t26 -58.5q0 -26 -18 -45.5t-50 -19.5q-9 0 -19 3.5t-18.5 10t-14.5 17t-6 24.5q-18 0 -27 -11t-16 -26q-9 -21 -18 -37
t-20.5 -29.5t-26 -24.5t-34.5 -20v-6q20 -2 36.5 -11.5t30.5 -23.5t26 -32t24 -37q10 -17 22.5 -33t27 -28.5t31 -20.5t35.5 -9l57 -3l4 -58q-20 -9 -40 -12.5t-49 -3.5q-47 0 -82.5 17t-61.5 46q-32 34 -56 73t-44 64q-11 12 -21 20t-24 12t-35.5 6t-54.5 2v-162l71 -10
l-5 -61h-254l-5 61l72 10v358l-72 9l5 62h254z" />
    <glyph glyph-name="afii10077" unicode="&#x43b;" horiz-adv-x="775" 
d="M175 499l6 8l155 -7h409l4 -61l-70 -10v-358l70 -10l-5 -61h-254l-5 61l72 10v353h-215q0 -92 -4 -165.5t-17 -125.5q-19 -77 -63 -113t-128 -36q-51 0 -80 21.5t-29 58.5q0 32 16.5 54.5t53.5 22.5q34 0 54.5 -17.5t20.5 -58.5q42 0 62 76q14 50 19 123.5t5 164.5
l-83 17z" />
    <glyph glyph-name="afii10078" unicode="&#x43c;" horiz-adv-x="919" 
d="M282 505l173 -334h7l164 329h263l5 -61l-72 -11v-356l72 -11l-5 -61h-255l-5 61l71 11v349h-13l-221 -421l-44 -6l-227 427h-9v-349l62 -11l-5 -61h-213l-5 61l73 11v356l-68 8v61z" />
    <glyph glyph-name="afii10079" unicode="&#x43d;" horiz-adv-x="727" 
d="M285 500l5 -61l-72 -11v-124h290v124l-71 11l5 61h254l5 -61l-72 -11v-356l72 -11l-5 -61h-254l-5 61l71 11v154h-290v-154l72 -11l-5 -61h-255l-5 61l72 11v356l-72 11l5 61h255z" />
    <glyph glyph-name="afii10080" unicode="&#x43e;" horiz-adv-x="688" 
d="M344 520q74 0 133 -21t100 -58t62.5 -86t21.5 -105t-21.5 -105.5t-62.5 -86t-100 -57.5t-133 -21t-133 21t-100 57.5t-62.5 86t-21.5 105.5t21.5 105t62.5 86t100 58t133 21zM344 440q-98 0 -146.5 -51.5t-48.5 -138.5q0 -88 48.5 -139t146.5 -51q97 0 145.5 51t48.5 139
q0 87 -48.5 138.5t-145.5 51.5z" />
    <glyph glyph-name="afii10081" unicode="&#x43f;" horiz-adv-x="715" 
d="M685 500l5 -61l-72 -11v-356l72 -11l-5 -61h-254l-5 61l71 11v353h-280v-353l73 -11l-5 -61h-255l-5 61l71 11v356l-71 11l5 61h655z" />
    <glyph glyph-name="afii10082" unicode="&#x440;" horiz-adv-x="711" 
d="M158 505l27 -55q45 38 95 54t116 16q68 0 121.5 -19.5t90.5 -55.5t56.5 -85.5t19.5 -109.5q0 -56 -20.5 -105.5t-60 -86t-97 -57.5t-132.5 -21q-45 0 -84.5 8.5t-72.5 23.5v-108l71 -10l-5 -61h-254l-5 61l71 10v522l-65 4l-5 61zM217 89q38 -14 74.5 -19.5t75.5 -5.5
q89 0 141.5 44t52.5 142q0 50 -13.5 85t-36.5 57.5t-55 33t-69 10.5q-58 0 -98 -14t-72 -43v-290z" />
    <glyph glyph-name="afii10083" unicode="&#x441;" horiz-adv-x="624" 
d="M572 268h-73l-19 144q-32 14 -64.5 21t-71.5 7q-47 0 -83 -14t-61 -39t-38 -60t-13 -77t11.5 -76.5t34.5 -60t57.5 -39.5t81.5 -14q35 0 62.5 3.5t51 11t45.5 19t46 28.5l43 -72q-54 -38 -115.5 -54t-132.5 -16q-72 0 -129 21t-96.5 58t-60.5 86t-21 105t21.5 105.5
t62.5 86t100 57.5t133 21q76 0 136.5 -14t105.5 -37z" />
    <glyph glyph-name="afii10084" unicode="&#x442;" horiz-adv-x="665" 
d="M38 499l5 6l177 -5h197l215 5l6 -4l2 -216l-62 -4l-34 145l-146 -5v-349l72 -11l-4 -61h-257l-5 61l72 11v349l-144 4l-45 -144l-61 4z" />
    <glyph glyph-name="afii10085" unicode="&#x443;" horiz-adv-x="764" 
d="M317 500l5 -62l-81 -14l172 -321h11l148 321l-76 14l4 62h243l5 -62l-63 -14l-229 -464q-30 -62 -75 -92.5t-109 -30.5q-44 0 -74.5 13t-53.5 39l38 66q42 -20 75 -20q45 0 71.5 17t41.5 48l13 27l-69 18l-217 375l-77 18l4 62h293z" />
    <glyph glyph-name="afii10086" unicode="&#x444;" horiz-adv-x="1070" 
d="M587 665l9 -6v-184q36 25 75.5 35t93.5 10q68 0 120 -19.5t87 -55.5t53 -85.5t18 -109.5q0 -56 -19 -105.5t-56.5 -86t-93.5 -57.5t-131 -21q-45 0 -80 11t-67 31v-118l71 -10l-5 -61h-254l-5 61l71 10v124q-37 -27 -76 -37.5t-93 -10.5q-68 0 -120 19.5t-87 55.5
t-53 85.5t-18 109.5q0 56 19 105.5t56.5 86t93.5 57.5t131 21q45 0 79.5 -10.5t67.5 -31.5v105l-69 9l-6 61zM596 99q36 -20 68.5 -27.5t71.5 -7.5q90 0 137.5 43.5t47.5 142.5q0 50 -12 85t-33.5 57.5t-52 33t-67.5 10.5q-29 0 -51.5 -3t-41.5 -9.5t-35 -17.5t-32 -27v-280
zM474 401q-35 20 -68 27.5t-72 7.5q-90 0 -137.5 -43.5t-47.5 -142.5q0 -50 12 -85t33.5 -57.5t52 -33t67.5 -10.5q29 0 51.5 4t41.5 11.5t35 19t32 27.5v275z" />
    <glyph glyph-name="afii10087" unicode="&#x445;" horiz-adv-x="735" 
d="M305 500l5 -61l-49 -7l119 -118h4l112 116l-58 9l5 61h239l5 -61l-66 -11l-175 -169l197 -188l67 -11l-5 -60h-272l-5 60l57 10l-130 139h-4l-129 -139l61 -10l-5 -60h-248l-5 60l63 10l201 191l-182 168l-70 10l5 61h263z" />
    <glyph glyph-name="afii10088" unicode="&#x446;" horiz-adv-x="730" 
d="M289 500l5 -62l-72 -10v-352h274v352l-72 10l5 62h255l5 -62l-72 -10v-348l77 5l9 -3l-8 -214l-65 -5l-22 137h-574l-5 62l72 12v354l-72 10l5 62h255z" />
    <glyph glyph-name="afii10089" unicode="&#x447;" horiz-adv-x="724" 
d="M278 500l5 -61l-71 -11v-98q0 -67 34 -96t109 -29q55 0 88.5 11t62.5 29v183l-72 11l5 61h255l5 -61l-71 -11v-356l71 -11l-5 -61h-258l-5 61l75 11v95q-25 -16 -70 -29t-91 -13q-120 0 -187.5 56.5t-67.5 168.5v78l-72 11l5 61h255z" />
    <glyph glyph-name="afii10090" unicode="&#x448;" horiz-adv-x="1044" 
d="M283 500l6 -61l-72 -11v-348h243v348l-71 11l5 61h254l6 -61l-72 -11v-348h243v348l-71 11l5 61h254l6 -61l-73 -11v-356l73 -11l-6 -61h-983l-5 61l71 11v356l-71 11l5 61h253z" />
    <glyph glyph-name="afii10091" unicode="&#x449;" horiz-adv-x="1068" 
d="M30 0l-5 61l71 11v356l-71 11l5 61h253l6 -61l-72 -11v-348h243v348l-71 11l5 61h254l6 -61l-72 -11v-348h243v348l-71 11l5 61h254l6 -61l-73 -11v-348l82 5l9 -3l-8 -214l-65 -5l-22 137h-912z" />
    <glyph glyph-name="afii10092" unicode="&#x44a;" horiz-adv-x="743" 
d="M26 500l9 5l109 -5h232l5 -61l-71 -9v-113q42 8 81 12.5t75 4.5q119 0 187 -43t68 -125q0 -50 -22 -84.5t-59 -56t-85.5 -31t-101.5 -9.5q-81 0 -165.5 3.5t-170.5 11.5v61l72 5v362l-80 6l-29 -104l-60 9zM310 69q26 -5 56.5 -8t61.5 -3q29 0 59 3.5t54 14t39.5 31
t15.5 55.5q0 53 -34.5 75t-94.5 22q-44 0 -79 -2.5t-78 -9.5v-178z" />
    <glyph glyph-name="afii10093" unicode="&#x44b;" horiz-adv-x="929" 
d="M646 0l-5 62l71 10v357l-71 9l5 62h253l5 -62l-71 -9v-357l71 -10l-5 -62h-253zM218 69q26 -5 56.5 -8t61.5 -3q29 0 59 3.5t54 14t39.5 31t15.5 55.5q0 53 -34.5 74.5t-94.5 21.5q-44 0 -79 -2.5t-78 -8.5v-178zM284 500l5 -61l-71 -9v-113q42 8 81 12t75 4
q119 0 187 -42.5t68 -124.5q0 -50 -22 -84.5t-59 -56t-85.5 -31t-101.5 -9.5q-81 0 -165.5 3.5t-170.5 11.5v61l72 5v364l-72 9l5 61h254z" />
    <glyph glyph-name="afii10094" unicode="&#x44c;" horiz-adv-x="651" 
d="M218 69q26 -5 56.5 -8t61.5 -3q29 0 59 3.5t54 14t39.5 31t15.5 55.5q0 53 -34.5 74.5t-94.5 21.5q-44 0 -79 -2.5t-78 -8.5v-178zM284 500l5 -61l-71 -9v-113q42 8 81 12t75 4q119 0 187 -42.5t68 -124.5q0 -50 -22 -84.5t-59 -56t-85.5 -31t-101.5 -9.5
q-81 0 -166.5 3.5t-171.5 11.5v61l74 6v363l-72 9l5 61h254z" />
    <glyph glyph-name="afii10095" unicode="&#x44d;" horiz-adv-x="624" 
d="M48 469q45 23 105.5 37t136.5 14q74 0 131.5 -20.5t96.5 -56.5t59 -85.5t20 -107.5q0 -57 -22 -106.5t-63 -86t-99.5 -57t-130.5 -20.5q-71 0 -133.5 16t-116.5 54l43 72q24 -17 46 -29t46 -19.5t52 -11t63 -3.5q85 0 134 45.5t57 120.5l-242 -11l-10 87l10 5l240 -8
q-11 69 -56 106t-125 37q-39 0 -71.5 -7t-64.5 -22l-19 -144h-73z" />
    <glyph glyph-name="afii10096" unicode="&#x44e;" horiz-adv-x="920" 
d="M284 500l5 -61l-73 -11v-124h94q9 46 33.5 85.5t62 68.5t86 45.5t107.5 16.5q67 0 121 -21t92.5 -58t59.5 -86t21 -105t-21 -105.5t-59.5 -86t-92.5 -57.5t-121 -21q-63 0 -115.5 19t-90.5 52.5t-60.5 78.5t-26.5 97l-90 4v-159l73 -10l-5 -62h-254l-5 62l71 10v356
l-71 11l5 61h254zM599 443q-83 0 -129 -49.5t-46 -143.5t46 -143.5t129 -49.5q82 0 128 49t46 144q0 94 -46 143.5t-128 49.5z" />
    <glyph glyph-name="afii10097" unicode="&#x44f;" horiz-adv-x="708" 
d="M611 429v-358l72 -9l-5 -62h-254l-5 62l72 9v99h-140q-27 0 -42.5 -9.5t-27.5 -29.5l-57 -89q-17 -26 -45 -40.5t-65 -14.5q-45 0 -73.5 19t-40.5 64l54 29q7 -11 18.5 -15.5t24.5 -4.5q8 0 15.5 2.5t16 10t19 21.5t25.5 38q22 37 56 47v4q-29 4 -56.5 14t-48.5 28
t-34 44t-13 61q0 47 23 79t64.5 51t98 27t124.5 8q73 0 145.5 -3.5t149.5 -10.5l-5 -63zM491 431q-22 5 -51.5 7.5t-74.5 2.5q-83 0 -125.5 -22t-42.5 -79q0 -53 41.5 -75t110.5 -22h142v188z" />
    <glyph glyph-name="uni0450" unicode="&#x450;" horiz-adv-x="653" 
d="M504 287q-4 82 -48.5 117.5t-116.5 35.5q-83 0 -130 -39t-58 -114h353zM358 204l-207 11q8 -76 54 -115.5t127 -39.5q35 0 62.5 3t51 9.5t45.5 18t46 28.5l43 -72q-54 -38 -112 -52.5t-136 -14.5q-73 0 -130 21t-96 58t-59 86t-20 105t21 105.5t61 86t98 57.5t132 21
q67 0 120.5 -18.5t90.5 -52.5t56.5 -83.5t19.5 -110.5q0 -11 -1 -22.5t-4 -22.5l-6 -6h-257zM386 593l-62 -38l-111 151l86 50z" />
    <glyph glyph-name="afii10071" unicode="&#x451;" horiz-adv-x="653" 
d="M504 287q-4 82 -48.5 117.5t-116.5 35.5q-83 0 -130 -39t-58 -114h353zM358 204l-207 11q8 -76 54 -115.5t127 -39.5q35 0 62.5 3t51 9.5t45.5 18t46 28.5l43 -72q-54 -38 -112 -52.5t-136 -14.5q-73 0 -130 21t-96 58t-59 86t-20 105t21 105.5t61 86t98 57.5t132 21
q67 0 120.5 -18.5t90.5 -52.5t56.5 -83.5t19.5 -110.5q0 -11 -1 -22.5t-4 -22.5l-6 -6h-257zM209 688q29 0 50.5 -17t21.5 -44t-21.5 -44t-50.5 -17t-50.5 17t-21.5 44t21.5 44t50.5 17zM444 688q29 0 50.5 -17t21.5 -44t-21.5 -44t-50.5 -17t-50.5 17t-21.5 44t21.5 44
t50.5 17z" />
    <glyph glyph-name="afii10099" unicode="&#x452;" horiz-adv-x="706" 
d="M103 653l104 78l18 -3v-133l182 8l7 -9l-7 -78h-182v-91q16 12 37.5 22t45.5 18t49 12.5t48 4.5q128 0 195.5 -58.5t67.5 -170.5v-156q0 -60 -14.5 -105t-37 -78t-50 -55t-54.5 -36l-52 46q46 40 66 92t20 123v169q0 77 -37 111t-104 34q-55 0 -102 -15t-78 -47v-265
l71 -9l-5 -62h-254l-5 62l71 9v445h-71l-7 5l13 66l65 3v63z" />
    <glyph glyph-name="afii10100" unicode="&#x453;" horiz-adv-x="597" 
d="M388 500l161 6l6 -2l-13 -209h-67l-23 128l-115 -4h-119v-347l72 -11l-5 -61h-256l-4 61l72 11v356l-72 11l4 61h359zM365 756l86 -50l-111 -151l-62 38z" />
    <glyph glyph-name="afii10101" unicode="&#x454;" horiz-adv-x="624" 
d="M499 268l-19 144q-32 14 -64.5 21t-71.5 7q-81 0 -130.5 -40.5t-61.5 -107.5l241 9l10 -5l-10 -87l-243 10q8 -72 53.5 -115.5t130.5 -43.5q35 0 62.5 3.5t51 11t45.5 19t46 28.5l43 -72q-54 -38 -115.5 -54t-132.5 -16q-72 0 -129 21t-96.5 58t-60.5 86t-21 105
t21.5 105.5t62.5 86t100 57.5t133 21q76 0 136.5 -14t105.5 -37l-14 -201h-73z" />
    <glyph glyph-name="afii10102" unicode="&#x455;" horiz-adv-x="597" 
d="M457 317l-14 90q-32 16 -68 24t-79 8q-33 0 -60.5 -3t-48 -10t-32 -19t-11.5 -31q0 -17 10 -29.5t39 -17.5l211 -34q73 -12 119 -48.5t46 -103.5q0 -45 -19 -76t-54 -50.5t-85 -28t-112 -8.5q-75 0 -140 11t-125 38l5 150h69l15 -81q80 -37 176 -37q45 0 75.5 5t48.5 14
t25.5 21.5t7.5 28.5q0 51 -70 61l-203 32q-69 11 -107.5 47t-38.5 94q0 45 20 75t55 48t82.5 25.5t101.5 7.5q71 0 129.5 -11t109.5 -31l-10 -161h-68z" />
    <glyph glyph-name="afii10103" unicode="&#x456;" horiz-adv-x="314" 
d="M157 698q33 0 57 -19t24 -49t-24 -49t-57 -19q-32 0 -56 19t-24 49t24 49t56 19zM211 504l8 -7v-426l71 -10l-4 -61h-256l-5 61l72 10v357l-62 6l-5 60z" />
    <glyph glyph-name="afii10104" unicode="&#x457;" horiz-adv-x="314" 
d="M211 504l8 -7v-426l71 -10l-4 -61h-256l-5 61l72 10v357l-62 6l-5 60zM35 688q29 0 50.5 -17t21.5 -44t-21.5 -44t-50.5 -17t-50.5 17t-21.5 44t21.5 44t50.5 17zM270 688q29 0 50.5 -17t21.5 -44t-21.5 -44t-50.5 -17t-50.5 17t-21.5 44t21.5 44t50.5 17z" />
    <glyph glyph-name="afii10105" unicode="&#x458;" horiz-adv-x="268" 
d="M211 504l8 -7v-420q0 -128 -54 -195.5t-157 -67.5q-26 0 -51.5 5t-53.5 16l8 58l91 4q28 9 46 20.5t29 30t15.5 46.5t4.5 70v364l-62 6l-5 60zM153 698q33 0 57 -19t24 -49t-24 -49t-57 -19q-32 0 -56 19t-24 49t24 49t56 19z" />
    <glyph glyph-name="afii10106" unicode="&#x459;" horiz-adv-x="1087" 
d="M175 499l6 8l155 -7h398l4 -61l-70 -10v-112q42 8 76 12t70 4q119 0 187 -42.5t68 -124.5q0 -50 -22 -84.5t-59 -56t-85.5 -31t-101.5 -9.5q-81 0 -161.5 3.5t-166.5 11.5v61l74 6v353h-205q0 -92 -4 -163.5t-17 -123.5q-19 -77 -63 -113t-128 -36q-51 0 -80 21.5
t-29 58.5q0 32 16.5 54.5t53.5 22.5q34 0 54.5 -17.5t20.5 -58.5q42 0 62 76q14 50 19 123.5t5 164.5l-83 17zM668 69q26 -6 51.5 -8.5t56.5 -2.5q29 0 59 3.5t54 14t39.5 31t15.5 55.5q0 53 -34.5 75t-94.5 22q-22 0 -40 -0.5t-34.5 -2t-34 -3.5t-38.5 -6v-178z" />
    <glyph glyph-name="afii10107" unicode="&#x45a;" horiz-adv-x="1041" 
d="M285 500l5 -61l-72 -11v-124h280v124l-71 11l5 61h254l5 -61l-72 -11v-111q42 8 76 12t70 4q119 0 187 -42.5t68 -124.5q0 -50 -22 -84.5t-59 -56t-85.5 -31t-101.5 -9.5q-81 0 -161.5 3.5t-166.5 11.5v61l74 6v159h-280v-154l72 -11l-5 -61h-255l-5 61l72 11v356l-72 11
l5 61h255zM619 69q26 -6 51.5 -8.5t56.5 -2.5q29 0 59 3.5t54 14t39.5 31t15.5 55.5q0 53 -34.5 75t-94.5 22q-22 0 -40 -0.5t-34.5 -2t-34 -3.5t-38.5 -6v-178z" />
    <glyph glyph-name="afii10108" unicode="&#x45b;" horiz-adv-x="751" 
d="M103 653l104 78l18 -3v-133l182 8l7 -9l-7 -78h-182v-91q16 12 37.5 22t45.5 18t49 12.5t48 4.5q128 0 195.5 -58.5t67.5 -170.5v-182l71 -9l-5 -62h-254l-5 62l71 9v182q0 77 -37 111t-104 34q-55 0 -102 -15t-78 -47v-265l71 -9l-5 -62h-254l-5 62l71 9v445h-71l-7 5
l13 66l65 3v63z" />
    <glyph glyph-name="afii10109" unicode="&#x45c;" horiz-adv-x="699" 
d="M284 500l5 -62l-71 -9v-126q38 1 75 8t64 19q14 12 22 23.5t14.5 23.5t13 26.5t17.5 32.5t23 31.5t27.5 22t36.5 12.5t49 4q48 0 74 -18.5t26 -58.5q0 -26 -18 -45.5t-50 -19.5q-9 0 -19 3.5t-18.5 10t-14.5 17t-6 24.5q-18 0 -27 -11t-16 -26q-9 -21 -18 -37
t-20.5 -29.5t-26 -24.5t-34.5 -20v-6q20 -2 36.5 -11.5t30.5 -23.5t26 -32t24 -37q10 -17 22.5 -33t27 -28.5t31 -20.5t35.5 -9l57 -3l4 -58q-20 -9 -40 -12.5t-49 -3.5q-47 0 -82.5 17t-61.5 46q-32 34 -56 73t-44 64q-11 12 -21 20t-24 12t-35.5 6t-54.5 2v-162l71 -10
l-5 -61h-254l-5 61l72 10v358l-72 9l5 62h254zM406 756l86 -50l-111 -151l-62 38z" />
    <glyph glyph-name="uni045D" unicode="&#x45d;" horiz-adv-x="735" 
d="M286 500l5 -61l-73 -11v-250l298 230v20l-70 11l5 61h254l5 -61l-73 -11v-355l73 -12l-5 -61h-254l-5 61l70 12v242l-298 -229v-13l73 -12l-5 -61h-256l-5 61l72 12v355l-72 11l5 61h256zM407 593l-62 -38l-111 151l86 50z" />
    <glyph glyph-name="afii10110" unicode="&#x45e;" horiz-adv-x="764" 
d="M317 500l5 -62l-81 -14l172 -321h11l148 321l-76 14l4 62h243l5 -62l-63 -14l-229 -464q-30 -62 -75 -92.5t-109 -30.5q-44 0 -74.5 13t-53.5 39l38 66q42 -20 75 -20q45 0 71.5 17t41.5 48l13 27l-69 18l-217 375l-77 18l4 62h293zM419 541q-37 0 -70.5 7t-58.5 20
t-40 32.5t-15 43.5q0 32 18 48.5t50 16.5t49 -16t17 -45q0 -16 -5 -29q6 -14 21 -20.5t34 -6.5t34 6.5t21 20.5q-5 13 -5 29q0 29 17 45t49 16t50 -16.5t18 -48.5q0 -24 -15 -43.5t-40 -32.5t-58.5 -20t-70.5 -7z" />
    <glyph glyph-name="afii10193" unicode="&#x45f;" horiz-adv-x="736" 
d="M414 0l-22 -137h-73l-9 137h-280l-5 61l72 11v356l-72 11l5 61h254l5 -61l-71 -11v-350h280v350l-73 11l5 61h255l5 -61l-71 -11v-356l71 -11l-5 -61h-271z" />
    <glyph glyph-name="afii10146" unicode="&#x462;" horiz-adv-x="787" 
d="M25 514l103 -4v45l-103 18l5 62h313l5 -62l-97 -17v-46h120v-72l-120 -3v-69q51 15 97.5 21.5t105.5 6.5q62 0 112 -13t85 -37.5t54 -61.5t19 -85q0 -66 -28 -108t-74.5 -66t-108.5 -32.5t-129 -8.5q-47 0 -90.5 2t-86.5 5.5t-88 9.5t-94 14l5 62l98 9v349l-105 -2l-4 80
zM251 76q42 -9 74.5 -12t68.5 -3q39 0 76.5 5.5t67 20t47 40t17.5 65.5q0 67 -46.5 93t-132.5 26q-51 0 -90.5 -6t-81.5 -17v-212z" />
    <glyph glyph-name="afii10194" unicode="&#x463;" horiz-adv-x="651" 
d="M283 665l4 -61l-71 -9v-89l147 6l14 -8l-8 -76h-153v-111q42 8 81 12t75 4q119 0 187 -42.5t68 -124.5q0 -50 -22 -84.5t-59 -56t-85.5 -31t-101.5 -9.5q-81 0 -165.5 3.5t-170.5 11.5v61l74 6v361h-72l-6 69l78 5v93l-72 9l5 61h253zM216 69q26 -5 56.5 -8t61.5 -3
q29 0 59 3.5t54 14t39.5 31t15.5 55.5q0 53 -34.5 74.5t-94.5 21.5q-44 0 -79 -2.5t-78 -8.5v-178z" />
    <glyph glyph-name="afii10147" unicode="&#x472;" 
d="M397 635q83 0 151 -24t116 -67.5t74 -104.5t26 -134q0 -74 -26 -134.5t-74 -104t-116 -67.5t-151 -24t-151 24t-116 67.5t-74 104t-26 134.5q0 73 26 134t74 104.5t116 67.5t151 24zM156 262q12 -99 75 -152.5t166 -53.5q112 0 176.5 64t66.5 179q-23 -24 -57.5 -39.5
t-86.5 -15.5q-28 0 -54.5 9t-52 19.5t-50 19.5t-47.5 9q-48 0 -80 -9.5t-56 -29.5zM635 363q-15 91 -77 141t-161 50q-106 0 -169 -56t-73 -159q29 25 66 40.5t87 15.5q38 0 63.5 -10t47 -21.5t43 -21.5t52.5 -10q42 0 73 9t48 22z" />
    <glyph glyph-name="afii10195" unicode="&#x473;" horiz-adv-x="688" 
d="M344 520q74 0 133 -21t100 -58t62.5 -86t21.5 -105t-21.5 -105.5t-62.5 -86t-100 -57.5t-133 -21t-133 21t-100 57.5t-62.5 86t-21.5 105.5t21.5 105t62.5 86t100 58t133 21zM151 215q9 -72 57 -113.5t136 -41.5q90 0 137.5 44t55.5 119q-21 -17 -45.5 -26.5t-53.5 -9.5
q-33 0 -57 8.5t-44.5 18t-41.5 18t-48 8.5q-53 0 -96 -25zM151 287q24 19 51 28.5t63 9.5q31 0 54.5 -8t44 -17.5t40 -17.5t43.5 -8q28 0 48 4.5t39 18.5q-12 66 -59.5 104.5t-130.5 38.5q-88 0 -135.5 -41t-57.5 -112z" />
    <glyph glyph-name="afii10148" unicode="&#x474;" horiz-adv-x="856" 
d="M340 610l5 -61l-94 -19l197 -421h11l164 411q10 27 28 45.5t39 30t43 17t42 5.5t36.5 -5t28.5 -13l5 -64q-16 0 -32 -3t-32 -13t-32.5 -29t-32.5 -52l-214 -422l-119 -36h-4l-267 550l-90 18l8 61h310z" />
    <glyph glyph-name="afii10196" unicode="&#x475;" horiz-adv-x="726" 
d="M279 500l5 -61l-59 -8l163 -334h8l127 307q24 60 58 84.5t83 24.5q14 0 30.5 -3t31.5 -10l-6 -61q-29 0 -52 -16t-48 -65l-184 -356l-106 -12l-246 440l-64 9l5 61h254z" />
    <glyph glyph-name="afii10050" unicode="&#x490;" horiz-adv-x="656" 
d="M511 610l48 134l70 -7l-15 -219h-11l-168 6h-188v-442l99 -20l-5 -62h-307l-5 62l97 20v446l-97 20l5 62h477z" />
    <glyph glyph-name="afii10098" unicode="&#x491;" horiz-adv-x="589" 
d="M462 500l36 105l70 -6l-11 -179l-9 -5l-115 6h-215v-349l72 -11l-4 -61h-256l-5 61l72 11v356l-72 11l5 61h432z" />
    <glyph glyph-name="uni0492" unicode="&#x492;" horiz-adv-x="719" 
d="M33 0l-5 61l98 21v183h-64l-13 70l77 17v176l-98 21l5 61h457l169 6l8 -4l-12 -207l-79 3l-10 117h-318v-176h184l36 83l58 -3v-255l-61 -3l-33 94h-184v-183l98 -21v-61h-313z" />
    <glyph glyph-name="uni0493" unicode="&#x493;" horiz-adv-x="585" 
d="M97 292v136l-72 11l4 61h359l161 6l6 -2l-13 -209h-67l-23 128l-115 -4h-119v-127h187l7 -6l-10 -81l-184 7v-140l72 -11l-5 -61h-256l-4 61l72 11v145l-72 3l-7 6l19 66h60z" />
    <glyph glyph-name="uni0496" unicode="&#x496;" horiz-adv-x="1153" 
d="M724 610l5 -61l-97 -20v-170q38 2 70.5 11.5t61.5 29.5l73 142q43 84 163 84q55 0 87.5 -21.5t32.5 -64.5t-24.5 -64t-60.5 -21q-31 0 -54 18.5t-27 48.5q-32 0 -46 -32l-43 -96q-9 -20 -26 -34t-38 -22v-6q24 -2 49.5 -20.5t46.5 -50.5l84 -131q26 -42 52.5 -55.5
t46.5 -13.5h60l6 -5l-25 -201h-75l-6 6l-5 124q-33 1 -58 6t-46 17t-39 33t-36 54l-83 152q-14 25 -37 32.5t-49 7.5h-55v-205l97 -20l-5 -62h-306l-5 62l97 20v205h-55q-26 0 -49 -7.5t-37 -32.5l-83 -152q-19 -35 -38.5 -56.5t-41 -33.5t-47 -16t-57.5 -4q-26 0 -46.5 4.5
t-40.5 12.5l10 59h31q20 0 48 12t57 57l84 131q21 32 46.5 50.5t49.5 20.5v6q-21 8 -38 22t-26 34l-43 96q-14 32 -46 32q-4 -30 -27 -48.5t-54 -18.5q-36 0 -60.5 21t-24.5 64t32.5 64.5t87.5 21.5q120 0 163 -84l73 -142q29 -20 61 -29.5t71 -11.5v170l-97 20l5 61h306z
" />
    <glyph glyph-name="uni0497" unicode="&#x497;" horiz-adv-x="969" 
d="M613 500l4 -62l-73 -10v-125q15 1 27 3.5t23 6t23 8.5t26 11q10 12 16 22.5t11 22t10.5 24.5t16.5 31q22 37 53.5 55.5t80.5 18.5q48 0 74 -18.5t26 -58.5q0 -26 -18 -45.5t-50 -19.5q-9 0 -19 3.5t-18.5 10t-14.5 17t-6 24.5q-18 0 -27 -11t-16 -26q-9 -21 -16.5 -37
t-16.5 -29.5t-21.5 -24.5t-32.5 -20v-6q44 -14 69.5 -44.5t50.5 -78.5q14 -26 34.5 -48t58.5 -24l64 -3l-15 -196h-70l-6 6l-3 116q-46 1 -80 17.5t-60 45.5q-21 23 -38 50.5t-31 58.5q-15 32 -36 50t-69 18v-161l73 -10l-5 -62h-256l-3 62l72 10v161q-48 0 -69 -18t-36 -50
q-14 -31 -31 -58.5t-38 -50.5q-26 -29 -60.5 -46t-81.5 -17q-29 0 -49 3.5t-40 12.5l4 58l57 3q38 2 58.5 24t34.5 48q25 48 50.5 78.5t69.5 44.5v6q-20 9 -32.5 20t-21.5 24.5t-16.5 29.5t-16.5 37q-7 15 -16 26t-27 11q0 -14 -6 -24.5t-14.5 -17t-18.5 -10t-19 -3.5
q-32 0 -50 19.5t-18 45.5q0 40 26 58.5t74 18.5q49 0 80.5 -18.5t53.5 -55.5q10 -18 16 -31t10.5 -24.5t10 -22t16.5 -22.5q28 -13 49.5 -20t50.5 -9v125l-72 10l5 62h255z" />
    <glyph glyph-name="uni0498" unicode="&#x498;" horiz-adv-x="722" 
d="M36 563q80 38 159.5 55t159.5 17q62 0 115 -8.5t92 -29.5t61.5 -55.5t22.5 -86.5q0 -36 -17.5 -67.5t-54.5 -47.5v-5q58 -15 84 -53t26 -92q0 -63 -29 -103.5t-74 -64.5t-100 -34t-107 -12l-26 -35q44 0 75 -23t31 -68q0 -52 -38.5 -85.5t-100.5 -33.5q-29 0 -57.5 6
t-49.5 20l17 48q20 -8 38 -10.5t34 -2.5q32 0 53.5 12.5t21.5 38.5q0 20 -13.5 29t-32.5 9q-26 0 -48 -7l-12 19l28 83q-73 5 -139.5 25t-129.5 64l6 154h72l30 -100q42 -30 98.5 -45t115.5 -15q34 0 72 6t69.5 20t52 38.5t20.5 62.5q0 103 -108 103h-222v83h203
q42 0 65.5 21t23.5 62q0 27 -12.5 45t-34.5 29.5t-52.5 16.5t-66.5 5q-60 0 -107.5 -9t-90.5 -30l-42 -118h-67z" />
    <glyph glyph-name="uni0499" unicode="&#x499;" horiz-adv-x="603" 
d="M35 459q63 32 123.5 46.5t127.5 14.5q33 0 79 -5t87.5 -20.5t70.5 -45.5t29 -79q0 -19 -8.5 -35.5t-22 -29.5t-30.5 -21.5t-35 -12.5v-4q23 -4 45.5 -13t40 -23.5t28.5 -35t11 -47.5q0 -47 -26.5 -78.5t-67.5 -50.5t-90 -27.5t-93 -10.5l-22 -30q41 0 70 -21.5t29 -63.5
q0 -48 -36 -79.5t-93 -31.5q-28 0 -54 5.5t-46 19.5l16 44q18 -7 35 -9.5t32 -2.5q30 0 50 11.5t20 36.5q0 19 -13 27t-30 8q-14 0 -24 -1.5t-21 -4.5l-11 17l26 76q-51 3 -99.5 15t-103.5 36l10 156h62l16 -88q29 -20 70.5 -30.5t92.5 -10.5q30 0 61 2.5t56.5 11.5t42 27
t16.5 49q0 37 -30 54.5t-99 17.5h-140l-15 72l5 6h147q18 0 36.5 1.5t33.5 8.5t24.5 21t9.5 38q0 39 -39.5 56t-107.5 17q-42 0 -80 -8.5t-76 -28.5l-20 -96h-61z" />
    <glyph glyph-name="uni049A" unicode="&#x49a;" horiz-adv-x="818" 
d="M342 610l5 -60l-98 -21v-170q45 0 89 11t76 33l67 139q20 43 62.5 63.5t102.5 20.5q55 0 87.5 -21.5t32.5 -64.5t-24.5 -64t-60.5 -21q-31 0 -54 18.5t-27 48.5q-17 0 -27.5 -8.5t-18.5 -23.5l-43 -100q-10 -17 -26.5 -31.5t-37.5 -22.5v-6q24 -2 48 -20.5t48 -48.5
l104 -131q33 -42 59 -55.5t46 -13.5h51l5 -4l-25 -202h-75l-6 6l-8 124q-30 0 -54 6.5t-45 19.5t-40 33.5t-40 50.5l-103 149q-17 23 -43.5 33t-55.5 10h-64v-204l98 -21l-5 -62h-308l-5 62l99 21v446l-99 21l5 60h308z" />
    <glyph glyph-name="uni049B" unicode="&#x49b;" horiz-adv-x="699" 
d="M665 -135h-65l-6 6l-3 122q-45 2 -78.5 18.5t-59.5 44.5q-32 34 -56 73t-44 64q-11 12 -21 20t-24 12t-35.5 6t-54.5 2v-162l71 -10l-5 -61h-254l-5 61l72 10v358l-72 9l5 62h254l5 -62l-71 -9v-126q38 1 77 8t66 19q14 12 21.5 22.5t13.5 22.5t11.5 25.5t16.5 31.5
q22 37 54.5 55.5t81.5 18.5q48 0 74 -18.5t26 -58.5q0 -26 -18 -45.5t-50 -19.5q-9 0 -19 3.5t-18.5 10t-14.5 17t-6 24.5q-18 0 -27 -11t-16 -26q-9 -21 -18 -37t-20.5 -29.5t-26 -24.5t-34.5 -20v-6q20 -2 36.5 -11.5t30.5 -23.5t26 -32t24 -37q10 -17 22.5 -33t27 -28.5
t31 -20.5t35.5 -9l65 -3z" />
    <glyph glyph-name="uni049C" unicode="&#x49c;" horiz-adv-x="826" 
d="M376 480l-4 -102q15 5 28.5 11t24.5 14l67 139q20 43 62.5 63.5t102.5 20.5q55 0 87.5 -21.5t32.5 -64.5t-24.5 -64t-60.5 -21q-31 0 -54 18.5t-27 48.5q-17 0 -27.5 -8.5t-18.5 -23.5l-43 -100q-10 -17 -26.5 -31.5t-37.5 -22.5v-6q24 -2 48 -20.5t48 -48.5l104 -131
q33 -42 59 -55.5t46 -13.5h31l10 -59q-20 -8 -40.5 -12.5t-46.5 -4.5q-32 0 -58 6t-48.5 19t-43 34t-41.5 51l-103 149q-10 14 -23 22.5t-28 13.5v-124h-73v131h-49v-204l98 -21l-5 -62h-308l-5 62l99 21v446l-99 21l5 60h308l5 -60l-98 -21v-170q23 0 49 3v120l74 4z" />
    <glyph glyph-name="uni049D" unicode="&#x49d;" horiz-adv-x="709" 
d="M326 390l-3 -74q12 3 23.5 6t20.5 8q27 22 39 48t28 51q10 16 21.5 30t27.5 24.5t37 16.5t50 6q48 0 74 -18.5t26 -58.5q0 -26 -18 -45.5t-50 -19.5q-9 0 -19 3.5t-18.5 10t-14.5 17t-6 24.5q-18 0 -27 -11t-16 -26q-9 -21 -18 -37t-20.5 -29.5t-26 -24.5t-34.5 -20v-6
q20 -2 36.5 -11.5t30.5 -23.5t26 -32t24 -37q10 -17 22.5 -33t27 -28.5t31 -20.5t35.5 -9l57 -3l4 -58q-20 -9 -40 -12.5t-49 -3.5q-47 0 -82.5 17t-61.5 46q-32 34 -56 73t-44 64q-18 21 -41 29v-96h-71v106q-8 1 -16 1h-17v-162l71 -10l-5 -61h-254l-5 61l72 10v358l-72 9
l5 62h254l5 -62l-71 -9v-126h16t17 1v88l72 4z" />
    <glyph glyph-name="uni04A0" unicode="&#x4a0;" horiz-adv-x="921" 
d="M35 616l10 2l163 -8h239l5 -60l-98 -21v-170q45 0 89 11t76 33l67 139q20 43 62.5 63.5t102.5 20.5q55 0 87.5 -21.5t32.5 -64.5t-24.5 -64t-60.5 -21q-31 0 -54 18.5t-27 48.5q-17 0 -27.5 -8.5t-18.5 -23.5l-43 -100q-10 -17 -26.5 -31.5t-37.5 -22.5v-6
q24 -2 48 -20.5t48 -48.5l104 -131q33 -42 59 -55.5t46 -13.5h31l10 -59q-20 -8 -40.5 -12.5t-46.5 -4.5q-32 0 -57 5t-47.5 17t-43 33.5t-43.5 54.5l-103 149q-17 23 -43.5 33t-55.5 10h-64v-204l98 -21l-5 -62h-308l-5 62l99 21v443l-101 5l-40 -155l-74 6z" />
    <glyph glyph-name="uni04A1" unicode="&#x4a1;" horiz-adv-x="774" 
d="M27 500l9 5l109 -5h222l5 -62l-71 -9v-126q38 1 72 8t61 19q14 12 21.5 22.5t13.5 22.5t11.5 25.5t16.5 31.5q22 37 54.5 55.5t81.5 18.5q48 0 74 -18.5t26 -58.5q0 -26 -18 -45.5t-50 -19.5q-9 0 -19 3.5t-18.5 10t-14.5 17t-6 24.5q-18 0 -27 -11t-16 -26
q-9 -21 -18 -37t-20.5 -29.5t-26 -24.5t-34.5 -20v-6q20 -2 36.5 -11.5t30.5 -23.5t26 -32t24 -37q10 -17 22.5 -33t27 -28.5t31 -20.5t35.5 -9l57 -3l4 -58q-20 -9 -40 -12.5t-49 -3.5q-47 0 -82.5 17t-61.5 46q-32 34 -56 73t-44 64q-11 12 -19 20t-21 12t-32.5 6t-52.5 2
v-162l71 -10l-5 -61h-254l-5 61l72 10v357l-70 6l-35 -114l-54 9z" />
    <glyph glyph-name="uni04A2" unicode="&#x4a2;" horiz-adv-x="874" 
d="M255 353h364v175l-98 21l5 61h308l5 -61l-98 -21v-446l116 -21l5 -6l-25 -200h-75l-6 6l-5 139h-225l-5 61l98 21v186h-364v-186l98 -21l-5 -61h-308l-5 61l98 21v446l-98 21l5 61h308l5 -61l-98 -21v-175z" />
    <glyph glyph-name="uni04A3" unicode="&#x4a3;" horiz-adv-x="727" 
d="M285 500l5 -61l-72 -11v-124h290v124l-71 11l5 61h254l5 -61l-72 -11v-356l84 -11l-25 -196h-65l-6 6l-4 129h-171l-5 61l71 11v154h-290v-154l72 -11l-5 -61h-255l-5 61l72 11v356l-72 11l5 61h255z" />
    <glyph glyph-name="uni04AA" unicode="&#x4aa;" horiz-adv-x="726" 
d="M593 395l-16 112q-33 25 -76.5 36.5t-88.5 11.5q-57 0 -104 -16.5t-81.5 -48.5t-53.5 -78.5t-19 -106.5t19 -106.5t53.5 -78.5t81.5 -48.5t104 -16.5q45 0 88.5 11.5t76.5 36.5l16 120h80l10 -190q-62 -29 -126.5 -42.5t-133.5 -15.5q-7 -18 -9.5 -33.5t-2.5 -30.5
q0 -38 19 -51t42 -13q9 0 18.5 1t19.5 3l19 -44q-23 -14 -45 -19.5t-53 -5.5q-21 0 -39.5 7.5t-33 21t-22.5 32.5t-8 43q0 47 35 91q-78 5 -140 32.5t-104.5 71t-65.5 101t-23 123.5q0 70 25.5 130t73.5 104.5t117 70t156 25.5q75 0 145 -12.5t136 -41.5l-10 -191z" />
    <glyph glyph-name="uni04AB" unicode="&#x4ab;" horiz-adv-x="624" 
d="M572 268h-73l-19 144q-32 14 -64.5 21t-71.5 7q-47 0 -83 -14t-61 -39t-38 -60t-13 -77t11.5 -76.5t34.5 -60t57.5 -39.5t81.5 -14q35 0 62.5 3.5t51 11t45.5 19t46 28.5l43 -72q-50 -35 -105.5 -51t-118.5 -18q-5 -14 -6 -25t-1 -19q0 -31 17 -43t43 -12q13 0 28 3
l17 -40q-17 -12 -37.5 -18t-42.5 -6q-42 0 -71 25.5t-29 67.5q0 34 23 68q-65 5 -115.5 27.5t-85 58.5t-53 82.5t-18.5 99.5q0 56 21.5 105.5t62.5 86t100 57.5t133 21q76 0 136.5 -14t105.5 -37z" />
    <glyph glyph-name="uni04AE" unicode="&#x4ae;" horiz-adv-x="877" 
d="M360 610l5 -61l-87 -18l183 -254h9l172 249l-109 23l5 61h309l5 -61l-98 -21l-242 -335v-111l98 -21l-5 -61h-308l-5 61l98 21v113l-272 335l-93 19l5 61h330z" />
    <glyph glyph-name="uni04AF" unicode="&#x4af;" horiz-adv-x="781" 
d="M309 500l5 -62l-76 -14l170 -320h4l172 320l-71 14l6 62h241l5 -62l-65 -11l-237 -405v-118l71 -10l-4 -61h-246l-4 61l62 10v114l-248 402l-77 18l5 62h287z" />
    <glyph glyph-name="uni04B0" unicode="&#x4b0;" horiz-adv-x="877" 
d="M360 610l5 -61l-87 -18l183 -256h9l172 251l-109 23l5 61h309l5 -61l-98 -21l-186 -258l95 1l7 -6l-10 -81l-148 5v-107l98 -21l-5 -61h-308l-5 61l98 21v111l-167 6l-7 6l18 64h95l-211 261l-93 19l5 61h330z" />
    <glyph glyph-name="uni04B1" unicode="&#x4b1;" horiz-adv-x="781" 
d="M309 500l5 -62l-76 -14l170 -320h4l172 320l-71 14l6 62h241l5 -62l-65 -11l-202 -345h110l7 -6l-10 -81l-142 5v-96l71 -10l-4 -61h-246l-4 61l62 10v100l-144 6l-7 6l19 66h92l-208 338l-77 18l5 62h287z" />
    <glyph glyph-name="uni04B2" unicode="&#x4b2;" horiz-adv-x="868" 
d="M387 610l5 -61l-82 -20l136 -147h12l136 150l-77 17l5 61h289l5 -61l-96 -21l-195 -204l223 -244l103 -19l4 -8l-24 -198h-75l-6 6l-5 139h-238l-5 61l82 19l-166 187h-10l-155 -184l113 -22l-5 -61h-330l-5 61l99 22l216 242l-196 203l-104 21l5 61h341z" />
    <glyph glyph-name="uni04B3" unicode="&#x4b3;" horiz-adv-x="735" 
d="M305 500l5 -61l-49 -7l119 -118h4l112 116l-58 9l5 61h239l5 -61l-66 -11l-175 -169l197 -188l65 -10l-19 -196h-71l-6 6l-4 129h-175l-5 60l57 10l-130 139h-4l-129 -139l61 -10l-5 -60h-248l-5 60l63 10l201 191l-182 168l-70 10l5 61h263z" />
    <glyph glyph-name="uni04B8" unicode="&#x4b8;" horiz-adv-x="850" 
d="M466 378l-4 -102q38 2 69 8t67 17v227l-98 20l5 62h307l5 -62l-98 -20v-446l98 -20l-5 -62h-307l-5 62l98 20v141q-34 -13 -67.5 -20.5t-68.5 -11.5v-80h-80v76q-50 0 -95.5 11.5t-81 37.5t-56.5 67.5t-21 101.5v123l-98 20l5 62h308l5 -62l-97 -20v-110q0 -33 10 -57.5
t27.5 -41t41.5 -26t52 -13.5v100l81 4z" />
    <glyph glyph-name="uni04B9" unicode="&#x4b9;" horiz-adv-x="724" 
d="M393 313l-4 -107q39 4 65.5 14t51.5 25v183l-72 11l5 61h255l5 -61l-71 -11v-356l71 -11l-5 -61h-258l-5 61l75 11v95q-19 -12 -50.5 -23t-66.5 -16l-3 -71l-70 3v66q-107 7 -166.5 62.5t-59.5 161.5v78l-72 11l5 61h255l5 -61l-71 -11v-98q0 -58 25 -87t79 -36v108l74 4
z" />
    <glyph glyph-name="uni04BA" unicode="&#x4ba;" horiz-adv-x="849" 
d="M342 634l5 -62l-98 -20v-81q52 24 99.5 35t109.5 11q49 0 96 -12t84 -38.5t59 -68.5t22 -102v-214l98 -20l-5 -62h-308l-5 62l97 20v201q0 42 -12.5 70t-35.5 45t-56 24.5t-74 7.5q-47 0 -87 -8.5t-82 -28.5v-311l98 -20l-5 -62h-307l-5 62l98 20v470l-98 20l5 62h307z
" />
    <glyph glyph-name="uni04BB" unicode="&#x4bb;" horiz-adv-x="748" 
d="M209 665l9 -6v-193q38 26 86.5 40t102.5 14q64 0 111.5 -17t79 -48t47 -73t15.5 -93v-218l71 -10l-5 -61h-254l-5 61l72 10v228q0 64 -34.5 101t-117.5 37q-54 0 -95 -14t-74 -43v-309l71 -10l-5 -61h-254l-5 61l71 10v512l-69 9l-6 61z" />
    <glyph glyph-name="uni04D0" unicode="&#x4d0;" horiz-adv-x="885" 
d="M508 628l269 -548l91 -19l-5 -61h-313l-5 61l93 20l-43 90h-327l-45 -90l94 -20l-5 -61h-292l-5 61l100 21l214 391l55 121l118 34h6zM308 253h249l-114 251h-10zM359 827q14 -29 37.5 -42.5t61.5 -13.5t61.5 13.5t37.5 42.5l64 -19q-17 -60 -59 -92t-104 -32t-104 32
t-59 92z" />
    <glyph glyph-name="uni04D1" unicode="&#x4d1;" horiz-adv-x="695" 
d="M464 256q-58 0 -108 -3t-93 -10q-54 -8 -78 -30t-24 -64q0 -36 29 -60.5t93 -24.5q104 0 181 43v149zM90 466q57 29 117 41.5t129 12.5q65 0 112.5 -13t78 -37t45 -57.5t14.5 -73.5v-237q0 -16 7.5 -26t23.5 -10h45l5 -66q-21 -7 -38.5 -10t-37.5 -3q-44 0 -66.5 17
t-30.5 48q-41 -35 -98 -53.5t-126 -18.5q-44 0 -86 7.5t-75 27t-53 51.5t-20 82q0 36 15.5 64.5t43.5 49t67 33.5t87 20q54 8 104.5 10t110.5 2v34q0 33 -33.5 54.5t-112.5 21.5q-45 0 -94.5 -10.5t-105.5 -35.5zM240 693q11 -23 37 -35.5t54 -12.5q29 0 54.5 12.5
t35.5 35.5l63 -18q-16 -58 -57 -87.5t-96 -29.5q-54 0 -96 29t-57 87z" />
    <glyph glyph-name="uni04D2" unicode="&#x4d2;" horiz-adv-x="885" 
d="M508 628l269 -548l91 -19l-5 -61h-313l-5 61l93 20l-43 90h-327l-45 -90l94 -20l-5 -61h-292l-5 61l100 21l214 391l55 121l118 34h6zM308 253h249l-114 251h-10zM319 803q16 0 32 -5t29 -14.5t20.5 -23.5t7.5 -32t-7.5 -32t-20.5 -23.5t-29 -14.5t-32 -5q-17 0 -33 5
t-28.5 14.5t-20 23.5t-7.5 32t7.5 32t20 23.5t28.5 14.5t33 5zM577 803q16 0 32 -5t29 -14.5t20.5 -23.5t7.5 -32t-7.5 -32t-20.5 -23.5t-29 -14.5t-32 -5q-17 0 -33 5t-28.5 14.5t-20 23.5t-7.5 32t7.5 32t20 23.5t28.5 14.5t33 5z" />
    <glyph glyph-name="uni04D3" unicode="&#x4d3;" horiz-adv-x="695" 
d="M464 256q-58 0 -108 -3t-93 -10q-54 -8 -78 -30t-24 -64q0 -36 29 -60.5t93 -24.5q104 0 181 43v149zM90 466q57 29 117 41.5t129 12.5q65 0 112.5 -13t78 -37t45 -57.5t14.5 -73.5v-237q0 -16 7.5 -26t23.5 -10h45l5 -66q-21 -7 -38.5 -10t-37.5 -3q-44 0 -66.5 17
t-30.5 48q-41 -35 -98 -53.5t-126 -18.5q-44 0 -86 7.5t-75 27t-53 51.5t-20 82q0 36 15.5 64.5t43.5 49t67 33.5t87 20q54 8 104.5 10t110.5 2v34q0 33 -33.5 54.5t-112.5 21.5q-45 0 -94.5 -10.5t-105.5 -35.5zM218 688q29 0 50.5 -17t21.5 -44t-21.5 -44t-50.5 -17
t-50.5 17t-21.5 44t21.5 44t50.5 17zM453 688q29 0 50.5 -17t21.5 -44t-21.5 -44t-50.5 -17t-50.5 17t-21.5 44t21.5 44t50.5 17z" />
    <glyph glyph-name="uni04D4" unicode="&#x4d4;" horiz-adv-x="1150" 
d="M376 616l173 -6h362l193 6h6l-15 -211l-78 8l-5 112h-320v-157h175l31 74l60 -5v-242l-61 -4l-30 93h-175v-198h320l39 137l74 -4l-19 -219h-629l-5 61l98 21v67h-297l-50 -69l81 -19l-5 -61h-282l-5 61l88 21l341 447l-89 19l14 68h10zM331 231h239v289h-23z" />
    <glyph glyph-name="uni04D5" unicode="&#x4d5;" horiz-adv-x="1039" 
d="M80 466q57 29 117 41.5t129 12.5q78 0 125 -19t76 -52q39 33 89 52t121 19q135 0 205 -71t70 -194q0 -11 -1 -22.5t-4 -22.5l-6 -6h-245l-197 11q8 -76 49 -115.5t122 -39.5q35 0 61 3t47.5 9.5t42 18t44.5 28.5l43 -72q-27 -19 -53 -32t-54 -20.5t-60 -11t-71 -3.5
q-79 0 -133 23t-92 68q-62 -53 -122 -72t-123 -19q-44 0 -86 7.5t-75 27t-53 51.5t-20 82q0 36 15.5 64.5t43.5 49t67 33.5t87 20q53 7 99.5 9.5t105.5 2.5v34q0 16 -6.5 30t-22 24.5t-42 16t-65.5 5.5q-45 0 -94.5 -10.5t-105.5 -35.5zM444 256q-58 0 -103 -3t-88 -10
q-54 -8 -78 -30t-24 -64q0 -36 29 -60.5t93 -24.5q54 0 93.5 14t77.5 49v129zM896 287q-4 82 -45.5 117.5t-113.5 35.5q-83 0 -125 -39t-53 -114h337z" />
    <glyph glyph-name="uni04D6" unicode="&#x4d6;" horiz-adv-x="739" 
d="M497 610l175 6l7 -4l-13 -204l-79 4l-9 113h-328v-156h184l31 73l62 -5v-241l-65 -5l-28 94h-184v-200h330l40 141l80 -7l-20 -219h-645l-5 61l98 21v446l-98 21l5 61h462zM292 816q14 -29 37.5 -42.5t61.5 -13.5t61.5 13.5t37.5 42.5l64 -19q-17 -60 -59 -92t-104 -32
t-104 32t-59 92z" />
    <glyph glyph-name="uni04D7" unicode="&#x4d7;" horiz-adv-x="653" 
d="M504 287q-4 82 -48.5 117.5t-116.5 35.5q-83 0 -130 -39t-58 -114h353zM358 204l-207 11q8 -76 54 -115.5t127 -39.5q35 0 62.5 3t51 9.5t45.5 18t46 28.5l43 -72q-54 -38 -112 -52.5t-136 -14.5q-73 0 -130 21t-96 58t-59 86t-20 105t21 105.5t61 86t98 57.5t132 21
q67 0 120.5 -18.5t90.5 -52.5t56.5 -83.5t19.5 -110.5q0 -11 -1 -22.5t-4 -22.5l-6 -6h-257zM239 693q11 -23 37 -35.5t54 -12.5q29 0 54.5 12.5t35.5 35.5l63 -18q-16 -58 -57 -87.5t-96 -29.5q-54 0 -96 29t-57 87z" />
    <glyph glyph-name="uni04D8" unicode="&#x4d8;" horiz-adv-x="775" 
d="M92 424l22 147q36 18 67.5 30.5t63 20t66 10.5t76.5 3q91 0 158 -24.5t111.5 -68.5t66.5 -104.5t22 -132.5t-24.5 -132.5t-71 -104.5t-113 -68.5t-149.5 -24.5t-149.5 22.5t-112.5 64.5t-70.5 102t-24.5 136v22t2 22l20 13h349l228 -11q-12 99 -76.5 151.5t-165.5 52.5
q-38 0 -84 -8t-90 -25l-66 -110zM153 272q20 -215 234 -215q46 0 86.5 13.5t72 40.5t51.5 67.5t24 93.5h-468z" />
    <glyph glyph-name="afii10846" unicode="&#x4d9;" horiz-adv-x="653" 
d="M149 218q4 -82 46.5 -120t114.5 -38q173 0 194 158h-355zM295 301l209 -11q-8 76 -50 113t-123 37q-35 0 -62.5 -3t-51 -9.5t-45.5 -18t-46 -28.5l-43 72q54 38 112 52.5t136 14.5q73 0 128.5 -21t92.5 -58t55.5 -86t18.5 -105t-21 -105.5t-61 -86t-99 -57.5t-135 -21
q-68 0 -120.5 19t-88.5 54.5t-55 85t-19 111.5q0 11 1 22.5t4 22.5l6 6h257z" />
    <glyph glyph-name="uni04DA" unicode="&#x4da;" horiz-adv-x="775" 
d="M92 424l22 147q36 18 67.5 30.5t63 20t66 10.5t76.5 3q91 0 158 -24.5t111.5 -68.5t66.5 -104.5t22 -132.5t-24.5 -132.5t-71 -104.5t-113 -68.5t-149.5 -24.5t-149.5 22.5t-112.5 64.5t-70.5 102t-24.5 136v22t2 22l20 13h349l228 -11q-12 99 -76.5 151.5t-165.5 52.5
q-38 0 -84 -8t-90 -25l-66 -110zM153 272q20 -215 234 -215q46 0 86.5 13.5t72 40.5t51.5 67.5t24 93.5h-468zM271 838q16 0 32 -5t29 -14.5t20.5 -23.5t7.5 -32t-7.5 -32t-20.5 -23.5t-29 -14.5t-32 -5q-17 0 -33 5t-28.5 14.5t-20 23.5t-7.5 32t7.5 32t20 23.5t28.5 14.5
t33 5zM529 838q16 0 32 -5t29 -14.5t20.5 -23.5t7.5 -32t-7.5 -32t-20.5 -23.5t-29 -14.5t-32 -5q-17 0 -33 5t-28.5 14.5t-20 23.5t-7.5 32t7.5 32t20 23.5t28.5 14.5t33 5z" />
    <glyph glyph-name="uni04DB" unicode="&#x4db;" horiz-adv-x="653" 
d="M209 688q29 0 50.5 -17t21.5 -44t-21.5 -44t-50.5 -17t-50.5 17t-21.5 44t21.5 44t50.5 17zM444 688q29 0 50.5 -17t21.5 -44t-21.5 -44t-50.5 -17t-50.5 17t-21.5 44t21.5 44t50.5 17zM149 218q4 -82 46.5 -120t114.5 -38q173 0 194 158h-355zM295 301l209 -11
q-8 76 -50 113t-123 37q-35 0 -62.5 -3t-51 -9.5t-45.5 -18t-46 -28.5l-43 72q54 38 112 52.5t136 14.5q73 0 128.5 -21t92.5 -58t55.5 -86t18.5 -105t-21 -105.5t-61 -86t-99 -57.5t-135 -21q-68 0 -120.5 19t-88.5 54.5t-55 85t-19 111.5q0 11 1 22.5t4 22.5l6 6h257z" />
    <glyph glyph-name="uni04DC" unicode="&#x4dc;" horiz-adv-x="1153" 
d="M729 610l5 -61l-97 -20v-170q38 2 70.5 11.5t61.5 29.5l73 142q43 84 163 84q55 0 87.5 -21.5t32.5 -64.5t-24.5 -64t-60.5 -21q-31 0 -54 18.5t-27 48.5q-32 0 -46 -32l-43 -96q-9 -20 -26 -34t-38 -22v-6q24 -2 49.5 -20.5t46.5 -50.5l84 -131q29 -45 57 -57t48 -12h31
l10 -59q-20 -8 -40.5 -12.5t-46.5 -4.5q-32 0 -57.5 4t-47.5 16t-41 33.5t-38 56.5l-83 152q-14 25 -37 32.5t-49 7.5h-55v-205l97 -20l-5 -62h-306l-5 62l97 20v205h-55q-26 0 -49 -7.5t-37 -32.5l-83 -152q-19 -35 -38.5 -56.5t-41 -33.5t-47 -16t-57.5 -4
q-26 0 -46.5 4.5t-40.5 12.5l10 59h31q20 0 48 12t57 57l84 131q21 32 46.5 50.5t49.5 20.5v6q-21 8 -38 22t-26 34l-43 96q-14 32 -46 32q-4 -30 -27 -48.5t-54 -18.5q-36 0 -60.5 21t-24.5 64t32.5 64.5t87.5 21.5q120 0 163 -84l73 -142q29 -20 61 -29.5t71 -11.5v170
l-97 20l5 61h306zM447 811q16 0 32 -5t29 -14.5t20.5 -23.5t7.5 -32t-7.5 -32t-20.5 -23.5t-29 -14.5t-32 -5q-17 0 -33 5t-28.5 14.5t-20 23.5t-7.5 32t7.5 32t20 23.5t28.5 14.5t33 5zM705 811q16 0 32 -5t29 -14.5t20.5 -23.5t7.5 -32t-7.5 -32t-20.5 -23.5t-29 -14.5
t-32 -5q-17 0 -33 5t-28.5 14.5t-20 23.5t-7.5 32t7.5 32t20 23.5t28.5 14.5t33 5z" />
    <glyph glyph-name="uni04DD" unicode="&#x4dd;" horiz-adv-x="969" 
d="M623 500l4 -62l-73 -10v-125q15 1 27 3.5t23 6t23 8.5t26 11q10 12 16 22.5t11 22t10.5 24.5t16.5 31q22 37 53.5 55.5t80.5 18.5q48 0 74 -18.5t26 -58.5q0 -26 -18 -45.5t-50 -19.5q-9 0 -19 3.5t-18.5 10t-14.5 17t-6 24.5q-18 0 -27 -11t-16 -26q-9 -21 -16.5 -37
t-16.5 -29.5t-21.5 -24.5t-32.5 -20v-6q44 -14 69.5 -44.5t50.5 -78.5q14 -26 34.5 -48t58.5 -24l57 -3l4 -58q-20 -9 -40 -12.5t-49 -3.5q-47 0 -81.5 17t-60.5 46q-21 23 -38 50.5t-31 58.5q-15 32 -36 50t-69 18v-161l73 -10l-5 -62h-256l-3 62l72 10v161q-48 0 -69 -18
t-36 -50q-14 -31 -31 -58.5t-38 -50.5q-26 -29 -60.5 -46t-81.5 -17q-29 0 -49 3.5t-40 12.5l4 58l57 3q38 2 58.5 24t34.5 48q25 48 50.5 78.5t69.5 44.5v6q-20 9 -32.5 20t-21.5 24.5t-16.5 29.5t-16.5 37q-7 15 -16 26t-27 11q0 -14 -6 -24.5t-14.5 -17t-18.5 -10
t-19 -3.5q-32 0 -50 19.5t-18 45.5q0 40 26 58.5t74 18.5q49 0 80.5 -18.5t53.5 -55.5q10 -18 16 -31t10.5 -24.5t10 -22t16.5 -22.5q28 -13 49.5 -20t50.5 -9v125l-72 10l5 62h255zM367 679q29 0 50.5 -17t21.5 -44t-21.5 -44t-50.5 -17t-50.5 17t-21.5 44t21.5 44t50.5 17
zM602 679q29 0 50.5 -17t21.5 -44t-21.5 -44t-50.5 -17t-50.5 17t-21.5 44t21.5 44t50.5 17z" />
    <glyph glyph-name="uni04DE" unicode="&#x4de;" horiz-adv-x="722" 
d="M69 563q40 19 76.5 32.5t73 22.5t73 13t76.5 4q62 0 115 -8.5t92 -29.5t61.5 -55.5t22.5 -86.5q0 -36 -19.5 -68t-55.5 -47v-5q58 -15 85.5 -53t27.5 -92q0 -47 -16 -81t-43.5 -57.5t-63 -38.5t-74.5 -23.5t-78.5 -11.5t-74.5 -3q-42 0 -79 5t-72 15.5t-69 28t-69 41.5
l6 154h72l30 -100q42 -30 88.5 -45t105.5 -15q34 0 72 6t69.5 20t52 38.5t20.5 62.5q0 103 -108 103h-222v83h203q42 0 65.5 21t23.5 62q0 27 -12.5 45t-34.5 29.5t-52.5 16.5t-66.5 5q-30 0 -53.5 -2t-44 -7t-40 -12.5t-40.5 -17.5l-42 -118h-67zM218 826q16 0 32 -5
t29 -14.5t20.5 -23.5t7.5 -32t-7.5 -32t-20.5 -23.5t-29 -14.5t-32 -5q-17 0 -33 5t-28.5 14.5t-20 23.5t-7.5 32t7.5 32t20 23.5t28.5 14.5t33 5zM476 826q16 0 32 -5t29 -14.5t20.5 -23.5t7.5 -32t-7.5 -32t-20.5 -23.5t-29 -14.5t-32 -5q-17 0 -33 5t-28.5 14.5t-20 23.5
t-7.5 32t7.5 32t20 23.5t28.5 14.5t33 5z" />
    <glyph glyph-name="uni04DF" unicode="&#x4df;" horiz-adv-x="603" 
d="M35 459q63 32 123.5 46.5t127.5 14.5q33 0 79 -5t87.5 -20.5t70.5 -45.5t29 -79q0 -19 -8.5 -35.5t-22 -29.5t-30.5 -21.5t-35 -12.5v-4q23 -4 45.5 -13t40 -23.5t28.5 -35t11 -47.5q0 -51 -31 -83.5t-77 -51.5t-99 -26t-98 -7q-64 0 -122 12t-125 41l10 156h62l16 -88
q29 -20 70.5 -30.5t92.5 -10.5q30 0 61 2.5t56.5 11.5t42 27t16.5 49q0 37 -30 54.5t-99 17.5h-140l-15 72l5 6h147q18 0 36.5 1.5t33.5 8.5t24.5 21t9.5 38q0 39 -39.5 56t-107.5 17q-42 0 -80 -8.5t-76 -28.5l-20 -96h-61zM184 688q29 0 50.5 -17t21.5 -44t-21.5 -44
t-50.5 -17t-50.5 17t-21.5 44t21.5 44t50.5 17zM419 688q29 0 50.5 -17t21.5 -44t-21.5 -44t-50.5 -17t-50.5 17t-21.5 44t21.5 44t50.5 17z" />
    <glyph glyph-name="uni04E2" unicode="&#x4e2;" horiz-adv-x="889" 
d="M251 209l384 302v17l-98 21l5 61h307l5 -61l-98 -21v-446l98 -21l-5 -61h-307l-5 61l98 21v235l6 90h-4l-383 -302v-23l98 -21l-5 -61h-307l-5 61l98 21v446l-98 21l5 61h307l5 -61l-98 -21v-217l-7 -102h4zM261 761l124 -5h250v-80h-376l-5 82z" />
    <glyph glyph-name="uni04E3" unicode="&#x4e3;" horiz-adv-x="735" 
d="M286 500l5 -61l-73 -11v-250l298 230v20l-70 11l5 61h254l5 -61l-73 -11v-355l73 -12l-5 -61h-254l-5 61l70 12v242l-298 -229v-13l73 -12l-5 -61h-256l-5 61l72 12v355l-72 11l5 61h256zM193 644l109 -4h245v-73h-356l-4 74z" />
    <glyph glyph-name="uni04E4" unicode="&#x4e4;" horiz-adv-x="889" 
d="M251 209l384 302v17l-98 21l5 61h307l5 -61l-98 -21v-446l98 -21l-5 -61h-307l-5 61l98 21v235l6 90h-4l-383 -302v-23l98 -21l-5 -61h-307l-5 61l98 21v446l-98 21l5 61h307l5 -61l-98 -21v-217l-7 -102h4zM315 822q16 0 32 -5t29 -14.5t20.5 -23.5t7.5 -32t-7.5 -32
t-20.5 -23.5t-29 -14.5t-32 -5q-17 0 -33 5t-28.5 14.5t-20 23.5t-7.5 32t7.5 32t20 23.5t28.5 14.5t33 5zM573 822q16 0 32 -5t29 -14.5t20.5 -23.5t7.5 -32t-7.5 -32t-20.5 -23.5t-29 -14.5t-32 -5q-17 0 -33 5t-28.5 14.5t-20 23.5t-7.5 32t7.5 32t20 23.5t28.5 14.5
t33 5z" />
    <glyph glyph-name="uni04E5" unicode="&#x4e5;" horiz-adv-x="735" 
d="M286 500l5 -61l-73 -11v-250l298 230v20l-70 11l5 61h254l5 -61l-73 -11v-355l73 -12l-5 -61h-254l-5 61l70 12v242l-298 -229v-13l73 -12l-5 -61h-256l-5 61l72 12v355l-72 11l5 61h256zM250 688q29 0 50.5 -17t21.5 -44t-21.5 -44t-50.5 -17t-50.5 17t-21.5 44t21.5 44
t50.5 17zM485 688q29 0 50.5 -17t21.5 -44t-21.5 -44t-50.5 -17t-50.5 17t-21.5 44t21.5 44t50.5 17z" />
    <glyph glyph-name="uni04E6" unicode="&#x4e6;" 
d="M397 635q83 0 151 -24t116 -67.5t74 -104.5t26 -134q0 -74 -26 -134.5t-74 -104t-116 -67.5t-151 -24t-151 24t-116 67.5t-74 104t-26 134.5q0 73 26 134t74 104.5t116 67.5t151 24zM397 552q-114 0 -178.5 -64.5t-64.5 -182.5t64.5 -182.5t178.5 -64.5t178.5 64.5
t64.5 182.5t-64.5 182.5t-178.5 64.5zM269 834q16 0 32 -5t29 -14.5t20.5 -23.5t7.5 -32t-7.5 -32t-20.5 -23.5t-29 -14.5t-32 -5q-17 0 -33 5t-28.5 14.5t-20 23.5t-7.5 32t7.5 32t20 23.5t28.5 14.5t33 5zM527 834q16 0 32 -5t29 -14.5t20.5 -23.5t7.5 -32t-7.5 -32
t-20.5 -23.5t-29 -14.5t-32 -5q-17 0 -33 5t-28.5 14.5t-20 23.5t-7.5 32t7.5 32t20 23.5t28.5 14.5t33 5z" />
    <glyph glyph-name="uni04E7" unicode="&#x4e7;" horiz-adv-x="688" 
d="M344 520q74 0 133 -21t100 -58t62.5 -86t21.5 -105t-21.5 -105.5t-62.5 -86t-100 -57.5t-133 -21t-133 21t-100 57.5t-62.5 86t-21.5 105.5t21.5 105t62.5 86t100 58t133 21zM344 440q-98 0 -146.5 -51.5t-48.5 -138.5q0 -88 48.5 -139t146.5 -51q97 0 145.5 51t48.5 139
q0 87 -48.5 138.5t-145.5 51.5zM226 688q29 0 50.5 -17t21.5 -44t-21.5 -44t-50.5 -17t-50.5 17t-21.5 44t21.5 44t50.5 17zM461 688q29 0 50.5 -17t21.5 -44t-21.5 -44t-50.5 -17t-50.5 17t-21.5 44t21.5 44t50.5 17z" />
    <glyph glyph-name="uni04E8" unicode="&#x4e8;" 
d="M397 635q83 0 151 -24t116 -67.5t74 -104.5t26 -134q0 -74 -26 -134.5t-74 -104t-116 -67.5t-151 -24t-151 24t-116 67.5t-74 104t-26 134.5q0 73 26 134t74 104.5t116 67.5t151 24zM155 272q9 -103 72.5 -159.5t169.5 -56.5t169 56.5t72 159.5h-483zM637 354
q-14 96 -76.5 148t-163.5 52q-102 0 -164.5 -52t-75.5 -148h480z" />
    <glyph glyph-name="uni04E9" unicode="&#x4e9;" horiz-adv-x="688" 
d="M344 520q74 0 133 -21t100 -58t62.5 -86t21.5 -105t-21.5 -105.5t-62.5 -86t-100 -57.5t-133 -21t-133 21t-100 57.5t-62.5 86t-21.5 105.5t21.5 105t62.5 86t100 58t133 21zM151 218q8 -74 56 -116t137 -42q88 0 136 42t56 116h-385zM534 296q-12 66 -59 105t-131 39
q-85 0 -132.5 -39t-58.5 -105h381z" />
    <glyph glyph-name="uni04EA" unicode="&#x4ea;" 
d="M397 635q83 0 151 -24t116 -67.5t74 -104.5t26 -134q0 -74 -26 -134.5t-74 -104t-116 -67.5t-151 -24t-151 24t-116 67.5t-74 104t-26 134.5q0 73 26 134t74 104.5t116 67.5t151 24zM155 272q9 -103 72.5 -159.5t169.5 -56.5t169 56.5t72 159.5h-483zM637 354
q-14 96 -76.5 148t-163.5 52q-102 0 -164.5 -52t-75.5 -148h480zM268 821q16 0 32 -5t29 -14.5t20.5 -23.5t7.5 -32t-7.5 -32t-20.5 -23.5t-29 -14.5t-32 -5q-17 0 -33 5t-28.5 14.5t-20 23.5t-7.5 32t7.5 32t20 23.5t28.5 14.5t33 5zM526 821q16 0 32 -5t29 -14.5
t20.5 -23.5t7.5 -32t-7.5 -32t-20.5 -23.5t-29 -14.5t-32 -5q-17 0 -33 5t-28.5 14.5t-20 23.5t-7.5 32t7.5 32t20 23.5t28.5 14.5t33 5z" />
    <glyph glyph-name="uni04EB" unicode="&#x4eb;" horiz-adv-x="688" 
d="M344 520q74 0 133 -21t100 -58t62.5 -86t21.5 -105t-21.5 -105.5t-62.5 -86t-100 -57.5t-133 -21t-133 21t-100 57.5t-62.5 86t-21.5 105.5t21.5 105t62.5 86t100 58t133 21zM151 218q8 -74 56 -116t137 -42q88 0 136 42t56 116h-385zM534 296q-12 66 -59 105t-131 39
q-85 0 -132.5 -39t-58.5 -105h381zM226 688q29 0 50.5 -17t21.5 -44t-21.5 -44t-50.5 -17t-50.5 17t-21.5 44t21.5 44t50.5 17zM461 688q29 0 50.5 -17t21.5 -44t-21.5 -44t-50.5 -17t-50.5 17t-21.5 44t21.5 44t50.5 17z" />
    <glyph glyph-name="uni04EC" unicode="&#x4ec;" horiz-adv-x="738" 
d="M55 577q66 31 136 44.5t145 13.5q87 0 156 -25t117 -68.5t73.5 -103t25.5 -129.5t-25.5 -131t-73.5 -106t-117 -71t-156 -26q-75 0 -145 12.5t-136 41.5v166l80 5l26 -97q33 -25 76.5 -36.5t88.5 -11.5q52 0 96 13t77.5 40t54.5 67.5t27 95.5l-316 -8l-9 86l5 9l320 -8
q-6 54 -27.5 92.5t-55 63.5t-77.5 37t-95 12q-45 0 -88.5 -11.5t-76.5 -36.5l-26 -120h-80v190zM214 841q16 0 32 -5t29 -14.5t20.5 -23.5t7.5 -32t-7.5 -32t-20.5 -23.5t-29 -14.5t-32 -5q-17 0 -33 5t-28.5 14.5t-20 23.5t-7.5 32t7.5 32t20 23.5t28.5 14.5t33 5zM472 841
q16 0 32 -5t29 -14.5t20.5 -23.5t7.5 -32t-7.5 -32t-20.5 -23.5t-29 -14.5t-32 -5q-17 0 -33 5t-28.5 14.5t-20 23.5t-7.5 32t7.5 32t20 23.5t28.5 14.5t33 5z" />
    <glyph glyph-name="uni04ED" unicode="&#x4ed;" horiz-adv-x="624" 
d="M48 469q45 23 105.5 37t136.5 14q74 0 131.5 -20.5t96.5 -56.5t59 -85.5t20 -107.5q0 -57 -22 -106.5t-63 -86t-99.5 -57t-130.5 -20.5q-71 0 -133.5 16t-116.5 54l43 72q24 -17 46 -29t46 -19.5t52 -11t63 -3.5q85 0 134 45.5t57 120.5l-242 -11l-10 87l10 5l240 -8
q-11 69 -56 106t-125 37q-39 0 -71.5 -7t-64.5 -22l-19 -144h-73zM188 688q29 0 50.5 -17t21.5 -44t-21.5 -44t-50.5 -17t-50.5 17t-21.5 44t21.5 44t50.5 17zM423 688q29 0 50.5 -17t21.5 -44t-21.5 -44t-50.5 -17t-50.5 17t-21.5 44t21.5 44t50.5 17z" />
    <glyph glyph-name="uni04EE" unicode="&#x4ee;" horiz-adv-x="848" 
d="M325 610l5 -62l-75 -16l184 -309h13l177 306l-91 19l4 62h288l5 -62l-87 -19l-263 -421q-23 -35 -45 -60.5t-46.5 -41.5t-52 -23.5t-60.5 -7.5q-78 0 -122.5 34t-44.5 93q0 35 25 56.5t61 21.5q39 0 57 -20.5t18 -45.5q0 -14 -1.5 -27.5t-6.5 -21.5q6 -5 13.5 -6.5
t14.5 -1.5q23 0 42 12.5t41 44.5l27 40l-58 15l-244 358l-85 21l5 62h302zM252 753l124 -5h250v-80h-376l-5 82z" />
    <glyph glyph-name="uni04EF" unicode="&#x4ef;" horiz-adv-x="764" 
d="M317 500l5 -62l-81 -14l172 -321h11l148 321l-76 14l4 62h243l5 -62l-63 -14l-229 -464q-30 -62 -75 -92.5t-109 -30.5q-44 0 -74.5 13t-53.5 39l38 66q42 -20 75 -20q45 0 71.5 17t41.5 48l13 27l-69 18l-217 375l-77 18l4 62h293zM244 644l109 -4h245v-73h-356l-4 74z
" />
    <glyph glyph-name="uni04F0" unicode="&#x4f0;" horiz-adv-x="848" 
d="M325 610l5 -62l-75 -16l184 -309h13l177 306l-91 19l4 62h288l5 -62l-87 -19l-263 -421q-23 -35 -45 -60.5t-46.5 -41.5t-52 -23.5t-60.5 -7.5q-78 0 -122.5 34t-44.5 93q0 35 25 56.5t61 21.5q39 0 57 -20.5t18 -45.5q0 -14 -1.5 -27.5t-6.5 -21.5q6 -5 13.5 -6.5
t14.5 -1.5q23 0 42 12.5t41 44.5l27 40l-58 15l-244 358l-85 21l5 62h302zM307 807q16 0 32 -5t29 -14.5t20.5 -23.5t7.5 -32t-7.5 -32t-20.5 -23.5t-29 -14.5t-32 -5q-17 0 -33 5t-28.5 14.5t-20 23.5t-7.5 32t7.5 32t20 23.5t28.5 14.5t33 5zM565 807q16 0 32 -5t29 -14.5
t20.5 -23.5t7.5 -32t-7.5 -32t-20.5 -23.5t-29 -14.5t-32 -5q-17 0 -33 5t-28.5 14.5t-20 23.5t-7.5 32t7.5 32t20 23.5t28.5 14.5t33 5z" />
    <glyph glyph-name="uni04F1" unicode="&#x4f1;" horiz-adv-x="764" 
d="M317 500l5 -62l-81 -14l172 -321h11l148 321l-76 14l4 62h243l5 -62l-63 -14l-229 -464q-30 -62 -75 -92.5t-109 -30.5q-44 0 -74.5 13t-53.5 39l38 66q42 -20 75 -20q45 0 71.5 17t41.5 48l13 27l-69 18l-217 375l-77 18l4 62h293zM299 688q29 0 50.5 -17t21.5 -44
t-21.5 -44t-50.5 -17t-50.5 17t-21.5 44t21.5 44t50.5 17zM534 688q29 0 50.5 -17t21.5 -44t-21.5 -44t-50.5 -17t-50.5 17t-21.5 44t21.5 44t50.5 17z" />
    </font>
</defs>
</svg>
